<?xml version="1.0" encoding="utf-8" standalone="no"?>
<!DOCTYPE svg PUBLIC "-//W3C//DTD SVG 1.1//EN"
  "http://www.w3.org/Graphics/SVG/1.1/DTD/svg11.dtd">
<svg height="270pt" version="1.1" viewBox="0 0 360 270" width="360pt" xmlns="http://www.w3.org/2000/svg" xmlns:xlink="http://www.w3.org/1999/xlink">
 <metadata>
  <rdf:RDF xmlns:cc="http://creativecommons.org/ns#" xmlns:dc="http://purl.org/dc/elements/1.1/" xmlns:rdf="http://www.w3.org/1999/02/22-rdf-syntax-ns#">
   <cc:Work>
    <dc:type rdf:resource="http://purl.org/dc/dcmitype/StillImage"/>
    <dc:date/>
    <dc:format>image/svg+xml</dc:format>
    <dc:creator>
     <cc:Agent>
      <dc:title>Matplotlib v3.4.3, https://matplotlib.org/</dc:title>
     </cc:Agent>
    </dc:creator>
   </cc:Work>
  </rdf:RDF>
 </metadata>
 <defs>
  <style type="text/css">*{stroke-linecap:butt;stroke-linejoin:round;}</style>
 </defs>
 <g id="figure_1">
  <g id="patch_1">
   <path d="M 0 270 
L 360 270 
L 360 0 
L 0 0 
z
" style="fill:#ffffff;"/>
  </g>
  <g id="axes_1">
   <g id="patch_2">
    <path d="M 47.72 228.04 
L 349.2 228.04 
L 349.2 14.76 
L 47.72 14.76 
z
" style="fill:#ffffff;"/>
   </g>
   <g id="matplotlib.axis_1">
    <g id="xtick_1">
     <g id="line2d_1">
      <path clip-path="url(#p4778da3dea)" d="M 61.423636 228.04 
L 61.423636 14.76 
" style="fill:none;stroke:#b0b0b0;stroke-linecap:square;stroke-width:0.8;"/>
     </g>
     <g id="line2d_2">
      <defs>
       <path d="M 0 0 
L 0 3.5 
" id="m4abed1d830" style="stroke:#000000;stroke-width:0.8;"/>
      </defs>
      <g>
       <use style="stroke:#000000;stroke-width:0.8;" x="61.423636" xlink:href="#m4abed1d830" y="228.04"/>
      </g>
     </g>
     <g id="text_1">
      <!-- 0 -->
      <g transform="translate(58.242386 242.638437)scale(0.1 -0.1)">
       <defs>
        <path d="M 2034 4250 
Q 1547 4250 1301 3770 
Q 1056 3291 1056 2328 
Q 1056 1369 1301 889 
Q 1547 409 2034 409 
Q 2525 409 2770 889 
Q 3016 1369 3016 2328 
Q 3016 3291 2770 3770 
Q 2525 4250 2034 4250 
z
M 2034 4750 
Q 2819 4750 3233 4129 
Q 3647 3509 3647 2328 
Q 3647 1150 3233 529 
Q 2819 -91 2034 -91 
Q 1250 -91 836 529 
Q 422 1150 422 2328 
Q 422 3509 836 4129 
Q 1250 4750 2034 4750 
z
" id="DejaVuSans-30" transform="scale(0.015625)"/>
       </defs>
       <use xlink:href="#DejaVuSans-30"/>
      </g>
     </g>
    </g>
    <g id="xtick_2">
     <g id="line2d_3">
      <path clip-path="url(#p4778da3dea)" d="M 107.255196 228.04 
L 107.255196 14.76 
" style="fill:none;stroke:#b0b0b0;stroke-linecap:square;stroke-width:0.8;"/>
     </g>
     <g id="line2d_4">
      <g>
       <use style="stroke:#000000;stroke-width:0.8;" x="107.255196" xlink:href="#m4abed1d830" y="228.04"/>
      </g>
     </g>
     <g id="text_2">
      <!-- 50 -->
      <g transform="translate(100.892696 242.638437)scale(0.1 -0.1)">
       <defs>
        <path d="M 691 4666 
L 3169 4666 
L 3169 4134 
L 1269 4134 
L 1269 2991 
Q 1406 3038 1543 3061 
Q 1681 3084 1819 3084 
Q 2600 3084 3056 2656 
Q 3513 2228 3513 1497 
Q 3513 744 3044 326 
Q 2575 -91 1722 -91 
Q 1428 -91 1123 -41 
Q 819 9 494 109 
L 494 744 
Q 775 591 1075 516 
Q 1375 441 1709 441 
Q 2250 441 2565 725 
Q 2881 1009 2881 1497 
Q 2881 1984 2565 2268 
Q 2250 2553 1709 2553 
Q 1456 2553 1204 2497 
Q 953 2441 691 2322 
L 691 4666 
z
" id="DejaVuSans-35" transform="scale(0.015625)"/>
       </defs>
       <use xlink:href="#DejaVuSans-35"/>
       <use x="63.623047" xlink:href="#DejaVuSans-30"/>
      </g>
     </g>
    </g>
    <g id="xtick_3">
     <g id="line2d_5">
      <path clip-path="url(#p4778da3dea)" d="M 153.086756 228.04 
L 153.086756 14.76 
" style="fill:none;stroke:#b0b0b0;stroke-linecap:square;stroke-width:0.8;"/>
     </g>
     <g id="line2d_6">
      <g>
       <use style="stroke:#000000;stroke-width:0.8;" x="153.086756" xlink:href="#m4abed1d830" y="228.04"/>
      </g>
     </g>
     <g id="text_3">
      <!-- 100 -->
      <g transform="translate(143.543006 242.638437)scale(0.1 -0.1)">
       <defs>
        <path d="M 794 531 
L 1825 531 
L 1825 4091 
L 703 3866 
L 703 4441 
L 1819 4666 
L 2450 4666 
L 2450 531 
L 3481 531 
L 3481 0 
L 794 0 
L 794 531 
z
" id="DejaVuSans-31" transform="scale(0.015625)"/>
       </defs>
       <use xlink:href="#DejaVuSans-31"/>
       <use x="63.623047" xlink:href="#DejaVuSans-30"/>
       <use x="127.246094" xlink:href="#DejaVuSans-30"/>
      </g>
     </g>
    </g>
    <g id="xtick_4">
     <g id="line2d_7">
      <path clip-path="url(#p4778da3dea)" d="M 198.918316 228.04 
L 198.918316 14.76 
" style="fill:none;stroke:#b0b0b0;stroke-linecap:square;stroke-width:0.8;"/>
     </g>
     <g id="line2d_8">
      <g>
       <use style="stroke:#000000;stroke-width:0.8;" x="198.918316" xlink:href="#m4abed1d830" y="228.04"/>
      </g>
     </g>
     <g id="text_4">
      <!-- 150 -->
      <g transform="translate(189.374566 242.638437)scale(0.1 -0.1)">
       <use xlink:href="#DejaVuSans-31"/>
       <use x="63.623047" xlink:href="#DejaVuSans-35"/>
       <use x="127.246094" xlink:href="#DejaVuSans-30"/>
      </g>
     </g>
    </g>
    <g id="xtick_5">
     <g id="line2d_9">
      <path clip-path="url(#p4778da3dea)" d="M 244.749875 228.04 
L 244.749875 14.76 
" style="fill:none;stroke:#b0b0b0;stroke-linecap:square;stroke-width:0.8;"/>
     </g>
     <g id="line2d_10">
      <g>
       <use style="stroke:#000000;stroke-width:0.8;" x="244.749875" xlink:href="#m4abed1d830" y="228.04"/>
      </g>
     </g>
     <g id="text_5">
      <!-- 200 -->
      <g transform="translate(235.206125 242.638437)scale(0.1 -0.1)">
       <defs>
        <path d="M 1228 531 
L 3431 531 
L 3431 0 
L 469 0 
L 469 531 
Q 828 903 1448 1529 
Q 2069 2156 2228 2338 
Q 2531 2678 2651 2914 
Q 2772 3150 2772 3378 
Q 2772 3750 2511 3984 
Q 2250 4219 1831 4219 
Q 1534 4219 1204 4116 
Q 875 4013 500 3803 
L 500 4441 
Q 881 4594 1212 4672 
Q 1544 4750 1819 4750 
Q 2544 4750 2975 4387 
Q 3406 4025 3406 3419 
Q 3406 3131 3298 2873 
Q 3191 2616 2906 2266 
Q 2828 2175 2409 1742 
Q 1991 1309 1228 531 
z
" id="DejaVuSans-32" transform="scale(0.015625)"/>
       </defs>
       <use xlink:href="#DejaVuSans-32"/>
       <use x="63.623047" xlink:href="#DejaVuSans-30"/>
       <use x="127.246094" xlink:href="#DejaVuSans-30"/>
      </g>
     </g>
    </g>
    <g id="xtick_6">
     <g id="line2d_11">
      <path clip-path="url(#p4778da3dea)" d="M 290.581435 228.04 
L 290.581435 14.76 
" style="fill:none;stroke:#b0b0b0;stroke-linecap:square;stroke-width:0.8;"/>
     </g>
     <g id="line2d_12">
      <g>
       <use style="stroke:#000000;stroke-width:0.8;" x="290.581435" xlink:href="#m4abed1d830" y="228.04"/>
      </g>
     </g>
     <g id="text_6">
      <!-- 250 -->
      <g transform="translate(281.037685 242.638437)scale(0.1 -0.1)">
       <use xlink:href="#DejaVuSans-32"/>
       <use x="63.623047" xlink:href="#DejaVuSans-35"/>
       <use x="127.246094" xlink:href="#DejaVuSans-30"/>
      </g>
     </g>
    </g>
    <g id="xtick_7">
     <g id="line2d_13">
      <path clip-path="url(#p4778da3dea)" d="M 336.412995 228.04 
L 336.412995 14.76 
" style="fill:none;stroke:#b0b0b0;stroke-linecap:square;stroke-width:0.8;"/>
     </g>
     <g id="line2d_14">
      <g>
       <use style="stroke:#000000;stroke-width:0.8;" x="336.412995" xlink:href="#m4abed1d830" y="228.04"/>
      </g>
     </g>
     <g id="text_7">
      <!-- 300 -->
      <g transform="translate(326.869245 242.638437)scale(0.1 -0.1)">
       <defs>
        <path d="M 2597 2516 
Q 3050 2419 3304 2112 
Q 3559 1806 3559 1356 
Q 3559 666 3084 287 
Q 2609 -91 1734 -91 
Q 1441 -91 1130 -33 
Q 819 25 488 141 
L 488 750 
Q 750 597 1062 519 
Q 1375 441 1716 441 
Q 2309 441 2620 675 
Q 2931 909 2931 1356 
Q 2931 1769 2642 2001 
Q 2353 2234 1838 2234 
L 1294 2234 
L 1294 2753 
L 1863 2753 
Q 2328 2753 2575 2939 
Q 2822 3125 2822 3475 
Q 2822 3834 2567 4026 
Q 2313 4219 1838 4219 
Q 1578 4219 1281 4162 
Q 984 4106 628 3988 
L 628 4550 
Q 988 4650 1302 4700 
Q 1616 4750 1894 4750 
Q 2613 4750 3031 4423 
Q 3450 4097 3450 3541 
Q 3450 3153 3228 2886 
Q 3006 2619 2597 2516 
z
" id="DejaVuSans-33" transform="scale(0.015625)"/>
       </defs>
       <use xlink:href="#DejaVuSans-33"/>
       <use x="63.623047" xlink:href="#DejaVuSans-30"/>
       <use x="127.246094" xlink:href="#DejaVuSans-30"/>
      </g>
     </g>
    </g>
    <g id="text_8">
     <!-- Number of hits -->
     <g transform="translate(161.25375 256.316562)scale(0.1 -0.1)">
      <defs>
       <path d="M 628 4666 
L 1478 4666 
L 3547 763 
L 3547 4666 
L 4159 4666 
L 4159 0 
L 3309 0 
L 1241 3903 
L 1241 0 
L 628 0 
L 628 4666 
z
" id="DejaVuSans-4e" transform="scale(0.015625)"/>
       <path d="M 544 1381 
L 544 3500 
L 1119 3500 
L 1119 1403 
Q 1119 906 1312 657 
Q 1506 409 1894 409 
Q 2359 409 2629 706 
Q 2900 1003 2900 1516 
L 2900 3500 
L 3475 3500 
L 3475 0 
L 2900 0 
L 2900 538 
Q 2691 219 2414 64 
Q 2138 -91 1772 -91 
Q 1169 -91 856 284 
Q 544 659 544 1381 
z
M 1991 3584 
L 1991 3584 
z
" id="DejaVuSans-75" transform="scale(0.015625)"/>
       <path d="M 3328 2828 
Q 3544 3216 3844 3400 
Q 4144 3584 4550 3584 
Q 5097 3584 5394 3201 
Q 5691 2819 5691 2113 
L 5691 0 
L 5113 0 
L 5113 2094 
Q 5113 2597 4934 2840 
Q 4756 3084 4391 3084 
Q 3944 3084 3684 2787 
Q 3425 2491 3425 1978 
L 3425 0 
L 2847 0 
L 2847 2094 
Q 2847 2600 2669 2842 
Q 2491 3084 2119 3084 
Q 1678 3084 1418 2786 
Q 1159 2488 1159 1978 
L 1159 0 
L 581 0 
L 581 3500 
L 1159 3500 
L 1159 2956 
Q 1356 3278 1631 3431 
Q 1906 3584 2284 3584 
Q 2666 3584 2933 3390 
Q 3200 3197 3328 2828 
z
" id="DejaVuSans-6d" transform="scale(0.015625)"/>
       <path d="M 3116 1747 
Q 3116 2381 2855 2742 
Q 2594 3103 2138 3103 
Q 1681 3103 1420 2742 
Q 1159 2381 1159 1747 
Q 1159 1113 1420 752 
Q 1681 391 2138 391 
Q 2594 391 2855 752 
Q 3116 1113 3116 1747 
z
M 1159 2969 
Q 1341 3281 1617 3432 
Q 1894 3584 2278 3584 
Q 2916 3584 3314 3078 
Q 3713 2572 3713 1747 
Q 3713 922 3314 415 
Q 2916 -91 2278 -91 
Q 1894 -91 1617 61 
Q 1341 213 1159 525 
L 1159 0 
L 581 0 
L 581 4863 
L 1159 4863 
L 1159 2969 
z
" id="DejaVuSans-62" transform="scale(0.015625)"/>
       <path d="M 3597 1894 
L 3597 1613 
L 953 1613 
Q 991 1019 1311 708 
Q 1631 397 2203 397 
Q 2534 397 2845 478 
Q 3156 559 3463 722 
L 3463 178 
Q 3153 47 2828 -22 
Q 2503 -91 2169 -91 
Q 1331 -91 842 396 
Q 353 884 353 1716 
Q 353 2575 817 3079 
Q 1281 3584 2069 3584 
Q 2775 3584 3186 3129 
Q 3597 2675 3597 1894 
z
M 3022 2063 
Q 3016 2534 2758 2815 
Q 2500 3097 2075 3097 
Q 1594 3097 1305 2825 
Q 1016 2553 972 2059 
L 3022 2063 
z
" id="DejaVuSans-65" transform="scale(0.015625)"/>
       <path d="M 2631 2963 
Q 2534 3019 2420 3045 
Q 2306 3072 2169 3072 
Q 1681 3072 1420 2755 
Q 1159 2438 1159 1844 
L 1159 0 
L 581 0 
L 581 3500 
L 1159 3500 
L 1159 2956 
Q 1341 3275 1631 3429 
Q 1922 3584 2338 3584 
Q 2397 3584 2469 3576 
Q 2541 3569 2628 3553 
L 2631 2963 
z
" id="DejaVuSans-72" transform="scale(0.015625)"/>
       <path id="DejaVuSans-20" transform="scale(0.015625)"/>
       <path d="M 1959 3097 
Q 1497 3097 1228 2736 
Q 959 2375 959 1747 
Q 959 1119 1226 758 
Q 1494 397 1959 397 
Q 2419 397 2687 759 
Q 2956 1122 2956 1747 
Q 2956 2369 2687 2733 
Q 2419 3097 1959 3097 
z
M 1959 3584 
Q 2709 3584 3137 3096 
Q 3566 2609 3566 1747 
Q 3566 888 3137 398 
Q 2709 -91 1959 -91 
Q 1206 -91 779 398 
Q 353 888 353 1747 
Q 353 2609 779 3096 
Q 1206 3584 1959 3584 
z
" id="DejaVuSans-6f" transform="scale(0.015625)"/>
       <path d="M 2375 4863 
L 2375 4384 
L 1825 4384 
Q 1516 4384 1395 4259 
Q 1275 4134 1275 3809 
L 1275 3500 
L 2222 3500 
L 2222 3053 
L 1275 3053 
L 1275 0 
L 697 0 
L 697 3053 
L 147 3053 
L 147 3500 
L 697 3500 
L 697 3744 
Q 697 4328 969 4595 
Q 1241 4863 1831 4863 
L 2375 4863 
z
" id="DejaVuSans-66" transform="scale(0.015625)"/>
       <path d="M 3513 2113 
L 3513 0 
L 2938 0 
L 2938 2094 
Q 2938 2591 2744 2837 
Q 2550 3084 2163 3084 
Q 1697 3084 1428 2787 
Q 1159 2491 1159 1978 
L 1159 0 
L 581 0 
L 581 4863 
L 1159 4863 
L 1159 2956 
Q 1366 3272 1645 3428 
Q 1925 3584 2291 3584 
Q 2894 3584 3203 3211 
Q 3513 2838 3513 2113 
z
" id="DejaVuSans-68" transform="scale(0.015625)"/>
       <path d="M 603 3500 
L 1178 3500 
L 1178 0 
L 603 0 
L 603 3500 
z
M 603 4863 
L 1178 4863 
L 1178 4134 
L 603 4134 
L 603 4863 
z
" id="DejaVuSans-69" transform="scale(0.015625)"/>
       <path d="M 1172 4494 
L 1172 3500 
L 2356 3500 
L 2356 3053 
L 1172 3053 
L 1172 1153 
Q 1172 725 1289 603 
Q 1406 481 1766 481 
L 2356 481 
L 2356 0 
L 1766 0 
Q 1100 0 847 248 
Q 594 497 594 1153 
L 594 3053 
L 172 3053 
L 172 3500 
L 594 3500 
L 594 4494 
L 1172 4494 
z
" id="DejaVuSans-74" transform="scale(0.015625)"/>
       <path d="M 2834 3397 
L 2834 2853 
Q 2591 2978 2328 3040 
Q 2066 3103 1784 3103 
Q 1356 3103 1142 2972 
Q 928 2841 928 2578 
Q 928 2378 1081 2264 
Q 1234 2150 1697 2047 
L 1894 2003 
Q 2506 1872 2764 1633 
Q 3022 1394 3022 966 
Q 3022 478 2636 193 
Q 2250 -91 1575 -91 
Q 1294 -91 989 -36 
Q 684 19 347 128 
L 347 722 
Q 666 556 975 473 
Q 1284 391 1588 391 
Q 1994 391 2212 530 
Q 2431 669 2431 922 
Q 2431 1156 2273 1281 
Q 2116 1406 1581 1522 
L 1381 1569 
Q 847 1681 609 1914 
Q 372 2147 372 2553 
Q 372 3047 722 3315 
Q 1072 3584 1716 3584 
Q 2034 3584 2315 3537 
Q 2597 3491 2834 3397 
z
" id="DejaVuSans-73" transform="scale(0.015625)"/>
      </defs>
      <use xlink:href="#DejaVuSans-4e"/>
      <use x="74.804688" xlink:href="#DejaVuSans-75"/>
      <use x="138.183594" xlink:href="#DejaVuSans-6d"/>
      <use x="235.595703" xlink:href="#DejaVuSans-62"/>
      <use x="299.072266" xlink:href="#DejaVuSans-65"/>
      <use x="360.595703" xlink:href="#DejaVuSans-72"/>
      <use x="401.708984" xlink:href="#DejaVuSans-20"/>
      <use x="433.496094" xlink:href="#DejaVuSans-6f"/>
      <use x="494.677734" xlink:href="#DejaVuSans-66"/>
      <use x="529.882812" xlink:href="#DejaVuSans-20"/>
      <use x="561.669922" xlink:href="#DejaVuSans-68"/>
      <use x="625.048828" xlink:href="#DejaVuSans-69"/>
      <use x="652.832031" xlink:href="#DejaVuSans-74"/>
      <use x="692.041016" xlink:href="#DejaVuSans-73"/>
     </g>
    </g>
   </g>
   <g id="matplotlib.axis_2">
    <g id="ytick_1">
     <g id="line2d_15">
      <path clip-path="url(#p4778da3dea)" d="M 47.72 228.04 
L 349.2 228.04 
" style="fill:none;stroke:#b0b0b0;stroke-linecap:square;stroke-width:0.8;"/>
     </g>
     <g id="line2d_16">
      <defs>
       <path d="M 0 0 
L -3.5 0 
" id="me91a084207" style="stroke:#000000;stroke-width:0.8;"/>
      </defs>
      <g>
       <use style="stroke:#000000;stroke-width:0.8;" x="47.72" xlink:href="#me91a084207" y="228.04"/>
      </g>
     </g>
     <g id="text_9">
      <!-- 0.0 -->
      <g transform="translate(24.816875 231.839219)scale(0.1 -0.1)">
       <defs>
        <path d="M 684 794 
L 1344 794 
L 1344 0 
L 684 0 
L 684 794 
z
" id="DejaVuSans-2e" transform="scale(0.015625)"/>
       </defs>
       <use xlink:href="#DejaVuSans-30"/>
       <use x="63.623047" xlink:href="#DejaVuSans-2e"/>
       <use x="95.410156" xlink:href="#DejaVuSans-30"/>
      </g>
     </g>
    </g>
    <g id="ytick_2">
     <g id="line2d_17">
      <path clip-path="url(#p4778da3dea)" d="M 47.72 185.384 
L 349.2 185.384 
" style="fill:none;stroke:#b0b0b0;stroke-linecap:square;stroke-width:0.8;"/>
     </g>
     <g id="line2d_18">
      <g>
       <use style="stroke:#000000;stroke-width:0.8;" x="47.72" xlink:href="#me91a084207" y="185.384"/>
      </g>
     </g>
     <g id="text_10">
      <!-- 0.2 -->
      <g transform="translate(24.816875 189.183219)scale(0.1 -0.1)">
       <use xlink:href="#DejaVuSans-30"/>
       <use x="63.623047" xlink:href="#DejaVuSans-2e"/>
       <use x="95.410156" xlink:href="#DejaVuSans-32"/>
      </g>
     </g>
    </g>
    <g id="ytick_3">
     <g id="line2d_19">
      <path clip-path="url(#p4778da3dea)" d="M 47.72 142.728 
L 349.2 142.728 
" style="fill:none;stroke:#b0b0b0;stroke-linecap:square;stroke-width:0.8;"/>
     </g>
     <g id="line2d_20">
      <g>
       <use style="stroke:#000000;stroke-width:0.8;" x="47.72" xlink:href="#me91a084207" y="142.728"/>
      </g>
     </g>
     <g id="text_11">
      <!-- 0.4 -->
      <g transform="translate(24.816875 146.527219)scale(0.1 -0.1)">
       <defs>
        <path d="M 2419 4116 
L 825 1625 
L 2419 1625 
L 2419 4116 
z
M 2253 4666 
L 3047 4666 
L 3047 1625 
L 3713 1625 
L 3713 1100 
L 3047 1100 
L 3047 0 
L 2419 0 
L 2419 1100 
L 313 1100 
L 313 1709 
L 2253 4666 
z
" id="DejaVuSans-34" transform="scale(0.015625)"/>
       </defs>
       <use xlink:href="#DejaVuSans-30"/>
       <use x="63.623047" xlink:href="#DejaVuSans-2e"/>
       <use x="95.410156" xlink:href="#DejaVuSans-34"/>
      </g>
     </g>
    </g>
    <g id="ytick_4">
     <g id="line2d_21">
      <path clip-path="url(#p4778da3dea)" d="M 47.72 100.072 
L 349.2 100.072 
" style="fill:none;stroke:#b0b0b0;stroke-linecap:square;stroke-width:0.8;"/>
     </g>
     <g id="line2d_22">
      <g>
       <use style="stroke:#000000;stroke-width:0.8;" x="47.72" xlink:href="#me91a084207" y="100.072"/>
      </g>
     </g>
     <g id="text_12">
      <!-- 0.6 -->
      <g transform="translate(24.816875 103.871219)scale(0.1 -0.1)">
       <defs>
        <path d="M 2113 2584 
Q 1688 2584 1439 2293 
Q 1191 2003 1191 1497 
Q 1191 994 1439 701 
Q 1688 409 2113 409 
Q 2538 409 2786 701 
Q 3034 994 3034 1497 
Q 3034 2003 2786 2293 
Q 2538 2584 2113 2584 
z
M 3366 4563 
L 3366 3988 
Q 3128 4100 2886 4159 
Q 2644 4219 2406 4219 
Q 1781 4219 1451 3797 
Q 1122 3375 1075 2522 
Q 1259 2794 1537 2939 
Q 1816 3084 2150 3084 
Q 2853 3084 3261 2657 
Q 3669 2231 3669 1497 
Q 3669 778 3244 343 
Q 2819 -91 2113 -91 
Q 1303 -91 875 529 
Q 447 1150 447 2328 
Q 447 3434 972 4092 
Q 1497 4750 2381 4750 
Q 2619 4750 2861 4703 
Q 3103 4656 3366 4563 
z
" id="DejaVuSans-36" transform="scale(0.015625)"/>
       </defs>
       <use xlink:href="#DejaVuSans-30"/>
       <use x="63.623047" xlink:href="#DejaVuSans-2e"/>
       <use x="95.410156" xlink:href="#DejaVuSans-36"/>
      </g>
     </g>
    </g>
    <g id="ytick_5">
     <g id="line2d_23">
      <path clip-path="url(#p4778da3dea)" d="M 47.72 57.416 
L 349.2 57.416 
" style="fill:none;stroke:#b0b0b0;stroke-linecap:square;stroke-width:0.8;"/>
     </g>
     <g id="line2d_24">
      <g>
       <use style="stroke:#000000;stroke-width:0.8;" x="47.72" xlink:href="#me91a084207" y="57.416"/>
      </g>
     </g>
     <g id="text_13">
      <!-- 0.8 -->
      <g transform="translate(24.816875 61.215219)scale(0.1 -0.1)">
       <defs>
        <path d="M 2034 2216 
Q 1584 2216 1326 1975 
Q 1069 1734 1069 1313 
Q 1069 891 1326 650 
Q 1584 409 2034 409 
Q 2484 409 2743 651 
Q 3003 894 3003 1313 
Q 3003 1734 2745 1975 
Q 2488 2216 2034 2216 
z
M 1403 2484 
Q 997 2584 770 2862 
Q 544 3141 544 3541 
Q 544 4100 942 4425 
Q 1341 4750 2034 4750 
Q 2731 4750 3128 4425 
Q 3525 4100 3525 3541 
Q 3525 3141 3298 2862 
Q 3072 2584 2669 2484 
Q 3125 2378 3379 2068 
Q 3634 1759 3634 1313 
Q 3634 634 3220 271 
Q 2806 -91 2034 -91 
Q 1263 -91 848 271 
Q 434 634 434 1313 
Q 434 1759 690 2068 
Q 947 2378 1403 2484 
z
M 1172 3481 
Q 1172 3119 1398 2916 
Q 1625 2713 2034 2713 
Q 2441 2713 2670 2916 
Q 2900 3119 2900 3481 
Q 2900 3844 2670 4047 
Q 2441 4250 2034 4250 
Q 1625 4250 1398 4047 
Q 1172 3844 1172 3481 
z
" id="DejaVuSans-38" transform="scale(0.015625)"/>
       </defs>
       <use xlink:href="#DejaVuSans-30"/>
       <use x="63.623047" xlink:href="#DejaVuSans-2e"/>
       <use x="95.410156" xlink:href="#DejaVuSans-38"/>
      </g>
     </g>
    </g>
    <g id="ytick_6">
     <g id="line2d_25">
      <path clip-path="url(#p4778da3dea)" d="M 47.72 14.76 
L 349.2 14.76 
" style="fill:none;stroke:#b0b0b0;stroke-linecap:square;stroke-width:0.8;"/>
     </g>
     <g id="line2d_26">
      <g>
       <use style="stroke:#000000;stroke-width:0.8;" x="47.72" xlink:href="#me91a084207" y="14.76"/>
      </g>
     </g>
     <g id="text_14">
      <!-- 1.0 -->
      <g transform="translate(24.816875 18.559219)scale(0.1 -0.1)">
       <use xlink:href="#DejaVuSans-31"/>
       <use x="63.623047" xlink:href="#DejaVuSans-2e"/>
       <use x="95.410156" xlink:href="#DejaVuSans-30"/>
      </g>
     </g>
    </g>
    <g id="text_15">
     <!-- Mean fraction of homologous sequences found -->
     <g transform="translate(18.737188 238.639062)rotate(-90)scale(0.1 -0.1)">
      <defs>
       <path d="M 628 4666 
L 1569 4666 
L 2759 1491 
L 3956 4666 
L 4897 4666 
L 4897 0 
L 4281 0 
L 4281 4097 
L 3078 897 
L 2444 897 
L 1241 4097 
L 1241 0 
L 628 0 
L 628 4666 
z
" id="DejaVuSans-4d" transform="scale(0.015625)"/>
       <path d="M 2194 1759 
Q 1497 1759 1228 1600 
Q 959 1441 959 1056 
Q 959 750 1161 570 
Q 1363 391 1709 391 
Q 2188 391 2477 730 
Q 2766 1069 2766 1631 
L 2766 1759 
L 2194 1759 
z
M 3341 1997 
L 3341 0 
L 2766 0 
L 2766 531 
Q 2569 213 2275 61 
Q 1981 -91 1556 -91 
Q 1019 -91 701 211 
Q 384 513 384 1019 
Q 384 1609 779 1909 
Q 1175 2209 1959 2209 
L 2766 2209 
L 2766 2266 
Q 2766 2663 2505 2880 
Q 2244 3097 1772 3097 
Q 1472 3097 1187 3025 
Q 903 2953 641 2809 
L 641 3341 
Q 956 3463 1253 3523 
Q 1550 3584 1831 3584 
Q 2591 3584 2966 3190 
Q 3341 2797 3341 1997 
z
" id="DejaVuSans-61" transform="scale(0.015625)"/>
       <path d="M 3513 2113 
L 3513 0 
L 2938 0 
L 2938 2094 
Q 2938 2591 2744 2837 
Q 2550 3084 2163 3084 
Q 1697 3084 1428 2787 
Q 1159 2491 1159 1978 
L 1159 0 
L 581 0 
L 581 3500 
L 1159 3500 
L 1159 2956 
Q 1366 3272 1645 3428 
Q 1925 3584 2291 3584 
Q 2894 3584 3203 3211 
Q 3513 2838 3513 2113 
z
" id="DejaVuSans-6e" transform="scale(0.015625)"/>
       <path d="M 3122 3366 
L 3122 2828 
Q 2878 2963 2633 3030 
Q 2388 3097 2138 3097 
Q 1578 3097 1268 2742 
Q 959 2388 959 1747 
Q 959 1106 1268 751 
Q 1578 397 2138 397 
Q 2388 397 2633 464 
Q 2878 531 3122 666 
L 3122 134 
Q 2881 22 2623 -34 
Q 2366 -91 2075 -91 
Q 1284 -91 818 406 
Q 353 903 353 1747 
Q 353 2603 823 3093 
Q 1294 3584 2113 3584 
Q 2378 3584 2631 3529 
Q 2884 3475 3122 3366 
z
" id="DejaVuSans-63" transform="scale(0.015625)"/>
       <path d="M 603 4863 
L 1178 4863 
L 1178 0 
L 603 0 
L 603 4863 
z
" id="DejaVuSans-6c" transform="scale(0.015625)"/>
       <path d="M 2906 1791 
Q 2906 2416 2648 2759 
Q 2391 3103 1925 3103 
Q 1463 3103 1205 2759 
Q 947 2416 947 1791 
Q 947 1169 1205 825 
Q 1463 481 1925 481 
Q 2391 481 2648 825 
Q 2906 1169 2906 1791 
z
M 3481 434 
Q 3481 -459 3084 -895 
Q 2688 -1331 1869 -1331 
Q 1566 -1331 1297 -1286 
Q 1028 -1241 775 -1147 
L 775 -588 
Q 1028 -725 1275 -790 
Q 1522 -856 1778 -856 
Q 2344 -856 2625 -561 
Q 2906 -266 2906 331 
L 2906 616 
Q 2728 306 2450 153 
Q 2172 0 1784 0 
Q 1141 0 747 490 
Q 353 981 353 1791 
Q 353 2603 747 3093 
Q 1141 3584 1784 3584 
Q 2172 3584 2450 3431 
Q 2728 3278 2906 2969 
L 2906 3500 
L 3481 3500 
L 3481 434 
z
" id="DejaVuSans-67" transform="scale(0.015625)"/>
       <path d="M 947 1747 
Q 947 1113 1208 752 
Q 1469 391 1925 391 
Q 2381 391 2643 752 
Q 2906 1113 2906 1747 
Q 2906 2381 2643 2742 
Q 2381 3103 1925 3103 
Q 1469 3103 1208 2742 
Q 947 2381 947 1747 
z
M 2906 525 
Q 2725 213 2448 61 
Q 2172 -91 1784 -91 
Q 1150 -91 751 415 
Q 353 922 353 1747 
Q 353 2572 751 3078 
Q 1150 3584 1784 3584 
Q 2172 3584 2448 3432 
Q 2725 3281 2906 2969 
L 2906 3500 
L 3481 3500 
L 3481 -1331 
L 2906 -1331 
L 2906 525 
z
" id="DejaVuSans-71" transform="scale(0.015625)"/>
       <path d="M 2906 2969 
L 2906 4863 
L 3481 4863 
L 3481 0 
L 2906 0 
L 2906 525 
Q 2725 213 2448 61 
Q 2172 -91 1784 -91 
Q 1150 -91 751 415 
Q 353 922 353 1747 
Q 353 2572 751 3078 
Q 1150 3584 1784 3584 
Q 2172 3584 2448 3432 
Q 2725 3281 2906 2969 
z
M 947 1747 
Q 947 1113 1208 752 
Q 1469 391 1925 391 
Q 2381 391 2643 752 
Q 2906 1113 2906 1747 
Q 2906 2381 2643 2742 
Q 2381 3103 1925 3103 
Q 1469 3103 1208 2742 
Q 947 2381 947 1747 
z
" id="DejaVuSans-64" transform="scale(0.015625)"/>
      </defs>
      <use xlink:href="#DejaVuSans-4d"/>
      <use x="86.279297" xlink:href="#DejaVuSans-65"/>
      <use x="147.802734" xlink:href="#DejaVuSans-61"/>
      <use x="209.082031" xlink:href="#DejaVuSans-6e"/>
      <use x="272.460938" xlink:href="#DejaVuSans-20"/>
      <use x="304.248047" xlink:href="#DejaVuSans-66"/>
      <use x="339.453125" xlink:href="#DejaVuSans-72"/>
      <use x="380.566406" xlink:href="#DejaVuSans-61"/>
      <use x="441.845703" xlink:href="#DejaVuSans-63"/>
      <use x="496.826172" xlink:href="#DejaVuSans-74"/>
      <use x="536.035156" xlink:href="#DejaVuSans-69"/>
      <use x="563.818359" xlink:href="#DejaVuSans-6f"/>
      <use x="625" xlink:href="#DejaVuSans-6e"/>
      <use x="688.378906" xlink:href="#DejaVuSans-20"/>
      <use x="720.166016" xlink:href="#DejaVuSans-6f"/>
      <use x="781.347656" xlink:href="#DejaVuSans-66"/>
      <use x="816.552734" xlink:href="#DejaVuSans-20"/>
      <use x="848.339844" xlink:href="#DejaVuSans-68"/>
      <use x="911.71875" xlink:href="#DejaVuSans-6f"/>
      <use x="972.900391" xlink:href="#DejaVuSans-6d"/>
      <use x="1070.3125" xlink:href="#DejaVuSans-6f"/>
      <use x="1131.494141" xlink:href="#DejaVuSans-6c"/>
      <use x="1159.277344" xlink:href="#DejaVuSans-6f"/>
      <use x="1220.458984" xlink:href="#DejaVuSans-67"/>
      <use x="1283.935547" xlink:href="#DejaVuSans-6f"/>
      <use x="1345.117188" xlink:href="#DejaVuSans-75"/>
      <use x="1408.496094" xlink:href="#DejaVuSans-73"/>
      <use x="1460.595703" xlink:href="#DejaVuSans-20"/>
      <use x="1492.382812" xlink:href="#DejaVuSans-73"/>
      <use x="1544.482422" xlink:href="#DejaVuSans-65"/>
      <use x="1606.005859" xlink:href="#DejaVuSans-71"/>
      <use x="1669.482422" xlink:href="#DejaVuSans-75"/>
      <use x="1732.861328" xlink:href="#DejaVuSans-65"/>
      <use x="1794.384766" xlink:href="#DejaVuSans-6e"/>
      <use x="1857.763672" xlink:href="#DejaVuSans-63"/>
      <use x="1912.744141" xlink:href="#DejaVuSans-65"/>
      <use x="1974.267578" xlink:href="#DejaVuSans-73"/>
      <use x="2026.367188" xlink:href="#DejaVuSans-20"/>
      <use x="2058.154297" xlink:href="#DejaVuSans-66"/>
      <use x="2093.359375" xlink:href="#DejaVuSans-6f"/>
      <use x="2154.541016" xlink:href="#DejaVuSans-75"/>
      <use x="2217.919922" xlink:href="#DejaVuSans-6e"/>
      <use x="2281.298828" xlink:href="#DejaVuSans-64"/>
     </g>
    </g>
   </g>
   <g id="line2d_27">
    <path clip-path="url(#p4778da3dea)" d="M 61.423636 220.168868 
L 65.090161 189.674044 
L 68.756686 161.012774 
L 71.50658 141.067405 
L 74.256473 122.940714 
L 76.089735 112.382829 
L 77.006367 107.844407 
L 77.922998 104.130791 
L 78.839629 102.159087 
L 80.672891 99.036121 
L 82.506154 96.36672 
L 85.256047 92.83843 
L 88.005941 89.695717 
L 90.755835 86.883878 
L 93.505728 84.442376 
L 95.338991 83.064379 
L 97.172253 81.938027 
L 99.922147 80.51652 
L 103.588671 78.861725 
L 108.171827 77.064744 
L 112.754983 75.539213 
L 116.421508 74.526657 
L 121.921295 73.23606 
L 128.337714 71.930774 
L 135.670763 70.679676 
L 144.837075 69.335974 
L 154.920018 68.110819 
L 167.752855 66.866656 
L 179.669061 65.927575 
L 192.501897 65.087483 
L 211.751152 64.022124 
L 230.083776 63.194104 
L 257.582712 62.187507 
L 286.91491 61.31156 
L 331.829839 60.280176 
L 334.579732 60.227421 
L 334.579732 60.227421 
" style="fill:none;stroke:#1f77b4;stroke-linecap:square;stroke-width:1.5;"/>
   </g>
   <g id="line2d_28">
    <path clip-path="url(#p4778da3dea)" d="M 61.423636 220.163722 
L 65.090161 189.602288 
L 68.756686 160.800206 
L 71.50658 140.739533 
L 74.256473 122.536427 
L 76.089735 112.026344 
L 77.006367 107.557894 
L 77.922998 103.982268 
L 78.839629 102.08202 
L 80.672891 99.006796 
L 83.422785 95.104343 
L 86.172679 91.65711 
L 88.922572 88.56784 
L 91.672466 85.83053 
L 94.422359 83.52081 
L 96.255622 82.263688 
L 99.005515 80.73419 
L 102.67204 78.971563 
L 107.255196 77.044062 
L 110.921721 75.713812 
L 114.588246 74.568768 
L 120.088033 73.126194 
L 126.504451 71.676379 
L 133.837501 70.258284 
L 142.087182 68.903085 
L 150.336862 67.733208 
L 161.336437 66.435519 
L 173.252642 65.303711 
L 190.668635 63.924043 
L 210.834521 62.616845 
L 228.250514 61.684998 
L 252.082925 60.617836 
L 287.831542 59.308182 
L 315.330477 58.474881 
L 334.579732 57.95662 
L 334.579732 57.95662 
" style="fill:none;stroke:#ff7f0e;stroke-linecap:square;stroke-width:1.5;"/>
   </g>
   <g id="line2d_29">
    <path clip-path="url(#p4778da3dea)" d="M 61.423636 220.223735 
L 64.17353 197.706152 
L 66.923424 176.690939 
L 69.673317 157.37175 
L 72.423211 140.015533 
L 74.256473 129.750013 
L 76.089735 120.850172 
L 77.006367 117.12604 
L 77.922998 114.144165 
L 78.839629 112.581166 
L 80.672891 110.065997 
L 82.506154 107.894947 
L 85.256047 105.007365 
L 88.005941 102.45328 
L 90.755835 100.206898 
L 93.505728 98.299891 
L 95.338991 97.24939 
L 97.172253 96.40336 
L 100.838778 95.019792 
L 105.421934 93.554166 
L 110.00509 92.315347 
L 114.588246 91.317139 
L 120.088033 90.368218 
L 127.421082 89.321218 
L 135.670763 88.357007 
L 146.670337 87.327967 
L 157.669912 86.522341 
L 169.586117 85.878079 
L 187.00211 85.167719 
L 209.001259 84.496603 
L 236.500195 83.895134 
L 273.165442 83.365419 
L 315.330477 82.993653 
L 334.579732 82.888155 
L 334.579732 82.888155 
" style="fill:none;stroke:#2ca02c;stroke-linecap:square;stroke-width:1.5;"/>
   </g>
   <g id="line2d_30">
    <path clip-path="url(#p4778da3dea)" d="M 61.423636 220.271877 
L 65.090161 190.613858 
L 67.840055 169.919149 
L 70.589948 150.924759 
L 72.423211 139.483335 
L 74.256473 129.356208 
L 76.089735 121.023238 
L 77.006367 117.740674 
L 77.922998 115.258977 
L 79.75626 112.642642 
L 81.589523 110.504764 
L 83.422785 108.638949 
L 86.172679 106.207981 
L 88.922572 104.157023 
L 91.672466 102.456014 
L 94.422359 101.124492 
L 97.172253 100.148294 
L 100.838778 99.128818 
L 105.421934 98.098541 
L 110.00509 97.29771 
L 115.504877 96.584369 
L 123.754558 95.80251 
L 132.92087 95.17236 
L 144.837075 94.606359 
L 159.503174 94.153134 
L 179.669061 93.79771 
L 207.167996 93.534612 
L 252.082925 93.33662 
L 334.579732 93.23938 
L 334.579732 93.23938 
" style="fill:none;stroke:#d62728;stroke-linecap:square;stroke-width:1.5;"/>
   </g>
   <g id="line2d_31">
    <path clip-path="url(#p4778da3dea)" d="M 61.423636 220.783595 
L 64.17353 200.798004 
L 66.923424 182.897305 
L 69.673317 167.017615 
L 71.50658 157.628988 
L 73.339842 149.298778 
L 75.173104 142.172649 
L 76.089735 139.119215 
L 77.006367 136.476271 
L 77.922998 134.33828 
L 79.75626 131.379909 
L 81.589523 128.862238 
L 84.339416 125.584897 
L 87.08931 122.753603 
L 89.839203 120.286899 
L 92.589097 118.1552 
L 95.338991 116.330463 
L 99.005515 114.296656 
L 102.67204 112.538759 
L 106.338565 110.971606 
L 110.921721 109.240662 
L 115.504877 107.733597 
L 121.921295 105.882042 
L 128.337714 104.266807 
L 134.754132 102.833294 
L 144.837075 100.88806 
L 154.003387 99.357281 
L 164.08633 97.878805 
L 176.919167 96.249927 
L 190.668635 94.717934 
L 206.251365 93.196532 
L 220.917464 91.918863 
L 240.166719 90.444428 
L 259.415974 89.135416 
L 294.24796 87.103767 
L 326.330052 85.492753 
L 335.496364 85.064508 
L 335.496364 85.064508 
" style="fill:none;stroke:#9467bd;stroke-linecap:square;stroke-width:1.5;"/>
   </g>
   <g id="patch_3">
    <path d="M 47.72 228.04 
L 47.72 14.76 
" style="fill:none;stroke:#000000;stroke-linecap:square;stroke-linejoin:miter;stroke-width:0.8;"/>
   </g>
   <g id="patch_4">
    <path d="M 349.2 228.04 
L 349.2 14.76 
" style="fill:none;stroke:#000000;stroke-linecap:square;stroke-linejoin:miter;stroke-width:0.8;"/>
   </g>
   <g id="patch_5">
    <path d="M 47.72 228.04 
L 349.2 228.04 
" style="fill:none;stroke:#000000;stroke-linecap:square;stroke-linejoin:miter;stroke-width:0.8;"/>
   </g>
   <g id="patch_6">
    <path d="M 47.72 14.76 
L 349.2 14.76 
" style="fill:none;stroke:#000000;stroke-linecap:square;stroke-linejoin:miter;stroke-width:0.8;"/>
   </g>
   <g id="legend_1">
    <g id="patch_7">
     <path d="M 158.159375 223.04 
L 342.2 223.04 
Q 344.2 223.04 344.2 221.04 
L 344.2 148.649375 
Q 344.2 146.649375 342.2 146.649375 
L 158.159375 146.649375 
Q 156.159375 146.649375 156.159375 148.649375 
L 156.159375 221.04 
Q 156.159375 223.04 158.159375 223.04 
z
" style="fill:#ffffff;opacity:0.8;stroke:#cccccc;stroke-linejoin:miter;"/>
    </g>
    <g id="line2d_32">
     <path d="M 160.159375 154.747812 
L 180.159375 154.747812 
" style="fill:none;stroke:#1f77b4;stroke-linecap:square;stroke-width:1.5;"/>
    </g>
    <g id="line2d_33"/>
    <g id="text_16">
     <!-- MMseqs2 + knnProtT5 aligned -->
     <g transform="translate(188.159375 158.247812)scale(0.1 -0.1)">
      <defs>
       <path d="M 2944 4013 
L 2944 2272 
L 4684 2272 
L 4684 1741 
L 2944 1741 
L 2944 0 
L 2419 0 
L 2419 1741 
L 678 1741 
L 678 2272 
L 2419 2272 
L 2419 4013 
L 2944 4013 
z
" id="DejaVuSans-2b" transform="scale(0.015625)"/>
       <path d="M 581 4863 
L 1159 4863 
L 1159 1991 
L 2875 3500 
L 3609 3500 
L 1753 1863 
L 3688 0 
L 2938 0 
L 1159 1709 
L 1159 0 
L 581 0 
L 581 4863 
z
" id="DejaVuSans-6b" transform="scale(0.015625)"/>
       <path d="M 1259 4147 
L 1259 2394 
L 2053 2394 
Q 2494 2394 2734 2622 
Q 2975 2850 2975 3272 
Q 2975 3691 2734 3919 
Q 2494 4147 2053 4147 
L 1259 4147 
z
M 628 4666 
L 2053 4666 
Q 2838 4666 3239 4311 
Q 3641 3956 3641 3272 
Q 3641 2581 3239 2228 
Q 2838 1875 2053 1875 
L 1259 1875 
L 1259 0 
L 628 0 
L 628 4666 
z
" id="DejaVuSans-50" transform="scale(0.015625)"/>
       <path d="M -19 4666 
L 3928 4666 
L 3928 4134 
L 2272 4134 
L 2272 0 
L 1638 0 
L 1638 4134 
L -19 4134 
L -19 4666 
z
" id="DejaVuSans-54" transform="scale(0.015625)"/>
      </defs>
      <use xlink:href="#DejaVuSans-4d"/>
      <use x="86.279297" xlink:href="#DejaVuSans-4d"/>
      <use x="172.558594" xlink:href="#DejaVuSans-73"/>
      <use x="224.658203" xlink:href="#DejaVuSans-65"/>
      <use x="286.181641" xlink:href="#DejaVuSans-71"/>
      <use x="349.658203" xlink:href="#DejaVuSans-73"/>
      <use x="401.757812" xlink:href="#DejaVuSans-32"/>
      <use x="465.380859" xlink:href="#DejaVuSans-20"/>
      <use x="497.167969" xlink:href="#DejaVuSans-2b"/>
      <use x="580.957031" xlink:href="#DejaVuSans-20"/>
      <use x="612.744141" xlink:href="#DejaVuSans-6b"/>
      <use x="670.654297" xlink:href="#DejaVuSans-6e"/>
      <use x="734.033203" xlink:href="#DejaVuSans-6e"/>
      <use x="797.412109" xlink:href="#DejaVuSans-50"/>
      <use x="855.964844" xlink:href="#DejaVuSans-72"/>
      <use x="894.828125" xlink:href="#DejaVuSans-6f"/>
      <use x="956.009766" xlink:href="#DejaVuSans-74"/>
      <use x="995.21875" xlink:href="#DejaVuSans-54"/>
      <use x="1056.302734" xlink:href="#DejaVuSans-35"/>
      <use x="1119.925781" xlink:href="#DejaVuSans-20"/>
      <use x="1151.712891" xlink:href="#DejaVuSans-61"/>
      <use x="1212.992188" xlink:href="#DejaVuSans-6c"/>
      <use x="1240.775391" xlink:href="#DejaVuSans-69"/>
      <use x="1268.558594" xlink:href="#DejaVuSans-67"/>
      <use x="1332.035156" xlink:href="#DejaVuSans-6e"/>
      <use x="1395.414062" xlink:href="#DejaVuSans-65"/>
      <use x="1456.9375" xlink:href="#DejaVuSans-64"/>
     </g>
    </g>
    <g id="line2d_34">
     <path d="M 160.159375 169.425937 
L 180.159375 169.425937 
" style="fill:none;stroke:#ff7f0e;stroke-linecap:square;stroke-width:1.5;"/>
    </g>
    <g id="line2d_35"/>
    <g id="text_17">
     <!-- MMseqs2 E&lt;0.1 + knnProtT5 -->
     <g transform="translate(188.159375 172.925937)scale(0.1 -0.1)">
      <defs>
       <path d="M 628 4666 
L 3578 4666 
L 3578 4134 
L 1259 4134 
L 1259 2753 
L 3481 2753 
L 3481 2222 
L 1259 2222 
L 1259 531 
L 3634 531 
L 3634 0 
L 628 0 
L 628 4666 
z
" id="DejaVuSans-45" transform="scale(0.015625)"/>
       <path d="M 4684 3150 
L 1459 2003 
L 4684 863 
L 4684 294 
L 678 1747 
L 678 2266 
L 4684 3719 
L 4684 3150 
z
" id="DejaVuSans-3c" transform="scale(0.015625)"/>
      </defs>
      <use xlink:href="#DejaVuSans-4d"/>
      <use x="86.279297" xlink:href="#DejaVuSans-4d"/>
      <use x="172.558594" xlink:href="#DejaVuSans-73"/>
      <use x="224.658203" xlink:href="#DejaVuSans-65"/>
      <use x="286.181641" xlink:href="#DejaVuSans-71"/>
      <use x="349.658203" xlink:href="#DejaVuSans-73"/>
      <use x="401.757812" xlink:href="#DejaVuSans-32"/>
      <use x="465.380859" xlink:href="#DejaVuSans-20"/>
      <use x="497.167969" xlink:href="#DejaVuSans-45"/>
      <use x="560.351562" xlink:href="#DejaVuSans-3c"/>
      <use x="644.140625" xlink:href="#DejaVuSans-30"/>
      <use x="707.763672" xlink:href="#DejaVuSans-2e"/>
      <use x="739.550781" xlink:href="#DejaVuSans-31"/>
      <use x="803.173828" xlink:href="#DejaVuSans-20"/>
      <use x="834.960938" xlink:href="#DejaVuSans-2b"/>
      <use x="918.75" xlink:href="#DejaVuSans-20"/>
      <use x="950.537109" xlink:href="#DejaVuSans-6b"/>
      <use x="1008.447266" xlink:href="#DejaVuSans-6e"/>
      <use x="1071.826172" xlink:href="#DejaVuSans-6e"/>
      <use x="1135.205078" xlink:href="#DejaVuSans-50"/>
      <use x="1193.757812" xlink:href="#DejaVuSans-72"/>
      <use x="1232.621094" xlink:href="#DejaVuSans-6f"/>
      <use x="1293.802734" xlink:href="#DejaVuSans-74"/>
      <use x="1333.011719" xlink:href="#DejaVuSans-54"/>
      <use x="1394.095703" xlink:href="#DejaVuSans-35"/>
     </g>
    </g>
    <g id="line2d_36">
     <path d="M 160.159375 184.104062 
L 180.159375 184.104062 
" style="fill:none;stroke:#2ca02c;stroke-linecap:square;stroke-width:1.5;"/>
    </g>
    <g id="line2d_37"/>
    <g id="text_18">
     <!-- MMseqs2 -->
     <g transform="translate(188.159375 187.604062)scale(0.1 -0.1)">
      <use xlink:href="#DejaVuSans-4d"/>
      <use x="86.279297" xlink:href="#DejaVuSans-4d"/>
      <use x="172.558594" xlink:href="#DejaVuSans-73"/>
      <use x="224.658203" xlink:href="#DejaVuSans-65"/>
      <use x="286.181641" xlink:href="#DejaVuSans-71"/>
      <use x="349.658203" xlink:href="#DejaVuSans-73"/>
      <use x="401.757812" xlink:href="#DejaVuSans-32"/>
     </g>
    </g>
    <g id="line2d_38">
     <path d="M 160.159375 198.782187 
L 180.159375 198.782187 
" style="fill:none;stroke:#d62728;stroke-linecap:square;stroke-width:1.5;"/>
    </g>
    <g id="line2d_39"/>
    <g id="text_19">
     <!-- knnProtT5 aligned -->
     <g transform="translate(188.159375 202.282187)scale(0.1 -0.1)">
      <use xlink:href="#DejaVuSans-6b"/>
      <use x="57.910156" xlink:href="#DejaVuSans-6e"/>
      <use x="121.289062" xlink:href="#DejaVuSans-6e"/>
      <use x="184.667969" xlink:href="#DejaVuSans-50"/>
      <use x="243.220703" xlink:href="#DejaVuSans-72"/>
      <use x="282.083984" xlink:href="#DejaVuSans-6f"/>
      <use x="343.265625" xlink:href="#DejaVuSans-74"/>
      <use x="382.474609" xlink:href="#DejaVuSans-54"/>
      <use x="443.558594" xlink:href="#DejaVuSans-35"/>
      <use x="507.181641" xlink:href="#DejaVuSans-20"/>
      <use x="538.96875" xlink:href="#DejaVuSans-61"/>
      <use x="600.248047" xlink:href="#DejaVuSans-6c"/>
      <use x="628.03125" xlink:href="#DejaVuSans-69"/>
      <use x="655.814453" xlink:href="#DejaVuSans-67"/>
      <use x="719.291016" xlink:href="#DejaVuSans-6e"/>
      <use x="782.669922" xlink:href="#DejaVuSans-65"/>
      <use x="844.193359" xlink:href="#DejaVuSans-64"/>
     </g>
    </g>
    <g id="line2d_40">
     <path d="M 160.159375 213.460312 
L 180.159375 213.460312 
" style="fill:none;stroke:#9467bd;stroke-linecap:square;stroke-width:1.5;"/>
    </g>
    <g id="line2d_41"/>
    <g id="text_20">
     <!-- knnProtT5 -->
     <g transform="translate(188.159375 216.960312)scale(0.1 -0.1)">
      <use xlink:href="#DejaVuSans-6b"/>
      <use x="57.910156" xlink:href="#DejaVuSans-6e"/>
      <use x="121.289062" xlink:href="#DejaVuSans-6e"/>
      <use x="184.667969" xlink:href="#DejaVuSans-50"/>
      <use x="243.220703" xlink:href="#DejaVuSans-72"/>
      <use x="282.083984" xlink:href="#DejaVuSans-6f"/>
      <use x="343.265625" xlink:href="#DejaVuSans-74"/>
      <use x="382.474609" xlink:href="#DejaVuSans-54"/>
      <use x="443.558594" xlink:href="#DejaVuSans-35"/>
     </g>
    </g>
   </g>
  </g>
 </g>
 <defs>
  <clipPath id="p4778da3dea">
   <rect height="213.28" width="301.48" x="47.72" y="14.76"/>
  </clipPath>
 </defs>
</svg>
