<?xml version="1.0" encoding="utf-8" standalone="no"?>
<!DOCTYPE svg PUBLIC "-//W3C//DTD SVG 1.1//EN"
  "http://www.w3.org/Graphics/SVG/1.1/DTD/svg11.dtd">
<svg height="270pt" version="1.1" viewBox="0 0 360 270" width="360pt" xmlns="http://www.w3.org/2000/svg" xmlns:xlink="http://www.w3.org/1999/xlink">
 <metadata>
  <rdf:RDF xmlns:cc="http://creativecommons.org/ns#" xmlns:dc="http://purl.org/dc/elements/1.1/" xmlns:rdf="http://www.w3.org/1999/02/22-rdf-syntax-ns#">
   <cc:Work>
    <dc:type rdf:resource="http://purl.org/dc/dcmitype/StillImage"/>
    <dc:date/>
    <dc:format>image/svg+xml</dc:format>
    <dc:creator>
     <cc:Agent>
      <dc:title>Matplotlib v3.4.3, https://matplotlib.org/</dc:title>
     </cc:Agent>
    </dc:creator>
   </cc:Work>
  </rdf:RDF>
 </metadata>
 <defs>
  <style type="text/css">*{stroke-linecap:butt;stroke-linejoin:round;}</style>
 </defs>
 <g id="figure_1">
  <g id="patch_1">
   <path d="M 0 270 
L 360 270 
L 360 0 
L 0 0 
z
" style="fill:#ffffff;"/>
  </g>
  <g id="axes_1">
   <g id="patch_2">
    <path d="M 47.72 228.04 
L 341.28 228.04 
L 341.28 14.76 
L 47.72 14.76 
z
" style="fill:#ffffff;"/>
   </g>
   <g id="matplotlib.axis_1">
    <g id="xtick_1">
     <g id="line2d_1">
      <path clip-path="url(#p15b75def92)" d="M 47.72 228.04 
L 47.72 14.76 
" style="fill:none;stroke:#b0b0b0;stroke-linecap:square;stroke-width:0.8;"/>
     </g>
     <g id="line2d_2">
      <defs>
       <path d="M 0 0 
L 0 3.5 
" id="m4abed1d830" style="stroke:#000000;stroke-width:0.8;"/>
      </defs>
      <g>
       <use style="stroke:#000000;stroke-width:0.8;" x="47.72" xlink:href="#m4abed1d830" y="228.04"/>
      </g>
     </g>
     <g id="text_1">
      <!-- 0.0 -->
      <g transform="translate(39.768438 242.638437)scale(0.1 -0.1)">
       <defs>
        <path d="M 2034 4250 
Q 1547 4250 1301 3770 
Q 1056 3291 1056 2328 
Q 1056 1369 1301 889 
Q 1547 409 2034 409 
Q 2525 409 2770 889 
Q 3016 1369 3016 2328 
Q 3016 3291 2770 3770 
Q 2525 4250 2034 4250 
z
M 2034 4750 
Q 2819 4750 3233 4129 
Q 3647 3509 3647 2328 
Q 3647 1150 3233 529 
Q 2819 -91 2034 -91 
Q 1250 -91 836 529 
Q 422 1150 422 2328 
Q 422 3509 836 4129 
Q 1250 4750 2034 4750 
z
" id="DejaVuSans-30" transform="scale(0.015625)"/>
        <path d="M 684 794 
L 1344 794 
L 1344 0 
L 684 0 
L 684 794 
z
" id="DejaVuSans-2e" transform="scale(0.015625)"/>
       </defs>
       <use xlink:href="#DejaVuSans-30"/>
       <use x="63.623047" xlink:href="#DejaVuSans-2e"/>
       <use x="95.410156" xlink:href="#DejaVuSans-30"/>
      </g>
     </g>
    </g>
    <g id="xtick_2">
     <g id="line2d_3">
      <path clip-path="url(#p15b75def92)" d="M 106.432 228.04 
L 106.432 14.76 
" style="fill:none;stroke:#b0b0b0;stroke-linecap:square;stroke-width:0.8;"/>
     </g>
     <g id="line2d_4">
      <g>
       <use style="stroke:#000000;stroke-width:0.8;" x="106.432" xlink:href="#m4abed1d830" y="228.04"/>
      </g>
     </g>
     <g id="text_2">
      <!-- 0.2 -->
      <g transform="translate(98.480437 242.638437)scale(0.1 -0.1)">
       <defs>
        <path d="M 1228 531 
L 3431 531 
L 3431 0 
L 469 0 
L 469 531 
Q 828 903 1448 1529 
Q 2069 2156 2228 2338 
Q 2531 2678 2651 2914 
Q 2772 3150 2772 3378 
Q 2772 3750 2511 3984 
Q 2250 4219 1831 4219 
Q 1534 4219 1204 4116 
Q 875 4013 500 3803 
L 500 4441 
Q 881 4594 1212 4672 
Q 1544 4750 1819 4750 
Q 2544 4750 2975 4387 
Q 3406 4025 3406 3419 
Q 3406 3131 3298 2873 
Q 3191 2616 2906 2266 
Q 2828 2175 2409 1742 
Q 1991 1309 1228 531 
z
" id="DejaVuSans-32" transform="scale(0.015625)"/>
       </defs>
       <use xlink:href="#DejaVuSans-30"/>
       <use x="63.623047" xlink:href="#DejaVuSans-2e"/>
       <use x="95.410156" xlink:href="#DejaVuSans-32"/>
      </g>
     </g>
    </g>
    <g id="xtick_3">
     <g id="line2d_5">
      <path clip-path="url(#p15b75def92)" d="M 165.144 228.04 
L 165.144 14.76 
" style="fill:none;stroke:#b0b0b0;stroke-linecap:square;stroke-width:0.8;"/>
     </g>
     <g id="line2d_6">
      <g>
       <use style="stroke:#000000;stroke-width:0.8;" x="165.144" xlink:href="#m4abed1d830" y="228.04"/>
      </g>
     </g>
     <g id="text_3">
      <!-- 0.4 -->
      <g transform="translate(157.192437 242.638437)scale(0.1 -0.1)">
       <defs>
        <path d="M 2419 4116 
L 825 1625 
L 2419 1625 
L 2419 4116 
z
M 2253 4666 
L 3047 4666 
L 3047 1625 
L 3713 1625 
L 3713 1100 
L 3047 1100 
L 3047 0 
L 2419 0 
L 2419 1100 
L 313 1100 
L 313 1709 
L 2253 4666 
z
" id="DejaVuSans-34" transform="scale(0.015625)"/>
       </defs>
       <use xlink:href="#DejaVuSans-30"/>
       <use x="63.623047" xlink:href="#DejaVuSans-2e"/>
       <use x="95.410156" xlink:href="#DejaVuSans-34"/>
      </g>
     </g>
    </g>
    <g id="xtick_4">
     <g id="line2d_7">
      <path clip-path="url(#p15b75def92)" d="M 223.856 228.04 
L 223.856 14.76 
" style="fill:none;stroke:#b0b0b0;stroke-linecap:square;stroke-width:0.8;"/>
     </g>
     <g id="line2d_8">
      <g>
       <use style="stroke:#000000;stroke-width:0.8;" x="223.856" xlink:href="#m4abed1d830" y="228.04"/>
      </g>
     </g>
     <g id="text_4">
      <!-- 0.6 -->
      <g transform="translate(215.904438 242.638437)scale(0.1 -0.1)">
       <defs>
        <path d="M 2113 2584 
Q 1688 2584 1439 2293 
Q 1191 2003 1191 1497 
Q 1191 994 1439 701 
Q 1688 409 2113 409 
Q 2538 409 2786 701 
Q 3034 994 3034 1497 
Q 3034 2003 2786 2293 
Q 2538 2584 2113 2584 
z
M 3366 4563 
L 3366 3988 
Q 3128 4100 2886 4159 
Q 2644 4219 2406 4219 
Q 1781 4219 1451 3797 
Q 1122 3375 1075 2522 
Q 1259 2794 1537 2939 
Q 1816 3084 2150 3084 
Q 2853 3084 3261 2657 
Q 3669 2231 3669 1497 
Q 3669 778 3244 343 
Q 2819 -91 2113 -91 
Q 1303 -91 875 529 
Q 447 1150 447 2328 
Q 447 3434 972 4092 
Q 1497 4750 2381 4750 
Q 2619 4750 2861 4703 
Q 3103 4656 3366 4563 
z
" id="DejaVuSans-36" transform="scale(0.015625)"/>
       </defs>
       <use xlink:href="#DejaVuSans-30"/>
       <use x="63.623047" xlink:href="#DejaVuSans-2e"/>
       <use x="95.410156" xlink:href="#DejaVuSans-36"/>
      </g>
     </g>
    </g>
    <g id="xtick_5">
     <g id="line2d_9">
      <path clip-path="url(#p15b75def92)" d="M 282.568 228.04 
L 282.568 14.76 
" style="fill:none;stroke:#b0b0b0;stroke-linecap:square;stroke-width:0.8;"/>
     </g>
     <g id="line2d_10">
      <g>
       <use style="stroke:#000000;stroke-width:0.8;" x="282.568" xlink:href="#m4abed1d830" y="228.04"/>
      </g>
     </g>
     <g id="text_5">
      <!-- 0.8 -->
      <g transform="translate(274.616437 242.638437)scale(0.1 -0.1)">
       <defs>
        <path d="M 2034 2216 
Q 1584 2216 1326 1975 
Q 1069 1734 1069 1313 
Q 1069 891 1326 650 
Q 1584 409 2034 409 
Q 2484 409 2743 651 
Q 3003 894 3003 1313 
Q 3003 1734 2745 1975 
Q 2488 2216 2034 2216 
z
M 1403 2484 
Q 997 2584 770 2862 
Q 544 3141 544 3541 
Q 544 4100 942 4425 
Q 1341 4750 2034 4750 
Q 2731 4750 3128 4425 
Q 3525 4100 3525 3541 
Q 3525 3141 3298 2862 
Q 3072 2584 2669 2484 
Q 3125 2378 3379 2068 
Q 3634 1759 3634 1313 
Q 3634 634 3220 271 
Q 2806 -91 2034 -91 
Q 1263 -91 848 271 
Q 434 634 434 1313 
Q 434 1759 690 2068 
Q 947 2378 1403 2484 
z
M 1172 3481 
Q 1172 3119 1398 2916 
Q 1625 2713 2034 2713 
Q 2441 2713 2670 2916 
Q 2900 3119 2900 3481 
Q 2900 3844 2670 4047 
Q 2441 4250 2034 4250 
Q 1625 4250 1398 4047 
Q 1172 3844 1172 3481 
z
" id="DejaVuSans-38" transform="scale(0.015625)"/>
       </defs>
       <use xlink:href="#DejaVuSans-30"/>
       <use x="63.623047" xlink:href="#DejaVuSans-2e"/>
       <use x="95.410156" xlink:href="#DejaVuSans-38"/>
      </g>
     </g>
    </g>
    <g id="xtick_6">
     <g id="line2d_11">
      <path clip-path="url(#p15b75def92)" d="M 341.28 228.04 
L 341.28 14.76 
" style="fill:none;stroke:#b0b0b0;stroke-linecap:square;stroke-width:0.8;"/>
     </g>
     <g id="line2d_12">
      <g>
       <use style="stroke:#000000;stroke-width:0.8;" x="341.28" xlink:href="#m4abed1d830" y="228.04"/>
      </g>
     </g>
     <g id="text_6">
      <!-- 1.0 -->
      <g transform="translate(333.328437 242.638437)scale(0.1 -0.1)">
       <defs>
        <path d="M 794 531 
L 1825 531 
L 1825 4091 
L 703 3866 
L 703 4441 
L 1819 4666 
L 2450 4666 
L 2450 531 
L 3481 531 
L 3481 0 
L 794 0 
L 794 531 
z
" id="DejaVuSans-31" transform="scale(0.015625)"/>
       </defs>
       <use xlink:href="#DejaVuSans-31"/>
       <use x="63.623047" xlink:href="#DejaVuSans-2e"/>
       <use x="95.410156" xlink:href="#DejaVuSans-30"/>
      </g>
     </g>
    </g>
    <g id="text_7">
     <!-- Recall -->
     <g transform="translate(179.582812 256.316562)scale(0.1 -0.1)">
      <defs>
       <path d="M 2841 2188 
Q 3044 2119 3236 1894 
Q 3428 1669 3622 1275 
L 4263 0 
L 3584 0 
L 2988 1197 
Q 2756 1666 2539 1819 
Q 2322 1972 1947 1972 
L 1259 1972 
L 1259 0 
L 628 0 
L 628 4666 
L 2053 4666 
Q 2853 4666 3247 4331 
Q 3641 3997 3641 3322 
Q 3641 2881 3436 2590 
Q 3231 2300 2841 2188 
z
M 1259 4147 
L 1259 2491 
L 2053 2491 
Q 2509 2491 2742 2702 
Q 2975 2913 2975 3322 
Q 2975 3731 2742 3939 
Q 2509 4147 2053 4147 
L 1259 4147 
z
" id="DejaVuSans-52" transform="scale(0.015625)"/>
       <path d="M 3597 1894 
L 3597 1613 
L 953 1613 
Q 991 1019 1311 708 
Q 1631 397 2203 397 
Q 2534 397 2845 478 
Q 3156 559 3463 722 
L 3463 178 
Q 3153 47 2828 -22 
Q 2503 -91 2169 -91 
Q 1331 -91 842 396 
Q 353 884 353 1716 
Q 353 2575 817 3079 
Q 1281 3584 2069 3584 
Q 2775 3584 3186 3129 
Q 3597 2675 3597 1894 
z
M 3022 2063 
Q 3016 2534 2758 2815 
Q 2500 3097 2075 3097 
Q 1594 3097 1305 2825 
Q 1016 2553 972 2059 
L 3022 2063 
z
" id="DejaVuSans-65" transform="scale(0.015625)"/>
       <path d="M 3122 3366 
L 3122 2828 
Q 2878 2963 2633 3030 
Q 2388 3097 2138 3097 
Q 1578 3097 1268 2742 
Q 959 2388 959 1747 
Q 959 1106 1268 751 
Q 1578 397 2138 397 
Q 2388 397 2633 464 
Q 2878 531 3122 666 
L 3122 134 
Q 2881 22 2623 -34 
Q 2366 -91 2075 -91 
Q 1284 -91 818 406 
Q 353 903 353 1747 
Q 353 2603 823 3093 
Q 1294 3584 2113 3584 
Q 2378 3584 2631 3529 
Q 2884 3475 3122 3366 
z
" id="DejaVuSans-63" transform="scale(0.015625)"/>
       <path d="M 2194 1759 
Q 1497 1759 1228 1600 
Q 959 1441 959 1056 
Q 959 750 1161 570 
Q 1363 391 1709 391 
Q 2188 391 2477 730 
Q 2766 1069 2766 1631 
L 2766 1759 
L 2194 1759 
z
M 3341 1997 
L 3341 0 
L 2766 0 
L 2766 531 
Q 2569 213 2275 61 
Q 1981 -91 1556 -91 
Q 1019 -91 701 211 
Q 384 513 384 1019 
Q 384 1609 779 1909 
Q 1175 2209 1959 2209 
L 2766 2209 
L 2766 2266 
Q 2766 2663 2505 2880 
Q 2244 3097 1772 3097 
Q 1472 3097 1187 3025 
Q 903 2953 641 2809 
L 641 3341 
Q 956 3463 1253 3523 
Q 1550 3584 1831 3584 
Q 2591 3584 2966 3190 
Q 3341 2797 3341 1997 
z
" id="DejaVuSans-61" transform="scale(0.015625)"/>
       <path d="M 603 4863 
L 1178 4863 
L 1178 0 
L 603 0 
L 603 4863 
z
" id="DejaVuSans-6c" transform="scale(0.015625)"/>
      </defs>
      <use xlink:href="#DejaVuSans-52"/>
      <use x="64.982422" xlink:href="#DejaVuSans-65"/>
      <use x="126.505859" xlink:href="#DejaVuSans-63"/>
      <use x="181.486328" xlink:href="#DejaVuSans-61"/>
      <use x="242.765625" xlink:href="#DejaVuSans-6c"/>
      <use x="270.548828" xlink:href="#DejaVuSans-6c"/>
     </g>
    </g>
   </g>
   <g id="matplotlib.axis_2">
    <g id="ytick_1">
     <g id="line2d_13">
      <path clip-path="url(#p15b75def92)" d="M 47.72 228.04 
L 341.28 228.04 
" style="fill:none;stroke:#b0b0b0;stroke-linecap:square;stroke-width:0.8;"/>
     </g>
     <g id="line2d_14">
      <defs>
       <path d="M 0 0 
L -3.5 0 
" id="me91a084207" style="stroke:#000000;stroke-width:0.8;"/>
      </defs>
      <g>
       <use style="stroke:#000000;stroke-width:0.8;" x="47.72" xlink:href="#me91a084207" y="228.04"/>
      </g>
     </g>
     <g id="text_8">
      <!-- 0.0 -->
      <g transform="translate(24.816875 231.839219)scale(0.1 -0.1)">
       <use xlink:href="#DejaVuSans-30"/>
       <use x="63.623047" xlink:href="#DejaVuSans-2e"/>
       <use x="95.410156" xlink:href="#DejaVuSans-30"/>
      </g>
     </g>
    </g>
    <g id="ytick_2">
     <g id="line2d_15">
      <path clip-path="url(#p15b75def92)" d="M 47.72 185.384 
L 341.28 185.384 
" style="fill:none;stroke:#b0b0b0;stroke-linecap:square;stroke-width:0.8;"/>
     </g>
     <g id="line2d_16">
      <g>
       <use style="stroke:#000000;stroke-width:0.8;" x="47.72" xlink:href="#me91a084207" y="185.384"/>
      </g>
     </g>
     <g id="text_9">
      <!-- 0.2 -->
      <g transform="translate(24.816875 189.183219)scale(0.1 -0.1)">
       <use xlink:href="#DejaVuSans-30"/>
       <use x="63.623047" xlink:href="#DejaVuSans-2e"/>
       <use x="95.410156" xlink:href="#DejaVuSans-32"/>
      </g>
     </g>
    </g>
    <g id="ytick_3">
     <g id="line2d_17">
      <path clip-path="url(#p15b75def92)" d="M 47.72 142.728 
L 341.28 142.728 
" style="fill:none;stroke:#b0b0b0;stroke-linecap:square;stroke-width:0.8;"/>
     </g>
     <g id="line2d_18">
      <g>
       <use style="stroke:#000000;stroke-width:0.8;" x="47.72" xlink:href="#me91a084207" y="142.728"/>
      </g>
     </g>
     <g id="text_10">
      <!-- 0.4 -->
      <g transform="translate(24.816875 146.527219)scale(0.1 -0.1)">
       <use xlink:href="#DejaVuSans-30"/>
       <use x="63.623047" xlink:href="#DejaVuSans-2e"/>
       <use x="95.410156" xlink:href="#DejaVuSans-34"/>
      </g>
     </g>
    </g>
    <g id="ytick_4">
     <g id="line2d_19">
      <path clip-path="url(#p15b75def92)" d="M 47.72 100.072 
L 341.28 100.072 
" style="fill:none;stroke:#b0b0b0;stroke-linecap:square;stroke-width:0.8;"/>
     </g>
     <g id="line2d_20">
      <g>
       <use style="stroke:#000000;stroke-width:0.8;" x="47.72" xlink:href="#me91a084207" y="100.072"/>
      </g>
     </g>
     <g id="text_11">
      <!-- 0.6 -->
      <g transform="translate(24.816875 103.871219)scale(0.1 -0.1)">
       <use xlink:href="#DejaVuSans-30"/>
       <use x="63.623047" xlink:href="#DejaVuSans-2e"/>
       <use x="95.410156" xlink:href="#DejaVuSans-36"/>
      </g>
     </g>
    </g>
    <g id="ytick_5">
     <g id="line2d_21">
      <path clip-path="url(#p15b75def92)" d="M 47.72 57.416 
L 341.28 57.416 
" style="fill:none;stroke:#b0b0b0;stroke-linecap:square;stroke-width:0.8;"/>
     </g>
     <g id="line2d_22">
      <g>
       <use style="stroke:#000000;stroke-width:0.8;" x="47.72" xlink:href="#me91a084207" y="57.416"/>
      </g>
     </g>
     <g id="text_12">
      <!-- 0.8 -->
      <g transform="translate(24.816875 61.215219)scale(0.1 -0.1)">
       <use xlink:href="#DejaVuSans-30"/>
       <use x="63.623047" xlink:href="#DejaVuSans-2e"/>
       <use x="95.410156" xlink:href="#DejaVuSans-38"/>
      </g>
     </g>
    </g>
    <g id="ytick_6">
     <g id="line2d_23">
      <path clip-path="url(#p15b75def92)" d="M 47.72 14.76 
L 341.28 14.76 
" style="fill:none;stroke:#b0b0b0;stroke-linecap:square;stroke-width:0.8;"/>
     </g>
     <g id="line2d_24">
      <g>
       <use style="stroke:#000000;stroke-width:0.8;" x="47.72" xlink:href="#me91a084207" y="14.76"/>
      </g>
     </g>
     <g id="text_13">
      <!-- 1.0 -->
      <g transform="translate(24.816875 18.559219)scale(0.1 -0.1)">
       <use xlink:href="#DejaVuSans-31"/>
       <use x="63.623047" xlink:href="#DejaVuSans-2e"/>
       <use x="95.410156" xlink:href="#DejaVuSans-30"/>
      </g>
     </g>
    </g>
    <g id="text_14">
     <!-- Precision -->
     <g transform="translate(18.737188 143.707031)rotate(-90)scale(0.1 -0.1)">
      <defs>
       <path d="M 1259 4147 
L 1259 2394 
L 2053 2394 
Q 2494 2394 2734 2622 
Q 2975 2850 2975 3272 
Q 2975 3691 2734 3919 
Q 2494 4147 2053 4147 
L 1259 4147 
z
M 628 4666 
L 2053 4666 
Q 2838 4666 3239 4311 
Q 3641 3956 3641 3272 
Q 3641 2581 3239 2228 
Q 2838 1875 2053 1875 
L 1259 1875 
L 1259 0 
L 628 0 
L 628 4666 
z
" id="DejaVuSans-50" transform="scale(0.015625)"/>
       <path d="M 2631 2963 
Q 2534 3019 2420 3045 
Q 2306 3072 2169 3072 
Q 1681 3072 1420 2755 
Q 1159 2438 1159 1844 
L 1159 0 
L 581 0 
L 581 3500 
L 1159 3500 
L 1159 2956 
Q 1341 3275 1631 3429 
Q 1922 3584 2338 3584 
Q 2397 3584 2469 3576 
Q 2541 3569 2628 3553 
L 2631 2963 
z
" id="DejaVuSans-72" transform="scale(0.015625)"/>
       <path d="M 603 3500 
L 1178 3500 
L 1178 0 
L 603 0 
L 603 3500 
z
M 603 4863 
L 1178 4863 
L 1178 4134 
L 603 4134 
L 603 4863 
z
" id="DejaVuSans-69" transform="scale(0.015625)"/>
       <path d="M 2834 3397 
L 2834 2853 
Q 2591 2978 2328 3040 
Q 2066 3103 1784 3103 
Q 1356 3103 1142 2972 
Q 928 2841 928 2578 
Q 928 2378 1081 2264 
Q 1234 2150 1697 2047 
L 1894 2003 
Q 2506 1872 2764 1633 
Q 3022 1394 3022 966 
Q 3022 478 2636 193 
Q 2250 -91 1575 -91 
Q 1294 -91 989 -36 
Q 684 19 347 128 
L 347 722 
Q 666 556 975 473 
Q 1284 391 1588 391 
Q 1994 391 2212 530 
Q 2431 669 2431 922 
Q 2431 1156 2273 1281 
Q 2116 1406 1581 1522 
L 1381 1569 
Q 847 1681 609 1914 
Q 372 2147 372 2553 
Q 372 3047 722 3315 
Q 1072 3584 1716 3584 
Q 2034 3584 2315 3537 
Q 2597 3491 2834 3397 
z
" id="DejaVuSans-73" transform="scale(0.015625)"/>
       <path d="M 1959 3097 
Q 1497 3097 1228 2736 
Q 959 2375 959 1747 
Q 959 1119 1226 758 
Q 1494 397 1959 397 
Q 2419 397 2687 759 
Q 2956 1122 2956 1747 
Q 2956 2369 2687 2733 
Q 2419 3097 1959 3097 
z
M 1959 3584 
Q 2709 3584 3137 3096 
Q 3566 2609 3566 1747 
Q 3566 888 3137 398 
Q 2709 -91 1959 -91 
Q 1206 -91 779 398 
Q 353 888 353 1747 
Q 353 2609 779 3096 
Q 1206 3584 1959 3584 
z
" id="DejaVuSans-6f" transform="scale(0.015625)"/>
       <path d="M 3513 2113 
L 3513 0 
L 2938 0 
L 2938 2094 
Q 2938 2591 2744 2837 
Q 2550 3084 2163 3084 
Q 1697 3084 1428 2787 
Q 1159 2491 1159 1978 
L 1159 0 
L 581 0 
L 581 3500 
L 1159 3500 
L 1159 2956 
Q 1366 3272 1645 3428 
Q 1925 3584 2291 3584 
Q 2894 3584 3203 3211 
Q 3513 2838 3513 2113 
z
" id="DejaVuSans-6e" transform="scale(0.015625)"/>
      </defs>
      <use xlink:href="#DejaVuSans-50"/>
      <use x="58.552734" xlink:href="#DejaVuSans-72"/>
      <use x="97.416016" xlink:href="#DejaVuSans-65"/>
      <use x="158.939453" xlink:href="#DejaVuSans-63"/>
      <use x="213.919922" xlink:href="#DejaVuSans-69"/>
      <use x="241.703125" xlink:href="#DejaVuSans-73"/>
      <use x="293.802734" xlink:href="#DejaVuSans-69"/>
      <use x="321.585938" xlink:href="#DejaVuSans-6f"/>
      <use x="382.767578" xlink:href="#DejaVuSans-6e"/>
     </g>
    </g>
   </g>
   <g id="line2d_25">
    <path clip-path="url(#p15b75def92)" d="M 247.450402 203.568789 
L 246.942881 185.742945 
L 245.245929 134.883896 
L 244.31102 112.629576 
L 243.343718 94.335685 
L 242.553934 82.63108 
L 241.800334 73.56249 
L 240.701581 63.657783 
L 239.955845 58.550088 
L 238.997619 53.593525 
L 237.778856 49.118945 
L 236.251432 45.428952 
L 234.4041 42.572817 
L 232.262739 40.530698 
L 229.861277 39.083571 
L 227.225685 37.966506 
L 224.373897 37.036591 
L 218.056681 35.413619 
L 210.990712 33.964611 
L 203.220463 32.604251 
L 190.172579 30.674116 
L 175.84853 28.920439 
L 160.746713 27.305428 
L 138.748078 25.167442 
L 103.802834 21.817996 
L 57.465838 16.948824 
L 52.18591 16.158555 
L 47.72 14.76 
L 47.72 14.76 
" style="fill:none;stroke:#1f77b4;stroke-linecap:square;stroke-width:1.5;"/>
   </g>
   <g id="line2d_26">
    <path clip-path="url(#p15b75def92)" d="M 278.653383 201.79698 
L 278.487253 201.354038 
L 277.618257 198.966999 
L 276.589203 195.283271 
L 275.50672 190.363354 
L 273.906073 181.111533 
L 272.396878 170.481562 
L 270.91354 158.427803 
L 264.875404 105.870356 
L 262.996864 92.024355 
L 261.449771 82.180938 
L 260.13509 74.971621 
L 258.456549 67.327513 
L 257.435709 63.45007 
L 256.262939 59.597344 
L 254.901015 55.874347 
L 253.321726 52.410687 
L 251.489896 49.294903 
L 249.417255 46.662349 
L 247.113609 44.441281 
L 244.59765 42.65499 
L 241.890547 41.22258 
L 238.991387 40.043296 
L 235.960035 39.039726 
L 229.469242 37.311609 
L 222.407297 35.802124 
L 214.836124 34.395238 
L 206.772724 33.057558 
L 193.686302 31.154696 
L 179.594402 29.396356 
L 154.74824 26.751674 
L 68.475158 18.239877 
L 57.464491 16.949326 
L 52.185587 16.159817 
L 47.72 14.76 
L 47.72 14.76 
" style="fill:none;stroke:#ff7f0e;stroke-dasharray:9.6,2.4,1.5,2.4;stroke-dashoffset:0;stroke-width:1.5;"/>
   </g>
   <g id="line2d_27">
    <path clip-path="url(#p15b75def92)" d="M 281.823888 204.54932 
L 281.513172 203.645309 
L 280.265277 198.925533 
L 276.9371 185.344065 
L 272.212751 165.086567 
L 266.404026 139.150442 
L 263.867602 127.91633 
L 258.182254 103.699558 
L 254.5251 89.118748 
L 250.625105 74.930548 
L 248.463644 67.749036 
L 246.155888 61.038219 
L 244.667386 57.142677 
L 242.733903 52.678745 
L 241.472148 50.156944 
L 239.859703 47.365508 
L 237.62241 44.253314 
L 233.85205 40.946366 
L 227.225685 37.966506 
L 224.373897 37.036591 
L 218.056681 35.413619 
L 210.990712 33.964611 
L 203.220463 32.604251 
L 190.172579 30.674116 
L 175.84853 28.920439 
L 160.746713 27.305428 
L 138.748078 25.167442 
L 103.802834 21.817996 
L 57.465838 16.948824 
L 47.72 14.76 
L 47.72 14.76 
" style="fill:none;stroke:#8c564b;stroke-dasharray:5.55,2.4;stroke-dashoffset:0;stroke-width:1.5;"/>
   </g>
   <g id="line2d_28">
    <path clip-path="url(#p15b75def92)" d="M 244.512411 210.491923 
L 244.040775 209.70641 
L 242.537398 206.47375 
L 239.142333 198.772528 
L 235.659462 190.920791 
L 231.697714 182.330058 
L 220.340115 158.970295 
L 210.192585 139.488868 
L 205.456669 130.897079 
L 200.559485 122.312982 
L 196.922965 116.136824 
L 185.273043 97.408001 
L 179.546826 88.749902 
L 171.492189 77.110264 
L 164.420894 67.691137 
L 158.413157 60.291506 
L 154.796086 56.165552 
L 150.599218 51.679835 
L 145.592944 46.757967 
L 142.708949 44.117121 
L 139.500335 41.367719 
L 135.848836 38.500135 
L 131.761617 35.562152 
L 127.079243 32.564739 
L 121.740188 29.587722 
L 115.663023 26.771216 
L 108.792856 24.248652 
L 101.129319 22.051147 
L 92.745313 20.173937 
L 83.775455 18.807103 
L 74.521511 17.829079 
L 65.153562 17.044042 
L 55.951382 16.39874 
L 47.72 14.76 
L 47.72 14.76 
" style="fill:none;stroke:#d62728;stroke-linecap:square;stroke-width:1.5;"/>
   </g>
   <g id="line2d_29">
    <path clip-path="url(#p15b75def92)" d="M 233.013484 128.11243 
L 230.356168 100.930018 
L 228.970094 88.779049 
L 227.543557 78.115901 
L 226.2834 70.214157 
L 224.616036 61.701721 
L 223.54273 57.319905 
L 222.233065 53.001316 
L 220.616626 48.805621 
L 218.620441 44.934877 
L 216.193227 41.55613 
L 213.189699 38.720979 
L 209.609431 36.408715 
L 205.495114 34.49481 
L 200.837958 32.882152 
L 195.688472 31.427883 
L 189.993711 30.177066 
L 183.827966 29.075971 
L 177.30939 28.066406 
L 170.525753 27.153523 
L 156.519242 25.61349 
L 134.505219 23.617312 
L 103.867664 21.163832 
L 82.469597 19.33185 
L 63.405137 17.602543 
L 57.619737 16.936658 
L 52.221548 16.157075 
L 47.72 14.76 
L 47.72 14.76 
" style="fill:none;stroke:#2ca02c;stroke-dasharray:5.55,2.4;stroke-dashoffset:0;stroke-width:1.5;"/>
   </g>
   <g id="patch_3">
    <path d="M 47.72 228.04 
L 47.72 14.76 
" style="fill:none;stroke:#000000;stroke-linecap:square;stroke-linejoin:miter;stroke-width:0.8;"/>
   </g>
   <g id="patch_4">
    <path d="M 341.28 228.04 
L 341.28 14.76 
" style="fill:none;stroke:#000000;stroke-linecap:square;stroke-linejoin:miter;stroke-width:0.8;"/>
   </g>
   <g id="patch_5">
    <path d="M 47.72 228.04 
L 341.28 228.04 
" style="fill:none;stroke:#000000;stroke-linecap:square;stroke-linejoin:miter;stroke-width:0.8;"/>
   </g>
   <g id="patch_6">
    <path d="M 47.72 14.76 
L 341.28 14.76 
" style="fill:none;stroke:#000000;stroke-linecap:square;stroke-linejoin:miter;stroke-width:0.8;"/>
   </g>
   <g id="legend_1">
    <g id="patch_7">
     <path d="M 54.72 223.04 
L 286.721563 223.04 
Q 288.721563 223.04 288.721563 221.04 
L 288.721563 148.649375 
Q 288.721563 146.649375 286.721563 146.649375 
L 54.72 146.649375 
Q 52.72 146.649375 52.72 148.649375 
L 52.72 221.04 
Q 52.72 223.04 54.72 223.04 
z
" style="fill:#ffffff;opacity:0.8;stroke:#cccccc;stroke-linejoin:miter;"/>
    </g>
    <g id="line2d_30">
     <path d="M 56.72 154.747812 
L 76.72 154.747812 
" style="fill:none;stroke:#1f77b4;stroke-linecap:square;stroke-width:1.5;"/>
    </g>
    <g id="line2d_31"/>
    <g id="text_15">
     <!-- MMseqs2 (E-value) -->
     <g transform="translate(84.72 158.247812)scale(0.1 -0.1)">
      <defs>
       <path d="M 628 4666 
L 1569 4666 
L 2759 1491 
L 3956 4666 
L 4897 4666 
L 4897 0 
L 4281 0 
L 4281 4097 
L 3078 897 
L 2444 897 
L 1241 4097 
L 1241 0 
L 628 0 
L 628 4666 
z
" id="DejaVuSans-4d" transform="scale(0.015625)"/>
       <path d="M 947 1747 
Q 947 1113 1208 752 
Q 1469 391 1925 391 
Q 2381 391 2643 752 
Q 2906 1113 2906 1747 
Q 2906 2381 2643 2742 
Q 2381 3103 1925 3103 
Q 1469 3103 1208 2742 
Q 947 2381 947 1747 
z
M 2906 525 
Q 2725 213 2448 61 
Q 2172 -91 1784 -91 
Q 1150 -91 751 415 
Q 353 922 353 1747 
Q 353 2572 751 3078 
Q 1150 3584 1784 3584 
Q 2172 3584 2448 3432 
Q 2725 3281 2906 2969 
L 2906 3500 
L 3481 3500 
L 3481 -1331 
L 2906 -1331 
L 2906 525 
z
" id="DejaVuSans-71" transform="scale(0.015625)"/>
       <path id="DejaVuSans-20" transform="scale(0.015625)"/>
       <path d="M 1984 4856 
Q 1566 4138 1362 3434 
Q 1159 2731 1159 2009 
Q 1159 1288 1364 580 
Q 1569 -128 1984 -844 
L 1484 -844 
Q 1016 -109 783 600 
Q 550 1309 550 2009 
Q 550 2706 781 3412 
Q 1013 4119 1484 4856 
L 1984 4856 
z
" id="DejaVuSans-28" transform="scale(0.015625)"/>
       <path d="M 628 4666 
L 3578 4666 
L 3578 4134 
L 1259 4134 
L 1259 2753 
L 3481 2753 
L 3481 2222 
L 1259 2222 
L 1259 531 
L 3634 531 
L 3634 0 
L 628 0 
L 628 4666 
z
" id="DejaVuSans-45" transform="scale(0.015625)"/>
       <path d="M 313 2009 
L 1997 2009 
L 1997 1497 
L 313 1497 
L 313 2009 
z
" id="DejaVuSans-2d" transform="scale(0.015625)"/>
       <path d="M 191 3500 
L 800 3500 
L 1894 563 
L 2988 3500 
L 3597 3500 
L 2284 0 
L 1503 0 
L 191 3500 
z
" id="DejaVuSans-76" transform="scale(0.015625)"/>
       <path d="M 544 1381 
L 544 3500 
L 1119 3500 
L 1119 1403 
Q 1119 906 1312 657 
Q 1506 409 1894 409 
Q 2359 409 2629 706 
Q 2900 1003 2900 1516 
L 2900 3500 
L 3475 3500 
L 3475 0 
L 2900 0 
L 2900 538 
Q 2691 219 2414 64 
Q 2138 -91 1772 -91 
Q 1169 -91 856 284 
Q 544 659 544 1381 
z
M 1991 3584 
L 1991 3584 
z
" id="DejaVuSans-75" transform="scale(0.015625)"/>
       <path d="M 513 4856 
L 1013 4856 
Q 1481 4119 1714 3412 
Q 1947 2706 1947 2009 
Q 1947 1309 1714 600 
Q 1481 -109 1013 -844 
L 513 -844 
Q 928 -128 1133 580 
Q 1338 1288 1338 2009 
Q 1338 2731 1133 3434 
Q 928 4138 513 4856 
z
" id="DejaVuSans-29" transform="scale(0.015625)"/>
      </defs>
      <use xlink:href="#DejaVuSans-4d"/>
      <use x="86.279297" xlink:href="#DejaVuSans-4d"/>
      <use x="172.558594" xlink:href="#DejaVuSans-73"/>
      <use x="224.658203" xlink:href="#DejaVuSans-65"/>
      <use x="286.181641" xlink:href="#DejaVuSans-71"/>
      <use x="349.658203" xlink:href="#DejaVuSans-73"/>
      <use x="401.757812" xlink:href="#DejaVuSans-32"/>
      <use x="465.380859" xlink:href="#DejaVuSans-20"/>
      <use x="497.167969" xlink:href="#DejaVuSans-28"/>
      <use x="536.181641" xlink:href="#DejaVuSans-45"/>
      <use x="599.365234" xlink:href="#DejaVuSans-2d"/>
      <use x="632.824219" xlink:href="#DejaVuSans-76"/>
      <use x="692.003906" xlink:href="#DejaVuSans-61"/>
      <use x="753.283203" xlink:href="#DejaVuSans-6c"/>
      <use x="781.066406" xlink:href="#DejaVuSans-75"/>
      <use x="844.445312" xlink:href="#DejaVuSans-65"/>
      <use x="905.96875" xlink:href="#DejaVuSans-29"/>
     </g>
    </g>
    <g id="line2d_32">
     <path d="M 56.72 169.425937 
L 76.72 169.425937 
" style="fill:none;stroke:#ff7f0e;stroke-dasharray:9.6,2.4,1.5,2.4;stroke-dashoffset:0;stroke-width:1.5;"/>
    </g>
    <g id="line2d_33"/>
    <g id="text_16">
     <!-- MMseqs2 + knnProtT5 aligned (E-value) -->
     <g transform="translate(84.72 172.925937)scale(0.1 -0.1)">
      <defs>
       <path d="M 2944 4013 
L 2944 2272 
L 4684 2272 
L 4684 1741 
L 2944 1741 
L 2944 0 
L 2419 0 
L 2419 1741 
L 678 1741 
L 678 2272 
L 2419 2272 
L 2419 4013 
L 2944 4013 
z
" id="DejaVuSans-2b" transform="scale(0.015625)"/>
       <path d="M 581 4863 
L 1159 4863 
L 1159 1991 
L 2875 3500 
L 3609 3500 
L 1753 1863 
L 3688 0 
L 2938 0 
L 1159 1709 
L 1159 0 
L 581 0 
L 581 4863 
z
" id="DejaVuSans-6b" transform="scale(0.015625)"/>
       <path d="M 1172 4494 
L 1172 3500 
L 2356 3500 
L 2356 3053 
L 1172 3053 
L 1172 1153 
Q 1172 725 1289 603 
Q 1406 481 1766 481 
L 2356 481 
L 2356 0 
L 1766 0 
Q 1100 0 847 248 
Q 594 497 594 1153 
L 594 3053 
L 172 3053 
L 172 3500 
L 594 3500 
L 594 4494 
L 1172 4494 
z
" id="DejaVuSans-74" transform="scale(0.015625)"/>
       <path d="M -19 4666 
L 3928 4666 
L 3928 4134 
L 2272 4134 
L 2272 0 
L 1638 0 
L 1638 4134 
L -19 4134 
L -19 4666 
z
" id="DejaVuSans-54" transform="scale(0.015625)"/>
       <path d="M 691 4666 
L 3169 4666 
L 3169 4134 
L 1269 4134 
L 1269 2991 
Q 1406 3038 1543 3061 
Q 1681 3084 1819 3084 
Q 2600 3084 3056 2656 
Q 3513 2228 3513 1497 
Q 3513 744 3044 326 
Q 2575 -91 1722 -91 
Q 1428 -91 1123 -41 
Q 819 9 494 109 
L 494 744 
Q 775 591 1075 516 
Q 1375 441 1709 441 
Q 2250 441 2565 725 
Q 2881 1009 2881 1497 
Q 2881 1984 2565 2268 
Q 2250 2553 1709 2553 
Q 1456 2553 1204 2497 
Q 953 2441 691 2322 
L 691 4666 
z
" id="DejaVuSans-35" transform="scale(0.015625)"/>
       <path d="M 2906 1791 
Q 2906 2416 2648 2759 
Q 2391 3103 1925 3103 
Q 1463 3103 1205 2759 
Q 947 2416 947 1791 
Q 947 1169 1205 825 
Q 1463 481 1925 481 
Q 2391 481 2648 825 
Q 2906 1169 2906 1791 
z
M 3481 434 
Q 3481 -459 3084 -895 
Q 2688 -1331 1869 -1331 
Q 1566 -1331 1297 -1286 
Q 1028 -1241 775 -1147 
L 775 -588 
Q 1028 -725 1275 -790 
Q 1522 -856 1778 -856 
Q 2344 -856 2625 -561 
Q 2906 -266 2906 331 
L 2906 616 
Q 2728 306 2450 153 
Q 2172 0 1784 0 
Q 1141 0 747 490 
Q 353 981 353 1791 
Q 353 2603 747 3093 
Q 1141 3584 1784 3584 
Q 2172 3584 2450 3431 
Q 2728 3278 2906 2969 
L 2906 3500 
L 3481 3500 
L 3481 434 
z
" id="DejaVuSans-67" transform="scale(0.015625)"/>
       <path d="M 2906 2969 
L 2906 4863 
L 3481 4863 
L 3481 0 
L 2906 0 
L 2906 525 
Q 2725 213 2448 61 
Q 2172 -91 1784 -91 
Q 1150 -91 751 415 
Q 353 922 353 1747 
Q 353 2572 751 3078 
Q 1150 3584 1784 3584 
Q 2172 3584 2448 3432 
Q 2725 3281 2906 2969 
z
M 947 1747 
Q 947 1113 1208 752 
Q 1469 391 1925 391 
Q 2381 391 2643 752 
Q 2906 1113 2906 1747 
Q 2906 2381 2643 2742 
Q 2381 3103 1925 3103 
Q 1469 3103 1208 2742 
Q 947 2381 947 1747 
z
" id="DejaVuSans-64" transform="scale(0.015625)"/>
      </defs>
      <use xlink:href="#DejaVuSans-4d"/>
      <use x="86.279297" xlink:href="#DejaVuSans-4d"/>
      <use x="172.558594" xlink:href="#DejaVuSans-73"/>
      <use x="224.658203" xlink:href="#DejaVuSans-65"/>
      <use x="286.181641" xlink:href="#DejaVuSans-71"/>
      <use x="349.658203" xlink:href="#DejaVuSans-73"/>
      <use x="401.757812" xlink:href="#DejaVuSans-32"/>
      <use x="465.380859" xlink:href="#DejaVuSans-20"/>
      <use x="497.167969" xlink:href="#DejaVuSans-2b"/>
      <use x="580.957031" xlink:href="#DejaVuSans-20"/>
      <use x="612.744141" xlink:href="#DejaVuSans-6b"/>
      <use x="670.654297" xlink:href="#DejaVuSans-6e"/>
      <use x="734.033203" xlink:href="#DejaVuSans-6e"/>
      <use x="797.412109" xlink:href="#DejaVuSans-50"/>
      <use x="855.964844" xlink:href="#DejaVuSans-72"/>
      <use x="894.828125" xlink:href="#DejaVuSans-6f"/>
      <use x="956.009766" xlink:href="#DejaVuSans-74"/>
      <use x="995.21875" xlink:href="#DejaVuSans-54"/>
      <use x="1056.302734" xlink:href="#DejaVuSans-35"/>
      <use x="1119.925781" xlink:href="#DejaVuSans-20"/>
      <use x="1151.712891" xlink:href="#DejaVuSans-61"/>
      <use x="1212.992188" xlink:href="#DejaVuSans-6c"/>
      <use x="1240.775391" xlink:href="#DejaVuSans-69"/>
      <use x="1268.558594" xlink:href="#DejaVuSans-67"/>
      <use x="1332.035156" xlink:href="#DejaVuSans-6e"/>
      <use x="1395.414062" xlink:href="#DejaVuSans-65"/>
      <use x="1456.9375" xlink:href="#DejaVuSans-64"/>
      <use x="1520.414062" xlink:href="#DejaVuSans-20"/>
      <use x="1552.201172" xlink:href="#DejaVuSans-28"/>
      <use x="1591.214844" xlink:href="#DejaVuSans-45"/>
      <use x="1654.398438" xlink:href="#DejaVuSans-2d"/>
      <use x="1687.857422" xlink:href="#DejaVuSans-76"/>
      <use x="1747.037109" xlink:href="#DejaVuSans-61"/>
      <use x="1808.316406" xlink:href="#DejaVuSans-6c"/>
      <use x="1836.099609" xlink:href="#DejaVuSans-75"/>
      <use x="1899.478516" xlink:href="#DejaVuSans-65"/>
      <use x="1961.001953" xlink:href="#DejaVuSans-29"/>
     </g>
    </g>
    <g id="line2d_34">
     <path d="M 56.72 184.104062 
L 76.72 184.104062 
" style="fill:none;stroke:#8c564b;stroke-dasharray:5.55,2.4;stroke-dashoffset:0;stroke-width:1.5;"/>
    </g>
    <g id="line2d_35"/>
    <g id="text_17">
     <!-- MMseqs2 E&lt;0.1 + knnProtT5 -->
     <g transform="translate(84.72 187.604062)scale(0.1 -0.1)">
      <defs>
       <path d="M 4684 3150 
L 1459 2003 
L 4684 863 
L 4684 294 
L 678 1747 
L 678 2266 
L 4684 3719 
L 4684 3150 
z
" id="DejaVuSans-3c" transform="scale(0.015625)"/>
      </defs>
      <use xlink:href="#DejaVuSans-4d"/>
      <use x="86.279297" xlink:href="#DejaVuSans-4d"/>
      <use x="172.558594" xlink:href="#DejaVuSans-73"/>
      <use x="224.658203" xlink:href="#DejaVuSans-65"/>
      <use x="286.181641" xlink:href="#DejaVuSans-71"/>
      <use x="349.658203" xlink:href="#DejaVuSans-73"/>
      <use x="401.757812" xlink:href="#DejaVuSans-32"/>
      <use x="465.380859" xlink:href="#DejaVuSans-20"/>
      <use x="497.167969" xlink:href="#DejaVuSans-45"/>
      <use x="560.351562" xlink:href="#DejaVuSans-3c"/>
      <use x="644.140625" xlink:href="#DejaVuSans-30"/>
      <use x="707.763672" xlink:href="#DejaVuSans-2e"/>
      <use x="739.550781" xlink:href="#DejaVuSans-31"/>
      <use x="803.173828" xlink:href="#DejaVuSans-20"/>
      <use x="834.960938" xlink:href="#DejaVuSans-2b"/>
      <use x="918.75" xlink:href="#DejaVuSans-20"/>
      <use x="950.537109" xlink:href="#DejaVuSans-6b"/>
      <use x="1008.447266" xlink:href="#DejaVuSans-6e"/>
      <use x="1071.826172" xlink:href="#DejaVuSans-6e"/>
      <use x="1135.205078" xlink:href="#DejaVuSans-50"/>
      <use x="1193.757812" xlink:href="#DejaVuSans-72"/>
      <use x="1232.621094" xlink:href="#DejaVuSans-6f"/>
      <use x="1293.802734" xlink:href="#DejaVuSans-74"/>
      <use x="1333.011719" xlink:href="#DejaVuSans-54"/>
      <use x="1394.095703" xlink:href="#DejaVuSans-35"/>
     </g>
    </g>
    <g id="line2d_36">
     <path d="M 56.72 198.782187 
L 76.72 198.782187 
" style="fill:none;stroke:#d62728;stroke-linecap:square;stroke-width:1.5;"/>
    </g>
    <g id="line2d_37"/>
    <g id="text_18">
     <!-- knnProtT5 (cosine similarity) -->
     <g transform="translate(84.72 202.282187)scale(0.1 -0.1)">
      <defs>
       <path d="M 3328 2828 
Q 3544 3216 3844 3400 
Q 4144 3584 4550 3584 
Q 5097 3584 5394 3201 
Q 5691 2819 5691 2113 
L 5691 0 
L 5113 0 
L 5113 2094 
Q 5113 2597 4934 2840 
Q 4756 3084 4391 3084 
Q 3944 3084 3684 2787 
Q 3425 2491 3425 1978 
L 3425 0 
L 2847 0 
L 2847 2094 
Q 2847 2600 2669 2842 
Q 2491 3084 2119 3084 
Q 1678 3084 1418 2786 
Q 1159 2488 1159 1978 
L 1159 0 
L 581 0 
L 581 3500 
L 1159 3500 
L 1159 2956 
Q 1356 3278 1631 3431 
Q 1906 3584 2284 3584 
Q 2666 3584 2933 3390 
Q 3200 3197 3328 2828 
z
" id="DejaVuSans-6d" transform="scale(0.015625)"/>
       <path d="M 2059 -325 
Q 1816 -950 1584 -1140 
Q 1353 -1331 966 -1331 
L 506 -1331 
L 506 -850 
L 844 -850 
Q 1081 -850 1212 -737 
Q 1344 -625 1503 -206 
L 1606 56 
L 191 3500 
L 800 3500 
L 1894 763 
L 2988 3500 
L 3597 3500 
L 2059 -325 
z
" id="DejaVuSans-79" transform="scale(0.015625)"/>
      </defs>
      <use xlink:href="#DejaVuSans-6b"/>
      <use x="57.910156" xlink:href="#DejaVuSans-6e"/>
      <use x="121.289062" xlink:href="#DejaVuSans-6e"/>
      <use x="184.667969" xlink:href="#DejaVuSans-50"/>
      <use x="243.220703" xlink:href="#DejaVuSans-72"/>
      <use x="282.083984" xlink:href="#DejaVuSans-6f"/>
      <use x="343.265625" xlink:href="#DejaVuSans-74"/>
      <use x="382.474609" xlink:href="#DejaVuSans-54"/>
      <use x="443.558594" xlink:href="#DejaVuSans-35"/>
      <use x="507.181641" xlink:href="#DejaVuSans-20"/>
      <use x="538.96875" xlink:href="#DejaVuSans-28"/>
      <use x="577.982422" xlink:href="#DejaVuSans-63"/>
      <use x="632.962891" xlink:href="#DejaVuSans-6f"/>
      <use x="694.144531" xlink:href="#DejaVuSans-73"/>
      <use x="746.244141" xlink:href="#DejaVuSans-69"/>
      <use x="774.027344" xlink:href="#DejaVuSans-6e"/>
      <use x="837.40625" xlink:href="#DejaVuSans-65"/>
      <use x="898.929688" xlink:href="#DejaVuSans-20"/>
      <use x="930.716797" xlink:href="#DejaVuSans-73"/>
      <use x="982.816406" xlink:href="#DejaVuSans-69"/>
      <use x="1010.599609" xlink:href="#DejaVuSans-6d"/>
      <use x="1108.011719" xlink:href="#DejaVuSans-69"/>
      <use x="1135.794922" xlink:href="#DejaVuSans-6c"/>
      <use x="1163.578125" xlink:href="#DejaVuSans-61"/>
      <use x="1224.857422" xlink:href="#DejaVuSans-72"/>
      <use x="1265.970703" xlink:href="#DejaVuSans-69"/>
      <use x="1293.753906" xlink:href="#DejaVuSans-74"/>
      <use x="1332.962891" xlink:href="#DejaVuSans-79"/>
      <use x="1392.142578" xlink:href="#DejaVuSans-29"/>
     </g>
    </g>
    <g id="line2d_38">
     <path d="M 56.72 213.460312 
L 76.72 213.460312 
" style="fill:none;stroke:#2ca02c;stroke-dasharray:5.55,2.4;stroke-dashoffset:0;stroke-width:1.5;"/>
    </g>
    <g id="line2d_39"/>
    <g id="text_19">
     <!-- knnProtT5 aligned (E-value) -->
     <g transform="translate(84.72 216.960312)scale(0.1 -0.1)">
      <use xlink:href="#DejaVuSans-6b"/>
      <use x="57.910156" xlink:href="#DejaVuSans-6e"/>
      <use x="121.289062" xlink:href="#DejaVuSans-6e"/>
      <use x="184.667969" xlink:href="#DejaVuSans-50"/>
      <use x="243.220703" xlink:href="#DejaVuSans-72"/>
      <use x="282.083984" xlink:href="#DejaVuSans-6f"/>
      <use x="343.265625" xlink:href="#DejaVuSans-74"/>
      <use x="382.474609" xlink:href="#DejaVuSans-54"/>
      <use x="443.558594" xlink:href="#DejaVuSans-35"/>
      <use x="507.181641" xlink:href="#DejaVuSans-20"/>
      <use x="538.96875" xlink:href="#DejaVuSans-61"/>
      <use x="600.248047" xlink:href="#DejaVuSans-6c"/>
      <use x="628.03125" xlink:href="#DejaVuSans-69"/>
      <use x="655.814453" xlink:href="#DejaVuSans-67"/>
      <use x="719.291016" xlink:href="#DejaVuSans-6e"/>
      <use x="782.669922" xlink:href="#DejaVuSans-65"/>
      <use x="844.193359" xlink:href="#DejaVuSans-64"/>
      <use x="907.669922" xlink:href="#DejaVuSans-20"/>
      <use x="939.457031" xlink:href="#DejaVuSans-28"/>
      <use x="978.470703" xlink:href="#DejaVuSans-45"/>
      <use x="1041.654297" xlink:href="#DejaVuSans-2d"/>
      <use x="1075.113281" xlink:href="#DejaVuSans-76"/>
      <use x="1134.292969" xlink:href="#DejaVuSans-61"/>
      <use x="1195.572266" xlink:href="#DejaVuSans-6c"/>
      <use x="1223.355469" xlink:href="#DejaVuSans-75"/>
      <use x="1286.734375" xlink:href="#DejaVuSans-65"/>
      <use x="1348.257812" xlink:href="#DejaVuSans-29"/>
     </g>
    </g>
   </g>
  </g>
 </g>
 <defs>
  <clipPath id="p15b75def92">
   <rect height="213.28" width="293.56" x="47.72" y="14.76"/>
  </clipPath>
 </defs>
</svg>
