<?xml version="1.0" encoding="utf-8" standalone="no"?>
<!DOCTYPE svg PUBLIC "-//W3C//DTD SVG 1.1//EN"
  "http://www.w3.org/Graphics/SVG/1.1/DTD/svg11.dtd">
<!-- Created with matplotlib (https://matplotlib.org/) -->
<svg height="345.6pt" version="1.1" viewBox="0 0 460.8 345.6" width="460.8pt" xmlns="http://www.w3.org/2000/svg" xmlns:xlink="http://www.w3.org/1999/xlink">
 <metadata>
  <rdf:RDF xmlns:cc="http://creativecommons.org/ns#" xmlns:dc="http://purl.org/dc/elements/1.1/" xmlns:rdf="http://www.w3.org/1999/02/22-rdf-syntax-ns#">
   <cc:Work>
    <dc:type rdf:resource="http://purl.org/dc/dcmitype/StillImage"/>
    <dc:date/>
    <dc:format>image/svg+xml</dc:format>
    <dc:creator>
     <cc:Agent>
      <dc:title>Matplotlib v3.3.2, https://matplotlib.org/</dc:title>
     </cc:Agent>
    </dc:creator>
   </cc:Work>
  </rdf:RDF>
 </metadata>
 <defs>
  <style type="text/css">*{stroke-linecap:butt;stroke-linejoin:round;}</style>
 </defs>
 <g id="figure_1">
  <g id="patch_1">
   <path d="M 0 345.6 
L 460.8 345.6 
L 460.8 0 
L 0 0 
z
" style="fill:#ffffff;"/>
  </g>
  <g id="axes_1">
   <g id="patch_2">
    <path d="M 57.6 307.584 
L 414.72 307.584 
L 414.72 41.472 
L 57.6 41.472 
z
" style="fill:#ffffff;"/>
   </g>
   <g id="matplotlib.axis_1">
    <g id="xtick_1">
     <g id="line2d_1">
      <defs>
       <path d="M 0 0 
L 0 3.5 
" id="maaddae8885" style="stroke:#000000;stroke-width:0.8;"/>
      </defs>
      <g>
       <use style="stroke:#000000;stroke-width:0.8;" x="73.832727" xlink:href="#maaddae8885" y="307.584"/>
      </g>
     </g>
     <g id="text_1">
      <!-- 0 -->
      <g transform="translate(70.651477 322.182437)scale(0.1 -0.1)">
       <defs>
        <path d="M 31.78125 66.40625 
Q 24.171875 66.40625 20.328125 58.90625 
Q 16.5 51.421875 16.5 36.375 
Q 16.5 21.390625 20.328125 13.890625 
Q 24.171875 6.390625 31.78125 6.390625 
Q 39.453125 6.390625 43.28125 13.890625 
Q 47.125 21.390625 47.125 36.375 
Q 47.125 51.421875 43.28125 58.90625 
Q 39.453125 66.40625 31.78125 66.40625 
z
M 31.78125 74.21875 
Q 44.046875 74.21875 50.515625 64.515625 
Q 56.984375 54.828125 56.984375 36.375 
Q 56.984375 17.96875 50.515625 8.265625 
Q 44.046875 -1.421875 31.78125 -1.421875 
Q 19.53125 -1.421875 13.0625 8.265625 
Q 6.59375 17.96875 6.59375 36.375 
Q 6.59375 54.828125 13.0625 64.515625 
Q 19.53125 74.21875 31.78125 74.21875 
z
" id="DejaVuSans-48"/>
       </defs>
       <use xlink:href="#DejaVuSans-48"/>
      </g>
     </g>
    </g>
    <g id="xtick_2">
     <g id="line2d_2">
      <g>
       <use style="stroke:#000000;stroke-width:0.8;" x="139.089922" xlink:href="#maaddae8885" y="307.584"/>
      </g>
     </g>
     <g id="text_2">
      <!-- 2000 -->
      <g transform="translate(126.364922 322.182437)scale(0.1 -0.1)">
       <defs>
        <path d="M 19.1875 8.296875 
L 53.609375 8.296875 
L 53.609375 0 
L 7.328125 0 
L 7.328125 8.296875 
Q 12.9375 14.109375 22.625 23.890625 
Q 32.328125 33.6875 34.8125 36.53125 
Q 39.546875 41.84375 41.421875 45.53125 
Q 43.3125 49.21875 43.3125 52.78125 
Q 43.3125 58.59375 39.234375 62.25 
Q 35.15625 65.921875 28.609375 65.921875 
Q 23.96875 65.921875 18.8125 64.3125 
Q 13.671875 62.703125 7.8125 59.421875 
L 7.8125 69.390625 
Q 13.765625 71.78125 18.9375 73 
Q 24.125 74.21875 28.421875 74.21875 
Q 39.75 74.21875 46.484375 68.546875 
Q 53.21875 62.890625 53.21875 53.421875 
Q 53.21875 48.921875 51.53125 44.890625 
Q 49.859375 40.875 45.40625 35.40625 
Q 44.1875 33.984375 37.640625 27.21875 
Q 31.109375 20.453125 19.1875 8.296875 
z
" id="DejaVuSans-50"/>
       </defs>
       <use xlink:href="#DejaVuSans-50"/>
       <use x="63.623047" xlink:href="#DejaVuSans-48"/>
       <use x="127.246094" xlink:href="#DejaVuSans-48"/>
       <use x="190.869141" xlink:href="#DejaVuSans-48"/>
      </g>
     </g>
    </g>
    <g id="xtick_3">
     <g id="line2d_3">
      <g>
       <use style="stroke:#000000;stroke-width:0.8;" x="204.347117" xlink:href="#maaddae8885" y="307.584"/>
      </g>
     </g>
     <g id="text_3">
      <!-- 4000 -->
      <g transform="translate(191.622117 322.182437)scale(0.1 -0.1)">
       <defs>
        <path d="M 37.796875 64.3125 
L 12.890625 25.390625 
L 37.796875 25.390625 
z
M 35.203125 72.90625 
L 47.609375 72.90625 
L 47.609375 25.390625 
L 58.015625 25.390625 
L 58.015625 17.1875 
L 47.609375 17.1875 
L 47.609375 0 
L 37.796875 0 
L 37.796875 17.1875 
L 4.890625 17.1875 
L 4.890625 26.703125 
z
" id="DejaVuSans-52"/>
       </defs>
       <use xlink:href="#DejaVuSans-52"/>
       <use x="63.623047" xlink:href="#DejaVuSans-48"/>
       <use x="127.246094" xlink:href="#DejaVuSans-48"/>
       <use x="190.869141" xlink:href="#DejaVuSans-48"/>
      </g>
     </g>
    </g>
    <g id="xtick_4">
     <g id="line2d_4">
      <g>
       <use style="stroke:#000000;stroke-width:0.8;" x="269.604312" xlink:href="#maaddae8885" y="307.584"/>
      </g>
     </g>
     <g id="text_4">
      <!-- 6000 -->
      <g transform="translate(256.879312 322.182437)scale(0.1 -0.1)">
       <defs>
        <path d="M 33.015625 40.375 
Q 26.375 40.375 22.484375 35.828125 
Q 18.609375 31.296875 18.609375 23.390625 
Q 18.609375 15.53125 22.484375 10.953125 
Q 26.375 6.390625 33.015625 6.390625 
Q 39.65625 6.390625 43.53125 10.953125 
Q 47.40625 15.53125 47.40625 23.390625 
Q 47.40625 31.296875 43.53125 35.828125 
Q 39.65625 40.375 33.015625 40.375 
z
M 52.59375 71.296875 
L 52.59375 62.3125 
Q 48.875 64.0625 45.09375 64.984375 
Q 41.3125 65.921875 37.59375 65.921875 
Q 27.828125 65.921875 22.671875 59.328125 
Q 17.53125 52.734375 16.796875 39.40625 
Q 19.671875 43.65625 24.015625 45.921875 
Q 28.375 48.1875 33.59375 48.1875 
Q 44.578125 48.1875 50.953125 41.515625 
Q 57.328125 34.859375 57.328125 23.390625 
Q 57.328125 12.15625 50.6875 5.359375 
Q 44.046875 -1.421875 33.015625 -1.421875 
Q 20.359375 -1.421875 13.671875 8.265625 
Q 6.984375 17.96875 6.984375 36.375 
Q 6.984375 53.65625 15.1875 63.9375 
Q 23.390625 74.21875 37.203125 74.21875 
Q 40.921875 74.21875 44.703125 73.484375 
Q 48.484375 72.75 52.59375 71.296875 
z
" id="DejaVuSans-54"/>
       </defs>
       <use xlink:href="#DejaVuSans-54"/>
       <use x="63.623047" xlink:href="#DejaVuSans-48"/>
       <use x="127.246094" xlink:href="#DejaVuSans-48"/>
       <use x="190.869141" xlink:href="#DejaVuSans-48"/>
      </g>
     </g>
    </g>
    <g id="xtick_5">
     <g id="line2d_5">
      <g>
       <use style="stroke:#000000;stroke-width:0.8;" x="334.861508" xlink:href="#maaddae8885" y="307.584"/>
      </g>
     </g>
     <g id="text_5">
      <!-- 8000 -->
      <g transform="translate(322.136508 322.182437)scale(0.1 -0.1)">
       <defs>
        <path d="M 31.78125 34.625 
Q 24.75 34.625 20.71875 30.859375 
Q 16.703125 27.09375 16.703125 20.515625 
Q 16.703125 13.921875 20.71875 10.15625 
Q 24.75 6.390625 31.78125 6.390625 
Q 38.8125 6.390625 42.859375 10.171875 
Q 46.921875 13.96875 46.921875 20.515625 
Q 46.921875 27.09375 42.890625 30.859375 
Q 38.875 34.625 31.78125 34.625 
z
M 21.921875 38.8125 
Q 15.578125 40.375 12.03125 44.71875 
Q 8.5 49.078125 8.5 55.328125 
Q 8.5 64.0625 14.71875 69.140625 
Q 20.953125 74.21875 31.78125 74.21875 
Q 42.671875 74.21875 48.875 69.140625 
Q 55.078125 64.0625 55.078125 55.328125 
Q 55.078125 49.078125 51.53125 44.71875 
Q 48 40.375 41.703125 38.8125 
Q 48.828125 37.15625 52.796875 32.3125 
Q 56.78125 27.484375 56.78125 20.515625 
Q 56.78125 9.90625 50.3125 4.234375 
Q 43.84375 -1.421875 31.78125 -1.421875 
Q 19.734375 -1.421875 13.25 4.234375 
Q 6.78125 9.90625 6.78125 20.515625 
Q 6.78125 27.484375 10.78125 32.3125 
Q 14.796875 37.15625 21.921875 38.8125 
z
M 18.3125 54.390625 
Q 18.3125 48.734375 21.84375 45.5625 
Q 25.390625 42.390625 31.78125 42.390625 
Q 38.140625 42.390625 41.71875 45.5625 
Q 45.3125 48.734375 45.3125 54.390625 
Q 45.3125 60.0625 41.71875 63.234375 
Q 38.140625 66.40625 31.78125 66.40625 
Q 25.390625 66.40625 21.84375 63.234375 
Q 18.3125 60.0625 18.3125 54.390625 
z
" id="DejaVuSans-56"/>
       </defs>
       <use xlink:href="#DejaVuSans-56"/>
       <use x="63.623047" xlink:href="#DejaVuSans-48"/>
       <use x="127.246094" xlink:href="#DejaVuSans-48"/>
       <use x="190.869141" xlink:href="#DejaVuSans-48"/>
      </g>
     </g>
    </g>
    <g id="xtick_6">
     <g id="line2d_6">
      <g>
       <use style="stroke:#000000;stroke-width:0.8;" x="400.118703" xlink:href="#maaddae8885" y="307.584"/>
      </g>
     </g>
     <g id="text_6">
      <!-- 10000 -->
      <g transform="translate(384.212453 322.182437)scale(0.1 -0.1)">
       <defs>
        <path d="M 12.40625 8.296875 
L 28.515625 8.296875 
L 28.515625 63.921875 
L 10.984375 60.40625 
L 10.984375 69.390625 
L 28.421875 72.90625 
L 38.28125 72.90625 
L 38.28125 8.296875 
L 54.390625 8.296875 
L 54.390625 0 
L 12.40625 0 
z
" id="DejaVuSans-49"/>
       </defs>
       <use xlink:href="#DejaVuSans-49"/>
       <use x="63.623047" xlink:href="#DejaVuSans-48"/>
       <use x="127.246094" xlink:href="#DejaVuSans-48"/>
       <use x="190.869141" xlink:href="#DejaVuSans-48"/>
       <use x="254.492188" xlink:href="#DejaVuSans-48"/>
      </g>
     </g>
    </g>
    <g id="text_7">
     <!-- Rank of the hit -->
     <g transform="translate(199.36 335.860562)scale(0.1 -0.1)">
      <defs>
       <path d="M 44.390625 34.1875 
Q 47.5625 33.109375 50.5625 29.59375 
Q 53.5625 26.078125 56.59375 19.921875 
L 66.609375 0 
L 56 0 
L 46.6875 18.703125 
Q 43.0625 26.03125 39.671875 28.421875 
Q 36.28125 30.8125 30.421875 30.8125 
L 19.671875 30.8125 
L 19.671875 0 
L 9.8125 0 
L 9.8125 72.90625 
L 32.078125 72.90625 
Q 44.578125 72.90625 50.734375 67.671875 
Q 56.890625 62.453125 56.890625 51.90625 
Q 56.890625 45.015625 53.6875 40.46875 
Q 50.484375 35.9375 44.390625 34.1875 
z
M 19.671875 64.796875 
L 19.671875 38.921875 
L 32.078125 38.921875 
Q 39.203125 38.921875 42.84375 42.21875 
Q 46.484375 45.515625 46.484375 51.90625 
Q 46.484375 58.296875 42.84375 61.546875 
Q 39.203125 64.796875 32.078125 64.796875 
z
" id="DejaVuSans-82"/>
       <path d="M 34.28125 27.484375 
Q 23.390625 27.484375 19.1875 25 
Q 14.984375 22.515625 14.984375 16.5 
Q 14.984375 11.71875 18.140625 8.90625 
Q 21.296875 6.109375 26.703125 6.109375 
Q 34.1875 6.109375 38.703125 11.40625 
Q 43.21875 16.703125 43.21875 25.484375 
L 43.21875 27.484375 
z
M 52.203125 31.203125 
L 52.203125 0 
L 43.21875 0 
L 43.21875 8.296875 
Q 40.140625 3.328125 35.546875 0.953125 
Q 30.953125 -1.421875 24.3125 -1.421875 
Q 15.921875 -1.421875 10.953125 3.296875 
Q 6 8.015625 6 15.921875 
Q 6 25.140625 12.171875 29.828125 
Q 18.359375 34.515625 30.609375 34.515625 
L 43.21875 34.515625 
L 43.21875 35.40625 
Q 43.21875 41.609375 39.140625 45 
Q 35.0625 48.390625 27.6875 48.390625 
Q 23 48.390625 18.546875 47.265625 
Q 14.109375 46.140625 10.015625 43.890625 
L 10.015625 52.203125 
Q 14.9375 54.109375 19.578125 55.046875 
Q 24.21875 56 28.609375 56 
Q 40.484375 56 46.34375 49.84375 
Q 52.203125 43.703125 52.203125 31.203125 
z
" id="DejaVuSans-97"/>
       <path d="M 54.890625 33.015625 
L 54.890625 0 
L 45.90625 0 
L 45.90625 32.71875 
Q 45.90625 40.484375 42.875 44.328125 
Q 39.84375 48.1875 33.796875 48.1875 
Q 26.515625 48.1875 22.3125 43.546875 
Q 18.109375 38.921875 18.109375 30.90625 
L 18.109375 0 
L 9.078125 0 
L 9.078125 54.6875 
L 18.109375 54.6875 
L 18.109375 46.1875 
Q 21.34375 51.125 25.703125 53.5625 
Q 30.078125 56 35.796875 56 
Q 45.21875 56 50.046875 50.171875 
Q 54.890625 44.34375 54.890625 33.015625 
z
" id="DejaVuSans-110"/>
       <path d="M 9.078125 75.984375 
L 18.109375 75.984375 
L 18.109375 31.109375 
L 44.921875 54.6875 
L 56.390625 54.6875 
L 27.390625 29.109375 
L 57.625 0 
L 45.90625 0 
L 18.109375 26.703125 
L 18.109375 0 
L 9.078125 0 
z
" id="DejaVuSans-107"/>
       <path id="DejaVuSans-32"/>
       <path d="M 30.609375 48.390625 
Q 23.390625 48.390625 19.1875 42.75 
Q 14.984375 37.109375 14.984375 27.296875 
Q 14.984375 17.484375 19.15625 11.84375 
Q 23.34375 6.203125 30.609375 6.203125 
Q 37.796875 6.203125 41.984375 11.859375 
Q 46.1875 17.53125 46.1875 27.296875 
Q 46.1875 37.015625 41.984375 42.703125 
Q 37.796875 48.390625 30.609375 48.390625 
z
M 30.609375 56 
Q 42.328125 56 49.015625 48.375 
Q 55.71875 40.765625 55.71875 27.296875 
Q 55.71875 13.875 49.015625 6.21875 
Q 42.328125 -1.421875 30.609375 -1.421875 
Q 18.84375 -1.421875 12.171875 6.21875 
Q 5.515625 13.875 5.515625 27.296875 
Q 5.515625 40.765625 12.171875 48.375 
Q 18.84375 56 30.609375 56 
z
" id="DejaVuSans-111"/>
       <path d="M 37.109375 75.984375 
L 37.109375 68.5 
L 28.515625 68.5 
Q 23.6875 68.5 21.796875 66.546875 
Q 19.921875 64.59375 19.921875 59.515625 
L 19.921875 54.6875 
L 34.71875 54.6875 
L 34.71875 47.703125 
L 19.921875 47.703125 
L 19.921875 0 
L 10.890625 0 
L 10.890625 47.703125 
L 2.296875 47.703125 
L 2.296875 54.6875 
L 10.890625 54.6875 
L 10.890625 58.5 
Q 10.890625 67.625 15.140625 71.796875 
Q 19.390625 75.984375 28.609375 75.984375 
z
" id="DejaVuSans-102"/>
       <path d="M 18.3125 70.21875 
L 18.3125 54.6875 
L 36.8125 54.6875 
L 36.8125 47.703125 
L 18.3125 47.703125 
L 18.3125 18.015625 
Q 18.3125 11.328125 20.140625 9.421875 
Q 21.96875 7.515625 27.59375 7.515625 
L 36.8125 7.515625 
L 36.8125 0 
L 27.59375 0 
Q 17.1875 0 13.234375 3.875 
Q 9.28125 7.765625 9.28125 18.015625 
L 9.28125 47.703125 
L 2.6875 47.703125 
L 2.6875 54.6875 
L 9.28125 54.6875 
L 9.28125 70.21875 
z
" id="DejaVuSans-116"/>
       <path d="M 54.890625 33.015625 
L 54.890625 0 
L 45.90625 0 
L 45.90625 32.71875 
Q 45.90625 40.484375 42.875 44.328125 
Q 39.84375 48.1875 33.796875 48.1875 
Q 26.515625 48.1875 22.3125 43.546875 
Q 18.109375 38.921875 18.109375 30.90625 
L 18.109375 0 
L 9.078125 0 
L 9.078125 75.984375 
L 18.109375 75.984375 
L 18.109375 46.1875 
Q 21.34375 51.125 25.703125 53.5625 
Q 30.078125 56 35.796875 56 
Q 45.21875 56 50.046875 50.171875 
Q 54.890625 44.34375 54.890625 33.015625 
z
" id="DejaVuSans-104"/>
       <path d="M 56.203125 29.59375 
L 56.203125 25.203125 
L 14.890625 25.203125 
Q 15.484375 15.921875 20.484375 11.0625 
Q 25.484375 6.203125 34.421875 6.203125 
Q 39.59375 6.203125 44.453125 7.46875 
Q 49.3125 8.734375 54.109375 11.28125 
L 54.109375 2.78125 
Q 49.265625 0.734375 44.1875 -0.34375 
Q 39.109375 -1.421875 33.890625 -1.421875 
Q 20.796875 -1.421875 13.15625 6.1875 
Q 5.515625 13.8125 5.515625 26.8125 
Q 5.515625 40.234375 12.765625 48.109375 
Q 20.015625 56 32.328125 56 
Q 43.359375 56 49.78125 48.890625 
Q 56.203125 41.796875 56.203125 29.59375 
z
M 47.21875 32.234375 
Q 47.125 39.59375 43.09375 43.984375 
Q 39.0625 48.390625 32.421875 48.390625 
Q 24.90625 48.390625 20.390625 44.140625 
Q 15.875 39.890625 15.1875 32.171875 
z
" id="DejaVuSans-101"/>
       <path d="M 9.421875 54.6875 
L 18.40625 54.6875 
L 18.40625 0 
L 9.421875 0 
z
M 9.421875 75.984375 
L 18.40625 75.984375 
L 18.40625 64.59375 
L 9.421875 64.59375 
z
" id="DejaVuSans-105"/>
      </defs>
      <use xlink:href="#DejaVuSans-82"/>
      <use x="67.232422" xlink:href="#DejaVuSans-97"/>
      <use x="128.511719" xlink:href="#DejaVuSans-110"/>
      <use x="191.890625" xlink:href="#DejaVuSans-107"/>
      <use x="249.800781" xlink:href="#DejaVuSans-32"/>
      <use x="281.587891" xlink:href="#DejaVuSans-111"/>
      <use x="342.769531" xlink:href="#DejaVuSans-102"/>
      <use x="377.974609" xlink:href="#DejaVuSans-32"/>
      <use x="409.761719" xlink:href="#DejaVuSans-116"/>
      <use x="448.970703" xlink:href="#DejaVuSans-104"/>
      <use x="512.349609" xlink:href="#DejaVuSans-101"/>
      <use x="573.873047" xlink:href="#DejaVuSans-32"/>
      <use x="605.660156" xlink:href="#DejaVuSans-104"/>
      <use x="669.039062" xlink:href="#DejaVuSans-105"/>
      <use x="696.822266" xlink:href="#DejaVuSans-116"/>
     </g>
    </g>
   </g>
   <g id="matplotlib.axis_2">
    <g id="ytick_1">
     <g id="line2d_7">
      <defs>
       <path d="M 0 0 
L -3.5 0 
" id="mb0cd59746e" style="stroke:#000000;stroke-width:0.8;"/>
      </defs>
      <g>
       <use style="stroke:#000000;stroke-width:0.8;" x="57.6" xlink:href="#mb0cd59746e" y="295.488"/>
      </g>
     </g>
     <g id="text_8">
      <!-- 0.000 -->
      <g transform="translate(21.971875 299.287219)scale(0.1 -0.1)">
       <defs>
        <path d="M 10.6875 12.40625 
L 21 12.40625 
L 21 0 
L 10.6875 0 
z
" id="DejaVuSans-46"/>
       </defs>
       <use xlink:href="#DejaVuSans-48"/>
       <use x="63.623047" xlink:href="#DejaVuSans-46"/>
       <use x="95.410156" xlink:href="#DejaVuSans-48"/>
       <use x="159.033203" xlink:href="#DejaVuSans-48"/>
       <use x="222.65625" xlink:href="#DejaVuSans-48"/>
      </g>
     </g>
    </g>
    <g id="ytick_2">
     <g id="line2d_8">
      <g>
       <use style="stroke:#000000;stroke-width:0.8;" x="57.6" xlink:href="#mb0cd59746e" y="258.833455"/>
      </g>
     </g>
     <g id="text_9">
      <!-- 0.025 -->
      <g transform="translate(21.971875 262.632673)scale(0.1 -0.1)">
       <defs>
        <path d="M 10.796875 72.90625 
L 49.515625 72.90625 
L 49.515625 64.59375 
L 19.828125 64.59375 
L 19.828125 46.734375 
Q 21.96875 47.46875 24.109375 47.828125 
Q 26.265625 48.1875 28.421875 48.1875 
Q 40.625 48.1875 47.75 41.5 
Q 54.890625 34.8125 54.890625 23.390625 
Q 54.890625 11.625 47.5625 5.09375 
Q 40.234375 -1.421875 26.90625 -1.421875 
Q 22.3125 -1.421875 17.546875 -0.640625 
Q 12.796875 0.140625 7.71875 1.703125 
L 7.71875 11.625 
Q 12.109375 9.234375 16.796875 8.0625 
Q 21.484375 6.890625 26.703125 6.890625 
Q 35.15625 6.890625 40.078125 11.328125 
Q 45.015625 15.765625 45.015625 23.390625 
Q 45.015625 31 40.078125 35.4375 
Q 35.15625 39.890625 26.703125 39.890625 
Q 22.75 39.890625 18.8125 39.015625 
Q 14.890625 38.140625 10.796875 36.28125 
z
" id="DejaVuSans-53"/>
       </defs>
       <use xlink:href="#DejaVuSans-48"/>
       <use x="63.623047" xlink:href="#DejaVuSans-46"/>
       <use x="95.410156" xlink:href="#DejaVuSans-48"/>
       <use x="159.033203" xlink:href="#DejaVuSans-50"/>
       <use x="222.65625" xlink:href="#DejaVuSans-53"/>
      </g>
     </g>
    </g>
    <g id="ytick_3">
     <g id="line2d_9">
      <g>
       <use style="stroke:#000000;stroke-width:0.8;" x="57.6" xlink:href="#mb0cd59746e" y="222.178909"/>
      </g>
     </g>
     <g id="text_10">
      <!-- 0.050 -->
      <g transform="translate(21.971875 225.978128)scale(0.1 -0.1)">
       <use xlink:href="#DejaVuSans-48"/>
       <use x="63.623047" xlink:href="#DejaVuSans-46"/>
       <use x="95.410156" xlink:href="#DejaVuSans-48"/>
       <use x="159.033203" xlink:href="#DejaVuSans-53"/>
       <use x="222.65625" xlink:href="#DejaVuSans-48"/>
      </g>
     </g>
    </g>
    <g id="ytick_4">
     <g id="line2d_10">
      <g>
       <use style="stroke:#000000;stroke-width:0.8;" x="57.6" xlink:href="#mb0cd59746e" y="185.524364"/>
      </g>
     </g>
     <g id="text_11">
      <!-- 0.075 -->
      <g transform="translate(21.971875 189.323582)scale(0.1 -0.1)">
       <defs>
        <path d="M 8.203125 72.90625 
L 55.078125 72.90625 
L 55.078125 68.703125 
L 28.609375 0 
L 18.3125 0 
L 43.21875 64.59375 
L 8.203125 64.59375 
z
" id="DejaVuSans-55"/>
       </defs>
       <use xlink:href="#DejaVuSans-48"/>
       <use x="63.623047" xlink:href="#DejaVuSans-46"/>
       <use x="95.410156" xlink:href="#DejaVuSans-48"/>
       <use x="159.033203" xlink:href="#DejaVuSans-55"/>
       <use x="222.65625" xlink:href="#DejaVuSans-53"/>
      </g>
     </g>
    </g>
    <g id="ytick_5">
     <g id="line2d_11">
      <g>
       <use style="stroke:#000000;stroke-width:0.8;" x="57.6" xlink:href="#mb0cd59746e" y="148.869818"/>
      </g>
     </g>
     <g id="text_12">
      <!-- 0.100 -->
      <g transform="translate(21.971875 152.669037)scale(0.1 -0.1)">
       <use xlink:href="#DejaVuSans-48"/>
       <use x="63.623047" xlink:href="#DejaVuSans-46"/>
       <use x="95.410156" xlink:href="#DejaVuSans-49"/>
       <use x="159.033203" xlink:href="#DejaVuSans-48"/>
       <use x="222.65625" xlink:href="#DejaVuSans-48"/>
      </g>
     </g>
    </g>
    <g id="ytick_6">
     <g id="line2d_12">
      <g>
       <use style="stroke:#000000;stroke-width:0.8;" x="57.6" xlink:href="#mb0cd59746e" y="112.215273"/>
      </g>
     </g>
     <g id="text_13">
      <!-- 0.125 -->
      <g transform="translate(21.971875 116.014491)scale(0.1 -0.1)">
       <use xlink:href="#DejaVuSans-48"/>
       <use x="63.623047" xlink:href="#DejaVuSans-46"/>
       <use x="95.410156" xlink:href="#DejaVuSans-49"/>
       <use x="159.033203" xlink:href="#DejaVuSans-50"/>
       <use x="222.65625" xlink:href="#DejaVuSans-53"/>
      </g>
     </g>
    </g>
    <g id="ytick_7">
     <g id="line2d_13">
      <g>
       <use style="stroke:#000000;stroke-width:0.8;" x="57.6" xlink:href="#mb0cd59746e" y="75.560727"/>
      </g>
     </g>
     <g id="text_14">
      <!-- 0.150 -->
      <g transform="translate(21.971875 79.359946)scale(0.1 -0.1)">
       <use xlink:href="#DejaVuSans-48"/>
       <use x="63.623047" xlink:href="#DejaVuSans-46"/>
       <use x="95.410156" xlink:href="#DejaVuSans-49"/>
       <use x="159.033203" xlink:href="#DejaVuSans-53"/>
       <use x="222.65625" xlink:href="#DejaVuSans-48"/>
      </g>
     </g>
    </g>
    <g id="text_15">
     <!-- Mean accuracy in a window of 50 -->
     <g transform="translate(15.892187 258.018625)rotate(-90)scale(0.1 -0.1)">
      <defs>
       <path d="M 9.8125 72.90625 
L 24.515625 72.90625 
L 43.109375 23.296875 
L 61.8125 72.90625 
L 76.515625 72.90625 
L 76.515625 0 
L 66.890625 0 
L 66.890625 64.015625 
L 48.09375 14.015625 
L 38.1875 14.015625 
L 19.390625 64.015625 
L 19.390625 0 
L 9.8125 0 
z
" id="DejaVuSans-77"/>
       <path d="M 48.78125 52.59375 
L 48.78125 44.1875 
Q 44.96875 46.296875 41.140625 47.34375 
Q 37.3125 48.390625 33.40625 48.390625 
Q 24.65625 48.390625 19.8125 42.84375 
Q 14.984375 37.3125 14.984375 27.296875 
Q 14.984375 17.28125 19.8125 11.734375 
Q 24.65625 6.203125 33.40625 6.203125 
Q 37.3125 6.203125 41.140625 7.25 
Q 44.96875 8.296875 48.78125 10.40625 
L 48.78125 2.09375 
Q 45.015625 0.34375 40.984375 -0.53125 
Q 36.96875 -1.421875 32.421875 -1.421875 
Q 20.0625 -1.421875 12.78125 6.34375 
Q 5.515625 14.109375 5.515625 27.296875 
Q 5.515625 40.671875 12.859375 48.328125 
Q 20.21875 56 33.015625 56 
Q 37.15625 56 41.109375 55.140625 
Q 45.0625 54.296875 48.78125 52.59375 
z
" id="DejaVuSans-99"/>
       <path d="M 8.5 21.578125 
L 8.5 54.6875 
L 17.484375 54.6875 
L 17.484375 21.921875 
Q 17.484375 14.15625 20.5 10.265625 
Q 23.53125 6.390625 29.59375 6.390625 
Q 36.859375 6.390625 41.078125 11.03125 
Q 45.3125 15.671875 45.3125 23.6875 
L 45.3125 54.6875 
L 54.296875 54.6875 
L 54.296875 0 
L 45.3125 0 
L 45.3125 8.40625 
Q 42.046875 3.421875 37.71875 1 
Q 33.40625 -1.421875 27.6875 -1.421875 
Q 18.265625 -1.421875 13.375 4.4375 
Q 8.5 10.296875 8.5 21.578125 
z
M 31.109375 56 
z
" id="DejaVuSans-117"/>
       <path d="M 41.109375 46.296875 
Q 39.59375 47.171875 37.8125 47.578125 
Q 36.03125 48 33.890625 48 
Q 26.265625 48 22.1875 43.046875 
Q 18.109375 38.09375 18.109375 28.8125 
L 18.109375 0 
L 9.078125 0 
L 9.078125 54.6875 
L 18.109375 54.6875 
L 18.109375 46.1875 
Q 20.953125 51.171875 25.484375 53.578125 
Q 30.03125 56 36.53125 56 
Q 37.453125 56 38.578125 55.875 
Q 39.703125 55.765625 41.0625 55.515625 
z
" id="DejaVuSans-114"/>
       <path d="M 32.171875 -5.078125 
Q 28.375 -14.84375 24.75 -17.8125 
Q 21.140625 -20.796875 15.09375 -20.796875 
L 7.90625 -20.796875 
L 7.90625 -13.28125 
L 13.1875 -13.28125 
Q 16.890625 -13.28125 18.9375 -11.515625 
Q 21 -9.765625 23.484375 -3.21875 
L 25.09375 0.875 
L 2.984375 54.6875 
L 12.5 54.6875 
L 29.59375 11.921875 
L 46.6875 54.6875 
L 56.203125 54.6875 
z
" id="DejaVuSans-121"/>
       <path d="M 4.203125 54.6875 
L 13.1875 54.6875 
L 24.421875 12.015625 
L 35.59375 54.6875 
L 46.1875 54.6875 
L 57.421875 12.015625 
L 68.609375 54.6875 
L 77.59375 54.6875 
L 63.28125 0 
L 52.6875 0 
L 40.921875 44.828125 
L 29.109375 0 
L 18.5 0 
z
" id="DejaVuSans-119"/>
       <path d="M 45.40625 46.390625 
L 45.40625 75.984375 
L 54.390625 75.984375 
L 54.390625 0 
L 45.40625 0 
L 45.40625 8.203125 
Q 42.578125 3.328125 38.25 0.953125 
Q 33.9375 -1.421875 27.875 -1.421875 
Q 17.96875 -1.421875 11.734375 6.484375 
Q 5.515625 14.40625 5.515625 27.296875 
Q 5.515625 40.1875 11.734375 48.09375 
Q 17.96875 56 27.875 56 
Q 33.9375 56 38.25 53.625 
Q 42.578125 51.265625 45.40625 46.390625 
z
M 14.796875 27.296875 
Q 14.796875 17.390625 18.875 11.75 
Q 22.953125 6.109375 30.078125 6.109375 
Q 37.203125 6.109375 41.296875 11.75 
Q 45.40625 17.390625 45.40625 27.296875 
Q 45.40625 37.203125 41.296875 42.84375 
Q 37.203125 48.484375 30.078125 48.484375 
Q 22.953125 48.484375 18.875 42.84375 
Q 14.796875 37.203125 14.796875 27.296875 
z
" id="DejaVuSans-100"/>
      </defs>
      <use xlink:href="#DejaVuSans-77"/>
      <use x="86.279297" xlink:href="#DejaVuSans-101"/>
      <use x="147.802734" xlink:href="#DejaVuSans-97"/>
      <use x="209.082031" xlink:href="#DejaVuSans-110"/>
      <use x="272.460938" xlink:href="#DejaVuSans-32"/>
      <use x="304.248047" xlink:href="#DejaVuSans-97"/>
      <use x="365.527344" xlink:href="#DejaVuSans-99"/>
      <use x="420.507812" xlink:href="#DejaVuSans-99"/>
      <use x="475.488281" xlink:href="#DejaVuSans-117"/>
      <use x="538.867188" xlink:href="#DejaVuSans-114"/>
      <use x="579.980469" xlink:href="#DejaVuSans-97"/>
      <use x="641.259766" xlink:href="#DejaVuSans-99"/>
      <use x="696.240234" xlink:href="#DejaVuSans-121"/>
      <use x="755.419922" xlink:href="#DejaVuSans-32"/>
      <use x="787.207031" xlink:href="#DejaVuSans-105"/>
      <use x="814.990234" xlink:href="#DejaVuSans-110"/>
      <use x="878.369141" xlink:href="#DejaVuSans-32"/>
      <use x="910.15625" xlink:href="#DejaVuSans-97"/>
      <use x="971.435547" xlink:href="#DejaVuSans-32"/>
      <use x="1003.222656" xlink:href="#DejaVuSans-119"/>
      <use x="1085.009766" xlink:href="#DejaVuSans-105"/>
      <use x="1112.792969" xlink:href="#DejaVuSans-110"/>
      <use x="1176.171875" xlink:href="#DejaVuSans-100"/>
      <use x="1239.648438" xlink:href="#DejaVuSans-111"/>
      <use x="1300.830078" xlink:href="#DejaVuSans-119"/>
      <use x="1382.617188" xlink:href="#DejaVuSans-32"/>
      <use x="1414.404297" xlink:href="#DejaVuSans-111"/>
      <use x="1475.585938" xlink:href="#DejaVuSans-102"/>
      <use x="1510.791016" xlink:href="#DejaVuSans-32"/>
      <use x="1542.578125" xlink:href="#DejaVuSans-53"/>
      <use x="1606.201172" xlink:href="#DejaVuSans-48"/>
     </g>
    </g>
   </g>
   <g id="line2d_14">
    <path clip-path="url(#peaeb49acaa)" d="M 73.832727 53.568 
L 74.028499 71.162182 
L 74.061127 71.895273 
L 74.22427 79.959273 
L 74.256899 79.226182 
L 74.289528 80.692364 
L 74.322156 80.692364 
L 74.420042 82.158545 
L 74.550556 80.692364 
L 74.746328 87.290182 
L 74.778957 86.557091 
L 74.909471 85.824 
L 75.105243 88.023273 
L 75.137871 88.023273 
L 75.203128 86.557091 
L 75.268386 87.290182 
L 75.333643 87.290182 
L 75.562043 90.222545 
L 75.725186 88.756364 
L 75.8557 88.756364 
L 75.888329 90.222545 
L 75.953586 89.489455 
L 76.018843 89.489455 
L 76.149358 91.688727 
L 76.181986 90.955636 
L 76.312501 87.290182 
L 76.345129 88.023273 
L 76.377758 87.290182 
L 76.410386 89.489455 
L 76.475644 86.557091 
L 76.540901 87.290182 
L 76.573529 86.557091 
L 76.704044 85.090909 
L 76.769301 82.891636 
L 76.80193 84.357818 
L 77.095587 88.756364 
L 77.160844 86.557091 
L 77.193473 87.290182 
L 77.356616 88.756364 
L 77.585016 85.824 
L 77.780788 88.023273 
L 77.813416 88.023273 
L 78.009188 90.222545 
L 78.041816 90.222545 
L 78.204959 95.354182 
L 78.302845 95.354182 
L 78.531245 98.286545 
L 78.629131 98.286545 
L 78.694388 99.019636 
L 78.824903 97.553455 
L 78.857531 97.553455 
L 78.89016 96.087273 
L 78.955417 96.820364 
L 79.281703 104.151273 
L 79.34696 103.418182 
L 79.379589 103.418182 
L 79.412217 102.685091 
L 79.477475 103.418182 
L 79.542732 105.617455 
L 79.607989 104.884364 
L 79.738503 102.685091 
L 79.771132 102.685091 
L 79.836389 101.952 
L 79.869018 102.685091 
L 79.999532 103.418182 
L 80.032161 103.418182 
L 80.227932 101.218909 
L 80.260561 101.218909 
L 80.325818 99.752727 
L 80.358447 101.218909 
L 80.456333 102.685091 
L 80.586847 101.218909 
L 80.684733 100.485818 
L 80.74999 101.952 
L 80.782619 100.485818 
L 80.913133 99.752727 
L 81.011019 99.752727 
L 81.108905 103.418182 
L 81.141533 101.952 
L 81.174162 99.752727 
L 81.239419 101.218909 
L 81.369933 102.685091 
L 81.402562 102.685091 
L 81.500448 104.151273 
L 81.630962 101.952 
L 81.663591 101.952 
L 81.728848 103.418182 
L 81.794105 102.685091 
L 81.859362 101.218909 
L 81.891991 101.952 
L 81.989877 102.685091 
L 82.055134 99.752727 
L 82.087762 100.485818 
L 82.218277 103.418182 
L 82.250905 102.685091 
L 82.316163 103.418182 
L 82.414048 103.418182 
L 82.446677 104.151273 
L 82.479306 102.685091 
L 82.544563 102.685091 
L 82.740334 97.553455 
L 82.772963 99.019636 
L 82.903477 99.752727 
L 83.001363 99.752727 
L 83.197135 101.952 
L 83.262392 101.952 
L 83.425535 100.485818 
L 83.490792 101.218909 
L 83.523421 100.485818 
L 83.588678 100.485818 
L 83.653935 99.019636 
L 83.686564 99.752727 
L 83.78445 99.752727 
L 83.947593 96.820364 
L 83.980221 96.820364 
L 84.175993 94.621091 
L 84.371764 97.553455 
L 84.46965 95.354182 
L 84.502279 96.087273 
L 84.534907 95.354182 
L 84.600164 96.087273 
L 84.632793 96.087273 
L 84.795936 93.888 
L 84.92645 94.621091 
L 85.024336 93.154909 
L 85.317994 99.019636 
L 85.350622 98.286545 
L 85.383251 98.286545 
L 85.970566 109.282909 
L 86.003194 109.282909 
L 86.133709 112.215273 
L 86.264223 109.282909 
L 86.296852 110.016 
L 86.362109 112.215273 
L 86.394737 111.482182 
L 86.459995 110.749091 
L 86.492623 111.482182 
L 86.688395 115.880727 
L 86.753652 115.880727 
L 86.78628 116.613818 
L 86.818909 115.880727 
L 86.949423 114.414545 
L 87.079938 116.613818 
L 87.112566 116.613818 
L 87.210452 117.346909 
L 87.471481 113.681455 
L 87.569367 114.414545 
L 87.634624 113.681455 
L 87.667253 114.414545 
L 87.73251 115.147636 
L 87.765138 113.681455 
L 87.830396 115.147636 
L 88.058796 118.08 
L 88.124053 118.08 
L 88.254567 115.880727 
L 88.287196 115.880727 
L 88.482968 113.681455 
L 88.548225 115.147636 
L 88.776625 107.083636 
L 88.809254 106.350545 
L 88.841882 107.083636 
L 88.874511 107.816727 
L 88.939768 107.083636 
L 89.005025 104.884364 
L 89.070282 105.617455 
L 89.13554 104.884364 
L 89.233425 107.083636 
L 89.266054 107.083636 
L 89.331311 104.884364 
L 89.396568 106.350545 
L 89.429197 106.350545 
L 89.624968 104.151273 
L 89.722854 104.884364 
L 89.755483 104.151273 
L 89.788111 105.617455 
L 89.82074 105.617455 
L 89.853369 106.350545 
L 89.885997 105.617455 
L 89.918626 104.884364 
L 89.951254 105.617455 
L 90.310169 112.948364 
L 90.408055 110.749091 
L 90.538569 112.948364 
L 90.603826 112.948364 
L 90.636455 115.147636 
L 90.701712 114.414545 
L 90.832227 112.948364 
L 90.897484 112.215273 
L 90.930112 112.948364 
L 90.962741 113.681455 
L 90.99537 112.215273 
L 91.060627 112.215273 
L 91.354284 107.083636 
L 91.517427 110.749091 
L 91.68057 108.549818 
L 91.745827 110.016 
L 91.778456 109.282909 
L 91.941599 106.350545 
L 92.006856 109.282909 
L 92.104742 107.816727 
L 92.13737 107.816727 
L 92.365771 110.749091 
L 92.561542 108.549818 
L 92.887828 113.681455 
L 92.920457 112.948364 
L 92.953085 114.414545 
L 92.985714 115.147636 
L 93.018343 114.414545 
L 93.148857 112.948364 
L 93.279371 115.147636 
L 93.312 114.414545 
L 93.377257 112.215273 
L 93.409886 113.681455 
L 93.5404 118.08 
L 93.573029 117.346909 
L 93.736172 120.279273 
L 93.7688 119.546182 
L 93.866686 118.813091 
L 94.127715 122.478545 
L 94.356115 119.546182 
L 94.388744 119.546182 
L 94.551887 122.478545 
L 94.617144 121.012364 
L 94.649772 121.745455 
L 94.747658 122.478545 
L 94.878173 121.745455 
L 94.910801 121.745455 
L 95.008687 123.211636 
L 95.041316 122.478545 
L 95.106573 121.012364 
L 95.17183 121.745455 
L 95.237087 121.745455 
L 95.530745 115.147636 
L 95.563373 115.880727 
L 95.661259 118.813091 
L 95.693888 117.346909 
L 95.726516 117.346909 
L 95.922288 119.546182 
L 95.954916 119.546182 
L 96.183317 116.613818 
L 96.215945 117.346909 
L 96.248574 116.613818 
L 96.281202 115.880727 
L 96.34646 116.613818 
L 96.57486 119.546182 
L 96.607488 119.546182 
L 96.672746 118.813091 
L 96.705374 119.546182 
L 96.738003 120.279273 
L 96.770631 119.546182 
L 96.868517 117.346909 
L 96.901146 118.08 
L 96.933774 117.346909 
L 97.129546 124.677818 
L 97.162175 124.677818 
L 97.194803 125.410909 
L 97.227432 123.944727 
L 97.292689 123.211636 
L 97.357946 124.677818 
L 97.390575 123.944727 
L 97.423203 123.944727 
L 97.455832 122.478545 
L 97.521089 123.211636 
L 97.586346 123.211636 
L 97.684232 126.877091 
L 97.716861 125.410909 
L 97.847375 123.211636 
L 98.043147 125.410909 
L 98.075775 125.410909 
L 98.238918 126.877091 
L 98.369433 126.877091 
L 98.402061 126.144 
L 98.43469 127.610182 
L 98.467318 129.076364 
L 98.532576 127.610182 
L 98.565204 127.610182 
L 98.597833 126.877091 
L 98.630461 128.343273 
L 98.66309 127.610182 
L 98.793604 127.610182 
L 98.956747 124.677818 
L 99.054633 124.677818 
L 99.185148 126.144 
L 99.217776 125.410909 
L 99.250405 126.144 
L 99.446176 132.741818 
L 99.511434 132.741818 
L 99.674577 129.809455 
L 99.707205 129.809455 
L 99.870348 131.275636 
L 99.935605 131.275636 
L 100.06612 129.809455 
L 100.229263 132.741818 
L 100.261891 132.008727 
L 100.29452 132.008727 
L 100.588177 136.407273 
L 100.653434 136.407273 
L 100.75132 138.606545 
L 100.947092 132.741818 
L 101.142863 128.343273 
L 101.208121 129.076364 
L 101.306006 127.610182 
L 101.338635 129.076364 
L 101.403892 127.610182 
L 101.567035 126.144 
L 101.664921 128.343273 
L 101.730178 127.610182 
L 101.92595 123.211636 
L 102.089093 118.813091 
L 102.186979 119.546182 
L 102.284864 121.745455 
L 102.317493 120.279273 
L 102.38275 120.279273 
L 102.872179 130.542545 
L 103.002693 127.610182 
L 103.067951 129.076364 
L 103.133208 128.343273 
L 103.165836 128.343273 
L 103.459494 134.208 
L 103.524751 132.008727 
L 103.55738 132.741818 
L 103.753151 137.873455 
L 103.78578 137.873455 
L 103.916294 134.941091 
L 103.981551 135.674182 
L 104.144694 139.339636 
L 104.177323 138.606545 
L 104.307837 137.140364 
L 104.373095 137.873455 
L 104.405723 137.140364 
L 104.47098 137.140364 
L 104.503609 134.941091 
L 104.568866 137.140364 
L 104.634123 139.339636 
L 104.666752 137.873455 
L 104.699381 134.941091 
L 104.764638 137.140364 
L 104.895152 135.674182 
L 105.025667 137.140364 
L 105.123552 135.674182 
L 105.254067 136.407273 
L 105.41721 132.008727 
L 105.449838 133.474909 
L 105.547724 134.941091 
L 105.580353 134.208 
L 105.808753 128.343273 
L 105.841381 129.809455 
L 105.87401 132.008727 
L 105.971896 131.275636 
L 106.004524 131.275636 
L 106.10241 130.542545 
L 106.135039 132.008727 
L 106.200296 130.542545 
L 106.298182 128.343273 
L 106.428696 130.542545 
L 106.526582 130.542545 
L 106.559211 131.275636 
L 106.591839 130.542545 
L 106.657096 129.809455 
L 106.689725 130.542545 
L 106.918125 134.941091 
L 106.950754 134.208 
L 107.016011 134.208 
L 107.04864 134.941091 
L 107.081268 134.208 
L 107.179154 132.741818 
L 107.211783 133.474909 
L 107.440183 140.072727 
L 107.538069 137.140364 
L 107.570697 138.606545 
L 107.603326 137.873455 
L 107.635954 138.606545 
L 107.668583 140.072727 
L 107.73384 138.606545 
L 107.831726 137.873455 
L 107.994869 140.805818 
L 108.027497 140.072727 
L 108.19064 134.941091 
L 108.321155 135.674182 
L 108.386412 135.674182 
L 108.549555 132.008727 
L 108.582184 133.474909 
L 108.680069 134.941091 
L 108.712698 133.474909 
L 108.777955 134.941091 
L 108.973727 131.275636 
L 109.13687 134.208 
L 109.169498 134.208 
L 109.300013 130.542545 
L 109.332641 131.275636 
L 109.59367 134.941091 
L 109.691556 134.208 
L 109.952585 139.339636 
L 109.985213 138.606545 
L 110.017842 137.873455 
L 110.083099 138.606545 
L 110.115728 138.606545 
L 110.246242 140.072727 
L 110.278871 139.339636 
L 110.311499 140.072727 
L 110.442014 142.272 
L 110.539899 141.538909 
L 110.605157 143.005091 
L 110.637785 141.538909 
L 110.735671 137.140364 
L 110.7683 137.873455 
L 110.800928 137.873455 
L 110.931443 141.538909 
L 110.9967 140.805818 
L 111.029328 140.072727 
L 111.061957 140.805818 
L 111.159843 143.005091 
L 111.192471 142.272 
L 111.257729 140.805818 
L 111.290357 141.538909 
L 111.322986 141.538909 
L 111.4535 143.738182 
L 111.486129 143.005091 
L 111.551386 143.005091 
L 111.584015 141.538909 
L 111.649272 143.005091 
L 111.845043 140.072727 
L 111.942929 141.538909 
L 112.073444 139.339636 
L 112.106072 139.339636 
L 112.203958 140.805818 
L 112.236587 140.072727 
L 112.269215 141.538909 
L 112.432358 144.471273 
L 112.464987 145.204364 
L 112.497615 143.738182 
L 112.562873 143.005091 
L 112.595501 143.738182 
L 112.62813 143.738182 
L 112.660758 145.204364 
L 112.693387 143.738182 
L 112.758644 140.072727 
L 112.823901 142.272 
L 112.889159 143.005091 
L 112.921787 142.272 
L 112.954416 142.272 
L 113.182816 135.674182 
L 113.31333 137.873455 
L 113.345959 137.140364 
L 113.378587 137.140364 
L 113.54173 133.474909 
L 113.574359 134.941091 
L 113.672245 136.407273 
L 113.835388 133.474909 
L 113.868016 134.208 
L 114.031159 135.674182 
L 114.226931 132.741818 
L 114.390074 138.606545 
L 114.422703 137.873455 
L 114.48796 137.873455 
L 114.71636 143.738182 
L 114.879503 145.204364 
L 114.977389 143.005091 
L 115.010017 144.471273 
L 115.140532 146.670545 
L 115.17316 146.670545 
L 115.303675 140.805818 
L 115.336303 142.272 
L 115.368932 142.272 
L 115.499446 144.471273 
L 115.597332 143.005091 
L 115.629961 143.738182 
L 115.662589 142.272 
L 115.695218 142.272 
L 115.727847 143.738182 
L 115.760475 142.272 
L 115.793104 141.538909 
L 115.825732 142.272 
L 115.858361 143.005091 
L 115.988875 140.072727 
L 116.021504 140.072727 
L 116.086761 140.805818 
L 116.11939 140.072727 
L 116.152018 140.072727 
L 116.478304 145.204364 
L 116.543561 145.204364 
L 116.902476 155.467636 
L 117.098248 161.332364 
L 117.130876 161.332364 
L 117.228762 162.798545 
L 117.261391 162.065455 
L 117.457162 170.129455 
L 117.555048 169.396364 
L 117.652934 170.862545 
L 117.718191 170.129455 
L 117.75082 171.595636 
L 117.816077 170.129455 
L 117.848705 170.862545 
L 118.011848 167.197091 
L 118.109734 167.197091 
L 118.240249 165.730909 
L 118.338134 165.730909 
L 118.43602 166.464 
L 118.501277 163.531636 
L 118.566534 164.264727 
L 118.631792 164.264727 
L 118.794935 161.332364 
L 118.925449 163.531636 
L 119.023335 162.798545 
L 119.088592 162.065455 
L 119.219106 164.997818 
L 119.284364 164.997818 
L 119.447507 163.531636 
L 119.480135 163.531636 
L 119.675907 166.464 
L 119.741164 164.997818 
L 119.773793 166.464 
L 119.806421 166.464 
L 120.132707 173.061818 
L 120.165336 172.328727 
L 120.197964 170.862545 
L 120.230593 172.328727 
L 120.393736 175.261091 
L 120.589508 170.862545 
L 120.622136 170.862545 
L 120.687393 171.595636 
L 120.720022 170.862545 
L 120.915794 168.663273 
L 121.078937 172.328727 
L 121.209451 170.862545 
L 121.372594 175.994182 
L 121.503108 175.261091 
L 121.535737 175.261091 
L 121.600994 177.460364 
L 121.666251 175.994182 
L 121.69888 174.528 
L 121.764137 175.261091 
L 121.829394 175.994182 
L 121.862023 175.261091 
L 121.959909 173.061818 
L 122.025166 173.794909 
L 122.188309 179.659636 
L 122.220937 181.125818 
L 122.286195 180.392727 
L 122.318823 180.392727 
L 122.416709 182.592 
L 122.449338 181.858909 
L 122.547223 183.325091 
L 122.677738 180.392727 
L 122.775624 182.592 
L 122.808252 181.858909 
L 122.971395 175.261091 
L 123.004024 175.994182 
L 123.069281 178.193455 
L 123.10191 177.460364 
L 123.297681 173.061818 
L 123.460824 177.460364 
L 123.591339 178.193455 
L 123.623967 178.193455 
L 123.819739 181.125818 
L 123.982882 178.193455 
L 124.24391 182.592 
L 124.276539 181.858909 
L 124.341796 182.592 
L 124.700711 189.189818 
L 124.765968 187.723636 
L 124.798597 189.189818 
L 124.929111 190.656 
L 125.124883 184.058182 
L 125.157511 184.791273 
L 125.222768 185.524364 
L 125.255397 184.791273 
L 125.451169 178.926545 
L 125.516426 181.125818 
L 125.549054 181.125818 
L 125.64694 184.058182 
L 125.679569 183.325091 
L 125.744826 183.325091 
L 125.777455 182.592 
L 125.810083 183.325091 
L 125.907969 186.990545 
L 126.005855 185.524364 
L 126.201626 181.858909 
L 126.234255 182.592 
L 126.299512 183.325091 
L 126.332141 181.858909 
L 126.397398 182.592 
L 126.495284 182.592 
L 126.560541 181.125818 
L 126.593169 181.858909 
L 126.723684 184.058182 
L 126.854198 182.592 
L 127.04997 186.990545 
L 127.115227 186.257455 
L 127.147856 186.257455 
L 127.539399 179.659636 
L 127.572027 179.659636 
L 127.702542 180.392727 
L 127.73517 179.659636 
L 127.833056 181.858909 
L 127.930942 179.659636 
L 127.963571 180.392727 
L 127.996199 179.659636 
L 128.028828 181.125818 
L 128.061456 180.392727 
L 128.126714 179.659636 
L 128.191971 181.858909 
L 128.257228 180.392727 
L 128.289857 181.125818 
L 128.420371 182.592 
L 128.6814 178.926545 
L 128.811914 180.392727 
L 128.877171 178.926545 
L 128.9098 179.659636 
L 128.942429 179.659636 
L 129.105571 182.592 
L 129.236086 181.125818 
L 129.529743 186.990545 
L 129.660258 185.524364 
L 129.725515 184.791273 
L 129.888658 188.456727 
L 130.019172 186.257455 
L 130.051801 186.990545 
L 130.149687 186.990545 
L 130.31283 191.389091 
L 130.378087 189.189818 
L 130.443344 189.922909 
L 130.508601 191.389091 
L 130.671744 187.723636 
L 130.76963 189.189818 
L 130.802259 188.456727 
L 130.932773 187.723636 
L 130.965402 187.723636 
L 131.161173 184.791273 
L 131.324316 187.723636 
L 131.454831 184.791273 
L 131.487459 185.524364 
L 131.683231 190.656 
L 131.846374 186.990545 
L 131.879002 186.990545 
L 131.944259 184.791273 
L 131.976888 186.257455 
L 132.009517 186.257455 
L 132.107402 185.524364 
L 132.17266 187.723636 
L 132.205288 186.257455 
L 132.237917 185.524364 
L 132.270545 186.257455 
L 132.40106 187.723636 
L 132.466317 189.189818 
L 132.498946 187.723636 
L 132.531574 187.723636 
L 132.694717 186.257455 
L 132.727346 186.257455 
L 132.825232 184.058182 
L 132.890489 184.791273 
L 132.923117 184.791273 
L 132.988375 184.058182 
L 133.08626 185.524364 
L 133.216775 184.791273 
L 133.314661 184.791273 
L 133.412546 189.189818 
L 133.445175 188.456727 
L 133.477804 188.456727 
L 133.640947 185.524364 
L 133.543061 189.189818 
L 133.673575 186.257455 
L 133.706204 186.990545 
L 133.738832 186.257455 
L 133.869347 184.791273 
L 133.901975 184.058182 
L 133.934604 184.791273 
L 134.065118 185.524364 
L 134.195633 184.058182 
L 134.326147 181.858909 
L 134.358776 182.592 
L 134.48929 184.791273 
L 134.521919 184.058182 
L 134.587176 183.325091 
L 134.619804 184.058182 
L 134.652433 184.058182 
L 134.815576 185.524364 
L 135.043976 182.592 
L 135.109233 182.592 
L 135.239748 185.524364 
L 135.370262 183.325091 
L 135.533405 186.990545 
L 135.631291 185.524364 
L 135.761805 188.456727 
L 135.794434 187.723636 
L 135.827063 189.189818 
L 135.859691 189.189818 
L 136.055463 193.588364 
L 136.088091 193.588364 
L 136.283863 191.389091 
L 136.316492 191.389091 
L 136.34912 192.122182 
L 136.381749 190.656 
L 136.479635 189.189818 
L 136.512263 189.922909 
L 136.642778 190.656 
L 136.805921 188.456727 
L 136.903806 190.656 
L 136.936435 189.922909 
L 137.001692 189.922909 
L 137.393235 179.659636 
L 137.458492 180.392727 
L 137.52375 181.858909 
L 137.556378 181.125818 
L 137.621635 178.193455 
L 137.686893 178.926545 
L 137.784778 178.193455 
L 137.882664 181.125818 
L 137.915293 180.392727 
L 138.078436 178.926545 
L 138.111064 178.926545 
L 138.274207 176.727273 
L 138.828894 186.990545 
L 138.894151 185.524364 
L 139.024665 189.922909 
L 139.057294 189.189818 
L 139.15518 188.456727 
L 139.253065 191.389091 
L 139.318323 190.656 
L 139.61198 186.257455 
L 139.807751 188.456727 
L 139.873009 188.456727 
L 139.938266 189.922909 
L 139.970894 189.189818 
L 140.199295 186.257455 
L 140.264552 186.257455 
L 140.29718 185.524364 
L 140.329809 186.990545 
L 140.362438 186.257455 
L 140.460323 188.456727 
L 140.525581 187.723636 
L 140.590838 186.257455 
L 140.623466 186.990545 
L 140.819238 189.189818 
L 140.949752 189.189818 
L 141.080267 192.122182 
L 141.145524 190.656 
L 141.178153 191.389091 
L 141.341296 193.588364 
L 141.634953 189.189818 
L 141.732839 190.656 
L 141.798096 189.189818 
L 141.863353 189.922909 
L 141.993868 190.656 
L 142.059125 188.456727 
L 142.091753 189.189818 
L 142.222268 190.656 
L 142.613811 184.058182 
L 142.646439 184.058182 
L 142.776954 186.257455 
L 142.809582 185.524364 
L 142.87484 184.791273 
L 142.907468 185.524364 
L 142.940097 185.524364 
L 143.201126 189.189818 
L 143.364269 186.257455 
L 143.429526 187.723636 
L 143.494783 186.990545 
L 143.592669 186.257455 
L 143.690555 189.189818 
L 143.723183 188.456727 
L 143.853698 186.990545 
L 143.918955 184.791273 
L 144.016841 185.524364 
L 144.277869 190.656 
L 144.310498 189.922909 
L 144.343127 189.922909 
L 144.408384 187.723636 
L 144.441012 188.456727 
L 144.50627 189.922909 
L 144.538898 189.189818 
L 144.636784 186.257455 
L 144.669413 187.723636 
L 144.702041 186.990545 
L 144.73467 188.456727 
L 144.767298 187.723636 
L 144.930441 189.189818 
L 144.96307 189.189818 
L 145.093584 189.922909 
L 145.126213 189.922909 
L 145.224099 190.656 
L 145.354613 188.456727 
L 145.41987 189.922909 
L 145.452499 189.189818 
L 145.485127 189.189818 
L 145.615642 192.122182 
L 145.746156 192.122182 
L 145.778785 191.389091 
L 145.844042 192.122182 
L 145.876671 192.122182 
L 146.072442 199.453091 
L 146.105071 198.72 
L 146.137699 198.72 
L 146.333471 202.385455 
L 146.3661 201.652364 
L 146.398728 200.919273 
L 146.431357 201.652364 
L 146.757643 206.784 
L 146.790271 206.784 
L 147.344958 217.047273 
L 147.377586 217.047273 
L 147.508101 218.513455 
L 147.638615 215.581091 
L 147.671243 215.581091 
L 147.703872 214.114909 
L 147.769129 215.581091 
L 147.867015 215.581091 
L 148.062787 217.780364 
L 148.160672 217.780364 
L 148.22593 218.513455 
L 148.258558 217.780364 
L 148.421701 217.780364 
L 148.584844 215.581091 
L 148.747987 217.047273 
L 148.91113 217.047273 
L 149.13953 213.381818 
L 149.270045 215.581091 
L 149.400559 214.848 
L 149.661588 214.848 
L 149.824731 213.381818 
L 149.889988 213.381818 
L 149.922617 212.648727 
L 149.987874 213.381818 
L 150.053131 213.381818 
L 150.183646 214.114909 
L 150.412046 214.114909 
L 150.575189 215.581091 
L 150.705703 214.848 
L 150.77096 216.314182 
L 150.803589 215.581091 
L 150.901475 215.581091 
L 151.031989 216.314182 
L 151.064618 216.314182 
L 151.195132 215.581091 
L 151.293018 215.581091 
L 151.456161 217.047273 
L 151.488789 217.047273 
L 151.554047 218.513455 
L 151.619304 217.780364 
L 151.684561 217.780364 
L 151.71719 217.047273 
L 151.782447 217.780364 
L 151.880333 217.780364 
L 151.912961 217.047273 
L 151.978218 217.780364 
L 152.043476 217.780364 
L 152.17399 217.047273 
L 152.206619 217.047273 
L 152.271876 217.780364 
L 152.304504 216.314182 
L 152.369762 217.047273 
L 152.40239 217.047273 
L 152.532905 217.780364 
L 152.663419 217.047273 
L 152.696048 217.047273 
L 152.826562 217.780364 
L 152.957076 217.780364 
L 153.022333 218.513455 
L 153.054962 217.780364 
L 153.185476 217.047273 
L 153.315991 217.047273 
L 153.479134 218.513455 
L 153.57702 217.780364 
L 153.707534 218.513455 
L 153.903306 218.513455 
L 154.03382 220.712727 
L 154.099077 220.712727 
L 154.164334 219.979636 
L 154.196963 220.712727 
L 154.653763 220.712727 
L 154.784278 221.445818 
L 154.816906 221.445818 
L 154.947421 219.979636 
L 154.980049 219.979636 
L 155.110564 218.513455 
L 155.20845 219.979636 
L 155.241078 219.246545 
L 155.306335 219.246545 
L 155.371593 219.979636 
L 155.404221 219.246545 
L 155.534735 219.246545 
L 155.66525 217.047273 
L 155.730507 217.047273 
L 155.828393 217.780364 
L 155.958907 217.047273 
L 156.12205 217.047273 
L 156.252565 216.314182 
L 156.35045 216.314182 
L 156.448336 215.581091 
L 156.480965 216.314182 
L 156.546222 215.581091 
L 156.611479 215.581091 
L 156.741994 216.314182 
L 156.905137 214.848 
L 157.003022 214.848 
L 157.133537 215.581091 
L 157.166165 215.581091 
L 157.198794 216.314182 
L 157.264051 215.581091 
L 157.394566 214.848 
L 157.427194 214.848 
L 157.459823 213.381818 
L 157.52508 214.114909 
L 157.557709 214.114909 
L 157.688223 213.381818 
L 157.720852 213.381818 
L 157.883995 211.915636 
L 157.949252 211.915636 
L 158.145023 214.114909 
L 158.340795 211.915636 
L 158.438681 211.915636 
L 158.601824 210.449455 
L 158.830224 210.449455 
L 158.960738 212.648727 
L 158.993367 211.915636 
L 159.058624 212.648727 
L 159.091253 214.114909 
L 159.15651 213.381818 
L 159.319653 211.915636 
L 159.352281 211.915636 
L 159.548053 214.114909 
L 159.580682 214.114909 
L 159.743825 212.648727 
L 159.809082 214.114909 
L 159.874339 213.381818 
L 159.906968 213.381818 
L 160.070111 214.848 
L 160.135368 214.848 
L 160.298511 213.381818 
L 160.331139 213.381818 
L 160.461654 212.648727 
L 160.592168 212.648727 
L 160.624797 213.381818 
L 160.657425 211.915636 
L 160.78794 211.915636 
L 160.951083 213.381818 
L 161.146854 213.381818 
L 161.277369 212.648727 
L 161.407883 213.381818 
L 161.538397 212.648727 
L 161.571026 212.648727 
L 161.70154 211.915636 
L 161.734169 211.915636 
L 161.929941 214.848 
L 162.060455 214.114909 
L 162.158341 214.114909 
L 162.354112 211.915636 
L 162.451998 211.915636 
L 162.549884 213.381818 
L 162.582513 212.648727 
L 162.64777 212.648727 
L 162.810913 210.449455 
L 162.87617 211.182545 
L 162.908799 210.449455 
L 163.039313 210.449455 
L 163.137199 212.648727 
L 163.169827 211.915636 
L 163.202456 211.182545 
L 163.267713 211.915636 
L 163.300342 211.915636 
L 163.365599 214.114909 
L 163.430856 213.381818 
L 163.463485 213.381818 
L 163.56137 210.449455 
L 163.593999 211.182545 
L 163.659256 211.182545 
L 163.724513 211.915636 
L 163.757142 211.182545 
L 163.789771 210.449455 
L 163.822399 211.182545 
L 163.952914 212.648727 
L 163.985542 211.915636 
L 164.050799 212.648727 
L 164.083428 212.648727 
L 164.181314 211.915636 
L 164.442343 215.581091 
L 164.5076 214.848 
L 164.540228 215.581091 
L 164.605486 215.581091 
L 164.801257 213.381818 
L 164.833886 214.114909 
L 164.899143 213.381818 
L 164.931772 213.381818 
L 164.997029 212.648727 
L 165.029657 213.381818 
L 165.094915 213.381818 
L 165.323315 216.314182 
L 165.519086 216.314182 
L 165.714858 214.114909 
L 165.975887 214.114909 
L 166.171658 211.915636 
L 166.204287 211.915636 
L 166.334801 211.182545 
L 166.661087 216.314182 
L 166.726344 216.314182 
L 166.82423 217.780364 
L 166.856859 217.047273 
L 166.922116 217.780364 
L 167.05263 219.246545 
L 167.183145 218.513455 
L 167.215773 218.513455 
L 167.378916 222.178909 
L 167.411545 222.178909 
L 167.607317 219.979636 
L 167.639945 220.712727 
L 167.705202 219.979636 
L 167.737831 219.979636 
L 167.900974 221.445818 
L 168.031488 221.445818 
L 168.292517 217.780364 
L 168.357774 217.780364 
L 168.520917 216.314182 
L 168.553546 216.314182 
L 168.618803 214.848 
L 168.68406 215.581091 
L 168.781946 215.581091 
L 168.879832 217.047273 
L 168.91246 216.314182 
L 168.945089 216.314182 
L 169.042975 214.848 
L 169.075603 215.581091 
L 169.238746 217.047273 
L 169.271375 217.047273 
L 169.434518 218.513455 
L 169.467147 218.513455 
L 169.532404 217.047273 
L 169.597661 217.780364 
L 169.695547 217.780364 
L 169.760804 218.513455 
L 169.793433 217.780364 
L 169.891318 217.780364 
L 170.021833 217.047273 
L 170.31549 217.047273 
L 170.446005 217.780364 
L 170.576519 217.047273 
L 170.707033 217.047273 
L 171.000691 212.648727 
L 171.065948 212.648727 
L 171.229091 214.114909 
L 171.26172 214.114909 
L 171.359605 214.848 
L 171.49012 214.114909 
L 171.653263 215.581091 
L 171.685891 215.581091 
L 171.816406 216.314182 
L 171.849034 216.314182 
L 171.94692 217.047273 
L 171.979549 216.314182 
L 172.044806 217.047273 
L 172.077434 217.047273 
L 172.110063 217.780364 
L 172.17532 217.047273 
L 172.305835 217.047273 
L 172.338463 216.314182 
L 172.371092 217.780364 
L 172.40372 217.047273 
L 172.697378 221.445818 
L 172.730006 221.445818 
L 172.860521 220.712727 
L 172.893149 220.712727 
L 172.958407 219.979636 
L 172.991035 220.712727 
L 173.056292 222.178909 
L 173.12155 221.445818 
L 173.219435 220.712727 
L 173.317321 222.178909 
L 173.34995 221.445818 
L 173.57835 217.780364 
L 173.610979 218.513455 
L 173.676236 217.780364 
L 173.741493 217.780364 
L 173.969893 221.445818 
L 174.165665 219.246545 
L 174.361436 219.246545 
L 174.557208 221.445818 
L 174.687722 218.513455 
L 174.785608 221.445818 
L 174.818237 220.712727 
L 174.850865 221.445818 
L 174.883494 220.712727 
L 175.014008 219.246545 
L 175.144523 220.712727 
L 175.307666 222.178909 
L 175.470809 222.178909 
L 175.633952 219.979636 
L 175.797095 221.445818 
L 175.862352 221.445818 
L 176.058123 219.246545 
L 176.090752 219.246545 
L 176.188638 217.780364 
L 176.221266 218.513455 
L 176.286524 218.513455 
L 176.319152 219.246545 
L 176.351781 217.780364 
L 176.384409 217.780364 
L 176.514924 216.314182 
L 176.61281 216.314182 
L 176.775952 217.780364 
L 176.971724 215.581091 
L 177.004353 215.581091 
L 177.167496 214.114909 
L 177.330639 215.581091 
L 177.363267 215.581091 
L 177.493782 214.848 
L 177.624296 215.581091 
L 177.689553 215.581091 
L 177.75481 214.848 
L 177.787439 215.581091 
L 177.950582 215.581091 
L 178.048468 217.047273 
L 178.081096 216.314182 
L 178.178982 216.314182 
L 178.276868 217.780364 
L 178.309497 217.047273 
L 178.440011 216.314182 
L 178.603154 217.780364 
L 178.635783 217.780364 
L 178.766297 219.246545 
L 178.831554 218.513455 
L 178.864183 219.246545 
L 178.896811 219.246545 
L 179.027326 218.513455 
L 179.092583 218.513455 
L 179.223097 217.047273 
L 179.451497 219.979636 
L 179.647269 219.979636 
L 179.679898 219.246545 
L 179.745155 219.979636 
L 179.908298 219.979636 
L 180.071441 222.912 
L 180.104069 222.178909 
L 180.234584 219.979636 
L 180.267212 220.712727 
L 180.33247 220.712727 
L 180.397727 219.979636 
L 180.462984 221.445818 
L 180.495613 220.712727 
L 180.626127 220.712727 
L 180.756641 222.178909 
L 180.78927 220.712727 
L 180.854527 222.178909 
L 180.952413 222.178909 
L 181.01767 220.712727 
L 181.050299 221.445818 
L 181.180813 222.178909 
L 181.24607 222.178909 
L 181.441842 224.378182 
L 181.572356 222.178909 
L 181.604985 222.178909 
L 181.702871 219.979636 
L 181.735499 220.712727 
L 181.866014 224.378182 
L 181.898642 223.645091 
L 181.963899 222.912 
L 181.996528 223.645091 
L 182.159671 223.645091 
L 182.257557 224.378182 
L 182.4207 222.912 
L 182.485957 222.912 
L 182.616471 223.645091 
L 182.812243 221.445818 
L 182.8775 221.445818 
L 183.040643 219.979636 
L 183.073272 219.979636 
L 183.203786 221.445818 
L 183.236415 220.712727 
L 183.301672 221.445818 
L 183.366929 222.178909 
L 183.399558 221.445818 
L 183.432186 221.445818 
L 183.464815 222.178909 
L 183.497444 220.712727 
L 183.530072 220.712727 
L 183.660587 221.445818 
L 183.954244 221.445818 
L 184.117387 225.111273 
L 184.150016 224.378182 
L 184.182644 223.645091 
L 184.247901 224.378182 
L 184.378416 225.111273 
L 184.50893 225.111273 
L 184.541559 225.844364 
L 184.606816 225.111273 
L 184.704702 223.645091 
L 184.73733 225.111273 
L 184.802587 223.645091 
L 184.835216 222.912 
L 184.900473 223.645091 
L 184.933102 223.645091 
L 185.096245 221.445818 
L 185.226759 222.178909 
L 185.455159 219.246545 
L 185.520417 219.979636 
L 185.553045 219.246545 
L 185.585674 219.246545 
L 185.814074 216.314182 
L 185.846703 216.314182 
L 185.977217 215.581091 
L 186.14036 215.581091 
L 186.36876 218.513455 
L 186.401389 218.513455 
L 186.564532 219.979636 
L 186.59716 219.979636 
L 186.695046 219.246545 
L 186.825561 219.979636 
L 186.858189 219.979636 
L 187.086589 222.912 
L 187.151847 222.912 
L 187.282361 223.645091 
L 187.380247 223.645091 
L 187.510761 224.378182 
L 187.54339 224.378182 
L 187.673904 225.111273 
L 187.739161 225.111273 
L 187.837047 225.844364 
L 187.967561 225.111273 
L 188.00019 225.111273 
L 188.163333 226.577455 
L 188.22859 226.577455 
L 188.326476 228.776727 
L 188.359105 228.043636 
L 188.391733 228.776727 
L 188.424362 228.043636 
L 188.620133 225.844364 
L 188.652762 225.844364 
L 188.750648 224.378182 
L 188.783276 225.111273 
L 188.815905 225.111273 
L 188.881162 224.378182 
L 188.913791 225.111273 
L 189.076934 225.111273 
L 189.109562 225.844364 
L 189.17482 225.111273 
L 189.240077 223.645091 
L 189.272705 224.378182 
L 189.370591 225.111273 
L 189.533734 223.645091 
L 189.566363 223.645091 
L 189.696877 224.378182 
L 189.892649 222.178909 
L 189.925277 222.178909 
L 190.055792 220.712727 
L 190.218935 222.912 
L 190.349449 222.178909 
L 190.382078 222.178909 
L 190.512592 220.712727 
L 190.708364 218.513455 
L 190.871507 220.712727 
L 191.03465 217.780364 
L 191.067278 218.513455 
L 191.132535 217.780364 
L 191.295678 214.114909 
L 191.426193 213.381818 
L 191.621964 215.581091 
L 191.654593 215.581091 
L 191.915622 219.246545 
L 192.013508 219.246545 
L 192.144022 219.979636 
L 192.176651 219.979636 
L 192.405051 224.378182 
L 192.437679 223.645091 
L 192.502937 223.645091 
L 192.600822 225.844364 
L 192.633451 225.111273 
L 192.959737 230.242909 
L 193.090251 228.043636 
L 193.188137 228.776727 
L 193.383909 226.577455 
L 193.416537 226.577455 
L 193.547052 223.645091 
L 193.612309 224.378182 
L 193.644937 224.378182 
L 193.775452 225.111273 
L 193.840709 225.111273 
L 193.873338 225.844364 
L 193.938595 225.111273 
L 194.101738 223.645091 
L 194.199624 223.645091 
L 194.264881 225.111273 
L 194.297509 223.645091 
L 194.362767 223.645091 
L 194.460652 222.912 
L 194.623795 224.378182 
L 194.656424 224.378182 
L 194.786938 223.645091 
L 194.852196 224.378182 
L 194.884824 222.178909 
L 194.950081 225.111273 
L 195.178481 229.509818 
L 195.21111 228.776727 
L 195.308996 227.310545 
L 195.341624 228.776727 
L 195.406882 228.043636 
L 195.43951 228.043636 
L 195.602653 226.577455 
L 195.765796 226.577455 
L 195.863682 225.111273 
L 195.896311 225.844364 
L 195.961568 226.577455 
L 195.994196 225.111273 
L 196.059454 226.577455 
L 196.092082 226.577455 
L 196.124711 227.310545 
L 196.157339 226.577455 
L 196.287854 225.844364 
L 196.353111 225.844364 
L 196.418368 226.577455 
L 196.483625 225.111273 
L 196.516254 226.577455 
L 196.744654 223.645091 
L 196.777283 223.645091 
L 196.809911 222.912 
L 196.84254 223.645091 
L 197.005683 226.577455 
L 197.136197 226.577455 
L 197.234083 227.310545 
L 197.29934 225.111273 
L 197.364598 225.844364 
L 197.527741 227.310545 
L 197.592998 227.310545 
L 197.756141 225.844364 
L 197.788769 225.844364 
L 197.919284 227.310545 
L 197.951912 227.310545 
L 198.049798 226.577455 
L 198.180312 228.776727 
L 198.212941 228.776727 
L 198.24557 229.509818 
L 198.278198 228.043636 
L 198.310827 227.310545 
L 198.376084 228.043636 
L 198.408713 228.043636 
L 198.539227 229.509818 
L 198.637113 227.310545 
L 198.70237 228.043636 
L 198.734999 228.043636 
L 198.767627 228.776727 
L 198.832884 228.043636 
L 198.865513 228.043636 
L 198.93077 230.976 
L 198.996027 229.509818 
L 199.191799 229.509818 
L 199.257056 230.242909 
L 199.354942 228.043636 
L 199.420199 228.776727 
L 199.550714 227.310545 
L 199.583342 227.310545 
L 199.681228 228.776727 
L 199.877 226.577455 
L 200.040143 228.043636 
L 200.170657 225.844364 
L 200.3338 227.310545 
L 200.366429 227.310545 
L 200.529571 225.844364 
L 200.627457 228.043636 
L 200.660086 226.577455 
L 200.692714 226.577455 
L 200.7906 224.378182 
L 200.823229 225.111273 
L 200.921115 227.310545 
L 200.953743 226.577455 
L 201.051629 225.844364 
L 201.182143 228.043636 
L 201.214772 227.310545 
L 201.312658 226.577455 
L 201.443172 227.310545 
L 201.475801 227.310545 
L 201.541058 228.043636 
L 201.573687 227.310545 
L 201.671572 226.577455 
L 201.899973 229.509818 
L 201.932601 228.776727 
L 201.997858 229.509818 
L 202.030487 229.509818 
L 202.128373 231.709091 
L 202.161001 230.242909 
L 202.19363 230.242909 
L 202.258887 229.509818 
L 202.291516 230.242909 
L 202.519916 233.908364 
L 202.552545 233.175273 
L 202.585173 233.908364 
L 202.617802 235.374545 
L 202.65043 233.908364 
L 202.683059 233.175273 
L 202.748316 233.908364 
L 202.813573 233.908364 
L 202.878831 235.374545 
L 202.944088 234.641455 
L 202.976716 233.908364 
L 203.009345 234.641455 
L 203.237745 237.573818 
L 203.303002 237.573818 
L 203.433517 234.641455 
L 203.498774 235.374545 
L 203.531402 235.374545 
L 203.661917 236.107636 
L 203.759803 236.107636 
L 203.890317 237.573818 
L 204.020831 238.306909 
L 204.086089 237.573818 
L 204.118717 238.306909 
L 204.216603 238.306909 
L 204.249232 237.573818 
L 204.28186 238.306909 
L 204.412375 239.04 
L 204.51026 237.573818 
L 204.608146 239.773091 
L 204.673403 239.04 
L 204.738661 239.04 
L 204.901804 240.506182 
L 204.934432 240.506182 
L 205.064947 242.705455 
L 205.097575 242.705455 
L 205.195461 241.972364 
L 205.391233 244.171636 
L 205.45649 244.171636 
L 205.68489 247.104 
L 205.782776 247.104 
L 206.206947 254.434909 
L 206.402719 254.434909 
L 206.533233 256.634182 
L 206.565862 255.901091 
L 206.598491 255.901091 
L 206.761634 257.367273 
L 206.924777 257.367273 
L 207.055291 256.634182 
L 207.120548 256.634182 
L 207.251063 255.901091 
L 207.381577 255.901091 
L 207.512091 255.168 
L 207.805749 255.168 
L 207.871006 254.434909 
L 207.903635 255.168 
L 208.034149 255.168 
L 208.164663 254.434909 
L 208.327806 255.901091 
L 208.425692 255.901091 
L 208.556206 255.168 
L 208.588835 255.168 
L 208.751978 253.701818 
L 208.882492 254.434909 
L 209.013007 254.434909 
L 209.143521 255.168 
L 209.241407 255.168 
L 209.371921 254.434909 
L 209.437179 254.434909 
L 209.535064 255.168 
L 209.665579 254.434909 
L 209.730836 254.434909 
L 209.86135 253.701818 
L 210.024493 253.701818 
L 210.057122 252.968727 
L 210.122379 253.701818 
L 210.187636 253.701818 
L 210.350779 255.168 
L 210.742323 255.168 
L 210.872837 254.434909 
L 211.003351 255.168 
L 211.166494 255.168 
L 211.26438 255.901091 
L 211.362266 255.168 
L 211.460152 255.901091 
L 211.590666 255.168 
L 211.655923 255.168 
L 211.786438 255.901091 
L 211.916952 255.168 
L 212.047466 255.901091 
L 212.373752 255.901091 
L 212.406381 256.634182 
L 212.471638 255.901091 
L 212.66741 255.901091 
L 212.830553 254.434909 
L 212.89581 254.434909 
L 213.026324 255.168 
L 213.091582 255.168 
L 213.12421 255.901091 
L 213.254725 253.701818 
L 213.385239 252.968727 
L 213.417868 252.968727 
L 213.548382 253.701818 
L 213.842039 253.701818 
L 213.972554 252.968727 
L 214.037811 252.968727 
L 214.135697 253.701818 
L 214.266211 252.968727 
L 214.29884 252.968727 
L 214.461983 254.434909 
L 214.592497 253.701818 
L 214.625126 253.701818 
L 214.723011 252.235636 
L 214.75564 252.968727 
L 214.853526 254.434909 
L 215.049297 252.235636 
L 215.342955 252.235636 
L 215.473469 251.502545 
L 215.538726 252.235636 
L 215.571355 251.502545 
L 215.701869 250.769455 
L 215.767127 250.769455 
L 215.897641 251.502545 
L 216.093413 251.502545 
L 216.15867 252.235636 
L 216.191298 251.502545 
L 216.256556 251.502545 
L 216.354441 252.968727 
L 216.38707 252.235636 
L 216.419698 252.235636 
L 216.484956 251.502545 
L 216.517584 252.235636 
L 216.582841 252.235636 
L 216.61547 253.701818 
L 216.680727 252.968727 
L 216.745984 252.968727 
L 216.876499 252.235636 
L 216.974385 252.235636 
L 217.039642 252.968727 
L 217.07227 252.235636 
L 217.170156 252.235636 
L 217.333299 253.701818 
L 217.496442 253.701818 
L 217.626957 252.968727 
L 217.7901 252.968727 
L 217.822728 253.701818 
L 217.855357 252.968727 
L 217.985871 252.235636 
L 218.0185 252.235636 
L 218.116386 253.701818 
L 218.149014 252.968727 
L 218.2469 252.968727 
L 218.410043 254.434909 
L 218.638443 251.502545 
L 218.671072 251.502545 
L 218.7037 252.235636 
L 218.768958 251.502545 
L 218.801586 251.502545 
L 218.932101 250.769455 
L 219.029986 250.769455 
L 219.160501 250.036364 
L 219.291015 250.036364 
L 219.454158 247.837091 
L 219.584672 249.303273 
L 219.715187 248.570182 
L 219.910958 250.769455 
L 220.041473 249.303273 
L 220.302502 252.968727 
L 220.33513 252.968727 
L 220.498273 254.434909 
L 220.596159 254.434909 
L 220.661416 253.701818 
L 220.694045 254.434909 
L 220.922445 254.434909 
L 221.085588 255.901091 
L 221.216102 255.901091 
L 221.346617 256.634182 
L 221.50976 255.168 
L 221.672903 255.168 
L 221.901303 252.235636 
L 221.999189 252.235636 
L 222.162332 250.769455 
L 222.227589 250.769455 
L 222.260217 251.502545 
L 222.292846 250.769455 
L 222.390732 249.303273 
L 222.42336 250.036364 
L 222.455989 250.036364 
L 222.586503 249.303273 
L 222.651761 250.036364 
L 222.684389 249.303273 
L 222.814904 248.570182 
L 223.043304 248.570182 
L 223.173818 247.837091 
L 223.36959 250.036364 
L 223.402218 250.036364 
L 223.565361 251.502545 
L 223.630619 250.036364 
L 223.663247 250.769455 
L 223.793762 251.502545 
L 223.924276 251.502545 
L 224.05479 252.235636 
L 224.087419 252.235636 
L 224.152676 252.968727 
L 224.185305 252.235636 
L 224.28319 252.235636 
L 224.446333 253.701818 
L 224.544219 253.701818 
L 224.674734 252.968727 
L 224.739991 254.434909 
L 224.772619 252.968727 
L 225.196791 252.968727 
L 225.327306 254.434909 
L 225.392563 254.434909 
L 225.523077 253.701818 
L 225.68622 255.168 
L 225.784106 255.168 
L 225.881992 255.901091 
L 226.012506 255.168 
L 226.175649 255.168 
L 226.306164 255.901091 
L 226.371421 255.901091 
L 226.501935 257.367273 
L 226.63245 257.367273 
L 226.762964 256.634182 
L 226.795593 256.634182 
L 226.958735 255.168 
L 227.219764 255.168 
L 227.350279 254.434909 
L 227.382907 254.434909 
L 227.513422 253.701818 
L 227.54605 254.434909 
L 227.611307 253.701818 
L 227.872336 253.701818 
L 228.002851 252.968727 
L 228.100736 252.968727 
L 228.263879 251.502545 
L 228.394394 252.235636 
L 228.427022 251.502545 
L 228.49228 252.235636 
L 228.524908 252.235636 
L 228.655423 251.502545 
L 228.72068 252.235636 
L 228.753308 251.502545 
L 228.785937 251.502545 
L 228.851194 250.769455 
L 228.883823 251.502545 
L 228.981709 251.502545 
L 229.014337 250.769455 
L 229.079594 251.502545 
L 229.144852 251.502545 
L 229.275366 250.769455 
L 229.373252 250.769455 
L 229.503766 249.303273 
L 229.63428 250.036364 
L 229.830052 250.036364 
L 229.960566 250.769455 
L 230.025824 250.769455 
L 230.188967 252.235636 
L 230.221595 252.235636 
L 230.384738 253.701818 
L 230.417367 253.701818 
L 230.58051 255.168 
L 230.776281 255.168 
L 230.906796 255.901091 
L 231.004682 255.901091 
L 231.102567 257.367273 
L 231.233082 256.634182 
L 231.330968 256.634182 
L 231.461482 255.168 
L 231.494111 255.168 
L 231.657254 253.701818 
L 231.689882 253.701818 
L 231.820397 252.968727 
L 231.853025 252.968727 
L 231.98354 252.235636 
L 232.081425 252.235636 
L 232.21194 251.502545 
L 232.244568 251.502545 
L 232.277197 252.235636 
L 232.342454 251.502545 
L 232.472968 250.769455 
L 232.505597 251.502545 
L 232.538226 250.769455 
L 232.66874 250.036364 
L 232.733997 250.036364 
L 232.831883 250.769455 
L 232.962397 250.036364 
L 233.092912 251.502545 
L 233.190798 251.502545 
L 233.256055 250.769455 
L 233.288683 251.502545 
L 233.321312 251.502545 
L 233.353941 252.235636 
L 233.419198 251.502545 
L 233.484455 251.502545 
L 233.614969 252.235636 
L 233.778112 252.235636 
L 233.908627 251.502545 
L 234.07177 252.968727 
L 234.169656 252.968727 
L 234.30017 253.701818 
L 234.430684 253.701818 
L 234.463313 252.968727 
L 234.52857 253.701818 
L 234.593827 253.701818 
L 234.626456 252.968727 
L 234.691713 253.701818 
L 234.75697 253.701818 
L 234.920113 255.168 
L 234.952742 255.168 
L 235.083256 254.434909 
L 235.409542 254.434909 
L 235.540057 255.168 
L 235.670571 254.434909 
L 235.768457 254.434909 
L 235.801085 255.168 
L 235.866343 254.434909 
L 236.062114 254.434909 
L 236.127371 255.168 
L 236.225257 253.701818 
L 236.290514 254.434909 
L 236.323143 253.701818 
L 236.355772 253.701818 
L 236.518915 252.235636 
L 236.584172 252.235636 
L 236.747315 253.701818 
L 237.008344 253.701818 
L 237.138858 252.968727 
L 237.171487 252.968727 
L 237.269372 253.701818 
L 237.432515 252.235636 
L 237.465144 252.968727 
L 237.497772 251.502545 
L 237.758801 251.502545 
L 237.889316 252.968727 
L 237.921944 252.968727 
L 238.117716 255.168 
L 238.24823 255.168 
L 238.378745 254.434909 
L 238.639773 254.434909 
L 238.705031 255.168 
L 238.737659 254.434909 
L 238.835545 254.434909 
L 238.900802 252.968727 
L 238.966059 253.701818 
L 239.096574 253.701818 
L 239.227088 255.168 
L 239.390231 255.168 
L 239.520746 254.434909 
L 239.87966 254.434909 
L 240.010175 255.168 
L 240.33646 255.168 
L 240.532232 257.367273 
L 240.597489 257.367273 
L 240.728004 258.100364 
L 240.760632 258.100364 
L 240.891147 257.367273 
L 241.021661 257.367273 
L 241.152175 258.100364 
L 241.413204 254.434909 
L 241.478461 254.434909 
L 241.608976 253.701818 
L 242.392062 253.701818 
L 242.522577 254.434909 
L 242.555205 254.434909 
L 242.783605 251.502545 
L 243.044634 255.168 
L 243.109891 255.168 
L 243.240406 255.901091 
L 243.631949 255.901091 
L 243.795092 254.434909 
L 244.088749 254.434909 
L 244.186635 253.701818 
L 244.317149 254.434909 
L 244.349778 254.434909 
L 244.447664 255.901091 
L 244.480292 255.168 
L 244.676064 252.968727 
L 244.839207 252.968727 
L 244.969721 252.235636 
L 245.263379 252.235636 
L 245.426522 253.701818 
L 245.720179 253.701818 
L 245.818065 254.434909 
L 245.948579 253.701818 
L 246.013836 253.701818 
L 246.079094 252.968727 
L 246.111722 253.701818 
L 246.176979 253.701818 
L 246.209608 255.168 
L 246.274865 254.434909 
L 246.372751 254.434909 
L 246.601151 251.502545 
L 246.699037 251.502545 
L 246.829551 250.769455 
L 247.057952 250.769455 
L 247.188466 250.036364 
L 247.449495 250.036364 
L 247.612638 251.502545 
L 247.743152 250.769455 
L 247.873667 251.502545 
L 248.004181 251.502545 
L 248.167324 253.701818 
L 248.199952 252.968727 
L 248.26521 253.701818 
L 248.330467 253.701818 
L 248.460981 254.434909 
L 248.689381 254.434909 
L 248.819896 255.168 
L 248.852524 255.168 
L 248.983039 254.434909 
L 249.048296 254.434909 
L 249.17881 253.701818 
L 249.244068 253.701818 
L 249.309325 255.168 
L 249.374582 254.434909 
L 249.439839 254.434909 
L 249.570354 255.168 
L 249.700868 255.168 
L 249.831382 255.901091 
L 249.89664 255.901091 
L 250.027154 255.168 
L 250.483954 255.168 
L 250.614469 255.901091 
L 250.647097 255.901091 
L 250.679726 255.168 
L 250.744983 255.901091 
L 250.777612 255.901091 
L 250.908126 255.168 
L 251.267041 255.168 
L 251.430184 253.701818 
L 251.593327 255.168 
L 251.625955 255.168 
L 251.821727 252.968727 
L 251.952241 252.968727 
L 252.082756 252.235636 
L 252.115384 252.235636 
L 252.245899 251.502545 
L 252.278527 251.502545 
L 252.44167 252.968727 
L 252.572185 252.235636 
L 252.702699 252.968727 
L 252.767956 252.968727 
L 252.898471 252.235636 
L 253.061614 253.701818 
L 253.224757 253.701818 
L 253.257385 252.968727 
L 253.290014 253.701818 
L 253.322642 254.434909 
L 253.355271 253.701818 
L 253.387899 252.968727 
L 253.453157 253.701818 
L 253.583671 253.701818 
L 253.714185 254.434909 
L 253.746814 254.434909 
L 253.877328 255.168 
L 254.0731 255.168 
L 254.203614 255.901091 
L 254.660415 255.901091 
L 254.823558 254.434909 
L 254.856186 254.434909 
L 255.019329 255.901091 
L 255.149844 255.901091 
L 255.280358 255.168 
L 255.410873 255.168 
L 255.574016 253.701818 
L 255.900302 253.701818 
L 256.030816 252.968727 
L 256.16133 253.701818 
L 256.291845 253.701818 
L 256.454988 255.168 
L 256.520245 255.168 
L 256.650759 255.901091 
L 256.683388 255.901091 
L 256.781274 255.168 
L 256.846531 255.901091 
L 256.879159 255.168 
L 257.042302 255.168 
L 257.140188 255.901091 
L 257.303331 254.434909 
L 257.368588 254.434909 
L 257.531731 252.235636 
L 257.662246 252.968727 
L 257.727503 252.968727 
L 257.858017 252.235636 
L 257.988532 252.235636 
L 258.151675 250.769455 
L 258.477961 250.769455 
L 258.543218 251.502545 
L 258.575847 250.769455 
L 258.771618 250.769455 
L 258.869504 252.235636 
L 258.902132 251.502545 
L 259.000018 251.502545 
L 259.163161 252.968727 
L 259.358933 250.769455 
L 259.456819 251.502545 
L 259.587333 250.769455 
L 259.717847 250.769455 
L 259.848362 251.502545 
L 259.946248 251.502545 
L 260.076762 252.235636 
L 260.109391 252.235636 
L 260.272534 250.769455 
L 260.403048 250.769455 
L 260.500934 250.036364 
L 260.631448 250.769455 
L 260.664077 250.769455 
L 260.82722 252.235636 
L 260.859848 252.235636 
L 261.022991 253.701818 
L 261.186134 252.235636 
L 261.218763 252.235636 
L 261.349277 251.502545 
L 261.675563 251.502545 
L 261.74082 250.036364 
L 261.773449 250.769455 
L 261.806078 250.769455 
L 261.903963 252.235636 
L 262.001849 250.769455 
L 262.034478 251.502545 
L 262.164992 252.235636 
L 262.197621 252.235636 
L 262.328135 251.502545 
L 262.621793 251.502545 
L 262.654421 250.769455 
L 262.719678 251.502545 
L 262.752307 251.502545 
L 262.882821 253.701818 
L 262.91545 252.968727 
L 262.948079 252.235636 
L 263.013336 252.968727 
L 263.111222 252.968727 
L 263.241736 252.235636 
L 263.306993 252.235636 
L 263.37225 252.968727 
L 263.404879 252.235636 
L 263.470136 252.235636 
L 263.535393 251.502545 
L 263.568022 252.235636 
L 263.698536 252.968727 
L 263.829051 252.968727 
L 263.926937 253.701818 
L 264.090079 252.235636 
L 264.253222 252.235636 
L 264.285851 252.968727 
L 264.31848 252.235636 
L 264.448994 250.769455 
L 264.54688 250.769455 
L 264.579508 251.502545 
L 264.612137 250.769455 
L 264.742651 250.036364 
L 264.807909 250.769455 
L 264.840537 250.036364 
L 264.938423 250.036364 
L 265.068937 250.769455 
L 265.101566 250.769455 
L 265.23208 251.502545 
L 265.558366 251.502545 
L 265.721509 252.968727 
L 265.917281 252.968727 
L 266.113053 255.168 
L 266.145681 255.168 
L 266.341453 257.367273 
L 266.439339 257.367273 
L 266.504596 258.100364 
L 266.537224 257.367273 
L 266.63511 257.367273 
L 266.732996 258.100364 
L 266.86351 257.367273 
L 266.928767 257.367273 
L 267.059282 256.634182 
L 267.483454 256.634182 
L 267.613968 257.367273 
L 267.874997 257.367273 
L 268.005511 256.634182 
L 268.03814 256.634182 
L 268.136026 255.168 
L 268.168654 255.901091 
L 268.299169 255.901091 
L 268.560197 251.502545 
L 268.690712 252.235636 
L 269.049626 252.235636 
L 269.245398 250.036364 
L 269.408541 250.036364 
L 269.506427 249.303273 
L 269.636941 250.036364 
L 269.734827 249.303273 
L 269.865341 250.036364 
L 269.930598 250.036364 
L 270.224256 254.434909 
L 270.681056 254.434909 
L 270.844199 255.901091 
L 271.039971 255.901091 
L 271.170485 256.634182 
L 271.268371 256.634182 
L 271.431514 258.100364 
L 271.627286 258.100364 
L 271.7578 258.833455 
L 271.888314 258.833455 
L 272.051457 257.367273 
L 272.671401 257.367273 
L 272.736658 258.100364 
L 272.769286 257.367273 
L 272.899801 257.367273 
L 273.030315 256.634182 
L 273.519744 256.634182 
L 273.682887 258.100364 
L 273.780773 258.100364 
L 273.943916 256.634182 
L 274.107059 256.634182 
L 274.237573 255.901091 
L 274.302831 255.901091 
L 274.368088 255.168 
L 274.400716 255.901091 
L 274.498602 255.901091 
L 274.531231 255.168 
L 274.596488 255.901091 
L 275.412203 255.901091 
L 275.575346 257.367273 
L 275.607974 257.367273 
L 275.738489 256.634182 
L 275.869003 257.367273 
L 275.966889 257.367273 
L 276.097403 256.634182 
L 276.130032 256.634182 
L 276.260546 257.367273 
L 276.488947 257.367273 
L 276.619461 255.901091 
L 277.239404 255.901091 
L 277.304661 256.634182 
L 277.33729 255.901091 
L 277.598319 255.901091 
L 277.630947 256.634182 
L 277.663576 255.901091 
L 277.79409 255.168 
L 277.957233 255.168 
L 278.087748 254.434909 
L 278.120376 254.434909 
L 278.153005 255.901091 
L 278.218262 255.168 
L 278.250891 255.168 
L 278.414034 253.701818 
L 278.675063 253.701818 
L 278.838206 252.235636 
L 278.870834 252.235636 
L 278.936091 250.769455 
L 278.96872 251.502545 
L 279.066606 251.502545 
L 279.229749 250.036364 
L 279.262377 250.036364 
L 279.42552 251.502545 
L 279.556035 251.502545 
L 279.588663 250.769455 
L 279.653921 251.502545 
L 279.784435 251.502545 
L 279.914949 252.235636 
L 279.947578 252.235636 
L 280.078092 252.968727 
L 280.273864 252.968727 
L 280.306492 252.235636 
L 280.37175 252.968727 
L 280.404378 252.968727 
L 280.60015 255.168 
L 280.698036 255.168 
L 280.861179 256.634182 
L 281.024322 256.634182 
L 281.187465 254.434909 
L 281.317979 255.168 
L 281.448493 255.168 
L 281.579008 255.901091 
L 282.590494 255.901091 
L 282.655751 255.168 
L 282.68838 255.901091 
L 282.818894 256.634182 
L 282.982037 256.634182 
L 283.112552 255.901091 
L 283.536724 255.901091 
L 283.667238 256.634182 
L 283.732495 256.634182 
L 283.86301 257.367273 
L 284.221924 257.367273 
L 284.385067 258.833455 
L 284.613467 258.833455 
L 284.743982 259.566545 
L 285.331296 259.566545 
L 285.527068 257.367273 
L 285.820725 257.367273 
L 285.983868 255.901091 
L 286.114383 255.901091 
L 286.244897 255.168 
L 286.962726 255.168 
L 287.125869 256.634182 
L 287.289012 256.634182 
L 287.419527 257.367273 
L 287.452155 257.367273 
L 287.615298 258.833455 
L 287.647927 258.833455 
L 287.745813 257.367273 
L 287.778441 258.100364 
L 287.876327 258.100364 
L 288.03947 256.634182 
L 288.757299 256.634182 
L 288.887814 255.901091 
L 288.920442 255.901091 
L 289.050957 255.168 
L 289.083585 255.168 
L 289.2141 254.434909 
L 289.279357 254.434909 
L 289.409871 255.168 
L 289.507757 255.168 
L 289.638271 255.901091 
L 290.388729 255.901091 
L 290.519243 256.634182 
L 290.617129 256.634182 
L 290.715015 255.168 
L 290.747644 255.901091 
L 290.943415 255.901091 
L 291.07393 256.634182 
L 291.237073 256.634182 
L 291.367587 257.367273 
L 291.791759 257.367273 
L 291.922273 256.634182 
L 292.215931 256.634182 
L 292.248559 255.901091 
L 292.281188 256.634182 
L 292.411702 257.367273 
L 292.444331 257.367273 
L 292.574845 256.634182 
L 293.423189 256.634182 
L 293.553703 257.367273 
L 293.84736 257.367273 
L 293.945246 258.100364 
L 294.075761 257.367273 
L 294.206275 258.100364 
L 294.238904 258.100364 
L 294.369418 257.367273 
L 294.695704 257.367273 
L 294.858847 255.901091 
L 294.989361 255.901091 
L 295.185133 253.701818 
L 295.380905 253.701818 
L 295.511419 252.968727 
L 295.576676 252.968727 
L 295.70719 253.701818 
L 295.805076 253.701818 
L 295.870333 252.968727 
L 295.902962 253.701818 
L 296.261877 253.701818 
L 296.327134 252.968727 
L 296.359762 253.701818 
L 296.42502 253.701818 
L 296.555534 254.434909 
L 296.620791 254.434909 
L 296.816563 256.634182 
L 296.88182 256.634182 
L 297.012334 255.901091 
L 297.077592 256.634182 
L 297.11022 255.901091 
L 297.175477 255.901091 
L 297.305992 255.168 
L 297.371249 255.168 
L 297.436506 253.701818 
L 297.501763 254.434909 
L 297.893307 254.434909 
L 297.958564 255.168 
L 297.991192 254.434909 
L 298.51325 254.434909 
L 298.643764 255.168 
L 298.709021 255.168 
L 298.872164 256.634182 
L 299.002679 256.634182 
L 299.165822 258.100364 
L 299.361593 258.100364 
L 299.492108 257.367273 
L 299.589994 257.367273 
L 299.720508 258.100364 
L 299.883651 258.100364 
L 300.014165 257.367273 
L 300.731995 257.367273 
L 300.862509 256.634182 
L 300.993023 256.634182 
L 301.123538 257.367273 
L 301.286681 257.367273 
L 301.417195 256.634182 
L 301.515081 256.634182 
L 301.645595 257.367273 
L 302.363424 257.367273 
L 302.428682 258.100364 
L 302.559196 255.901091 
L 302.885482 255.901091 
L 302.918111 255.168 
L 302.983368 255.901091 
L 303.113882 255.901091 
L 303.244397 255.168 
L 303.374911 255.901091 
L 304.060111 255.901091 
L 304.190626 258.100364 
L 304.32114 257.367273 
L 304.386397 257.367273 
L 304.516912 256.634182 
L 304.647426 257.367273 
L 304.745312 256.634182 
L 304.875826 257.367273 
L 305.006341 256.634182 
L 305.49577 256.634182 
L 305.626284 255.901091 
L 305.789427 255.901091 
L 305.822056 255.168 
L 305.887313 255.901091 
L 306.017827 255.901091 
L 306.148342 256.634182 
L 306.278856 256.634182 
L 306.40937 257.367273 
L 306.964057 257.367273 
L 307.094571 256.634182 
L 307.1272 256.634182 
L 307.225085 257.367273 
L 307.3556 256.634182 
L 307.420857 256.634182 
L 307.584 258.100364 
L 307.747143 258.100364 
L 307.910286 256.634182 
L 308.595487 256.634182 
L 308.726001 257.367273 
L 308.856515 257.367273 
L 309.019658 258.833455 
L 309.084915 258.833455 
L 309.21543 258.100364 
L 309.378573 258.100364 
L 309.541716 259.566545 
L 310.259545 259.566545 
L 310.324802 260.299636 
L 310.357431 259.566545 
L 310.61846 259.566545 
L 310.748974 258.833455 
L 311.76046 258.833455 
L 311.890975 259.566545 
L 311.956232 258.100364 
L 312.021489 258.833455 
L 312.47829 258.833455 
L 312.641433 257.367273 
L 312.902461 257.367273 
L 313.032976 258.100364 
L 313.261376 258.100364 
L 313.424519 256.634182 
L 313.555033 256.634182 
L 313.685548 257.367273 
L 314.10972 257.367273 
L 314.142348 258.100364 
L 314.174977 257.367273 
L 314.240234 256.634182 
L 314.272862 257.367273 
L 314.533891 257.367273 
L 314.664406 256.634182 
L 314.892806 256.634182 
L 315.02332 257.367273 
L 315.088577 257.367273 
L 315.219092 256.634182 
L 315.316978 256.634182 
L 315.447492 255.901091 
L 315.708521 255.901091 
L 315.773778 255.168 
L 315.806407 255.901091 
L 315.936921 256.634182 
L 316.067435 256.634182 
L 316.19795 255.901091 
L 316.328464 255.901091 
L 316.458979 255.168 
L 316.720007 255.168 
L 316.752636 255.901091 
L 316.817893 255.168 
L 316.948407 255.168 
L 317.078922 255.901091 
L 317.242065 254.434909 
L 317.339951 254.434909 
L 317.405208 255.168 
L 317.437836 254.434909 
L 317.698865 254.434909 
L 317.82938 255.168 
L 317.959894 255.168 
L 318.090408 255.901091 
L 318.384066 255.901091 
L 318.449323 256.634182 
L 318.481952 255.901091 
L 318.677723 253.701818 
L 318.710352 253.701818 
L 318.873495 255.168 
L 319.036638 255.168 
L 319.167152 255.901091 
L 319.819724 255.901091 
L 319.950238 256.634182 
L 320.080753 256.634182 
L 320.309153 259.566545 
L 320.570182 259.566545 
L 320.733325 258.100364 
L 320.831211 258.100364 
L 320.961725 257.367273 
L 321.32064 257.367273 
L 321.451154 258.100364 
L 321.581668 257.367273 
L 321.679554 257.367273 
L 321.842697 258.833455 
L 321.875326 258.833455 
L 322.00584 258.100364 
L 322.201612 258.100364 
L 322.364755 259.566545 
L 322.46264 259.566545 
L 322.593155 260.299636 
L 322.952069 260.299636 
L 323.082584 259.566545 
L 323.310984 259.566545 
L 323.441498 258.833455 
L 323.669899 258.833455 
L 323.800413 259.566545 
L 323.930927 258.833455 
L 324.714014 258.833455 
L 324.844528 258.100364 
L 325.301328 258.100364 
L 325.431843 256.634182 
L 325.562357 257.367273 
L 326.051786 257.367273 
L 326.214929 258.833455 
L 326.345444 258.833455 
L 326.475958 259.566545 
L 326.867501 259.566545 
L 326.965387 258.833455 
L 327.063273 259.566545 
L 327.193787 258.833455 
L 327.422187 258.833455 
L 327.454816 258.100364 
L 327.520073 258.833455 
L 327.58533 258.833455 
L 327.650587 259.566545 
L 327.683216 258.833455 
L 327.715845 258.833455 
L 327.748473 259.566545 
L 327.781102 258.833455 
L 327.911616 255.901091 
L 328.042131 255.901091 
L 328.172645 255.168 
L 328.303159 255.168 
L 328.466302 253.701818 
L 328.498931 253.701818 
L 328.564188 254.434909 
L 328.596817 253.701818 
L 328.694703 253.701818 
L 328.825217 254.434909 
L 328.857846 254.434909 
L 328.98836 253.701818 
L 329.053617 253.701818 
L 329.086246 254.434909 
L 329.151503 253.701818 
L 329.184132 253.701818 
L 329.347275 252.235636 
L 329.379903 252.235636 
L 329.575675 254.434909 
L 329.673561 254.434909 
L 329.804075 255.168 
L 329.836704 255.168 
L 329.934589 254.434909 
L 331.729162 292.555636 
L 331.761791 292.555636 
L 331.892305 291.822545 
L 331.990191 291.822545 
L 332.120705 291.089455 
L 332.153334 291.089455 
L 332.283848 291.822545 
L 332.47962 291.822545 
L 332.577506 291.089455 
L 332.740649 292.555636 
L 333.034306 292.555636 
L 333.16482 291.822545 
L 333.230078 291.822545 
L 333.360592 292.555636 
L 333.393221 292.555636 
L 333.523735 293.288727 
L 333.621621 293.288727 
L 333.752135 294.021818 
L 333.980535 294.021818 
L 334.11105 293.288727 
L 334.241564 294.021818 
L 334.665736 294.021818 
L 334.79625 294.754909 
L 334.861508 294.754909 
L 334.992022 294.021818 
L 335.611965 294.021818 
L 335.644594 294.754909 
L 335.677222 294.021818 
L 335.840365 292.555636 
L 336.492937 292.555636 
L 336.623452 293.288727 
L 337.276024 293.288727 
L 337.471795 295.488 
L 338.972711 295.488 
L 339.103225 294.754909 
L 339.592654 294.754909 
L 339.755797 293.288727 
L 339.951569 293.288727 
L 340.114712 291.822545 
L 340.604141 291.822545 
L 340.734655 292.555636 
L 340.897798 292.555636 
L 341.028312 291.822545 
L 341.224084 291.822545 
L 341.354598 292.555636 
L 341.582999 292.555636 
L 341.746142 294.021818 
L 342.137685 294.021818 
L 342.268199 293.288727 
L 342.300828 293.288727 
L 342.431342 292.555636 
L 342.463971 292.555636 
L 342.529228 291.822545 
L 342.561857 292.555636 
L 342.888143 292.555636 
L 343.018657 293.288727 
L 343.769115 293.288727 
L 343.899629 294.021818 
L 343.932258 293.288727 
L 343.997515 294.021818 
L 344.095401 294.021818 
L 344.225915 294.754909 
L 344.976373 294.754909 
L 345.106887 294.021818 
L 345.49843 294.021818 
L 345.531059 293.288727 
L 345.596316 294.021818 
L 345.889974 294.021818 
L 346.020488 293.288727 
L 346.607803 293.288727 
L 346.738317 294.021818 
L 347.12986 294.021818 
L 347.260375 294.754909 
L 347.521403 294.754909 
L 347.651918 295.488 
L 348.010832 295.488 
L 348.206604 293.288727 
L 348.696033 293.288727 
L 348.826547 292.555636 
L 349.21809 292.555636 
L 349.413862 290.356364 
L 349.642262 290.356364 
L 349.838034 292.555636 
L 350.327463 292.555636 
L 350.457977 293.288727 
L 350.84952 293.288727 
L 351.045292 295.488 
L 351.077921 295.488 
L 351.208435 294.754909 
L 352.70935 294.754909 
L 352.839865 295.488 
L 353.068265 295.488 
L 353.198779 294.754909 
L 353.688208 294.754909 
L 353.818723 294.021818 
L 354.699695 294.021818 
L 354.797581 294.754909 
L 354.928095 294.021818 
L 355.319638 294.021818 
L 355.450153 294.754909 
L 355.51541 294.754909 
L 355.645924 294.021818 
L 356.396382 294.021818 
L 356.429011 293.288727 
L 356.494268 294.021818 
L 356.592153 294.021818 
L 356.722668 293.288727 
L 357.14684 293.288727 
L 357.277354 294.021818 
L 358.027812 294.021818 
L 358.158326 294.754909 
L 358.223583 294.754909 
L 358.354098 295.488 
L 358.974041 295.488 
L 359.104556 294.754909 
L 359.202441 294.754909 
L 359.332956 294.021818 
L 359.822385 294.021818 
L 359.952899 293.288727 
L 360.213928 293.288727 
L 360.344442 292.555636 
L 360.474957 292.555636 
L 360.605471 291.822545 
L 360.735985 292.555636 
L 360.833871 292.555636 
L 360.964386 293.288727 
L 361.453815 293.288727 
L 361.519072 294.021818 
L 361.5517 293.288727 
L 361.845358 293.288727 
L 361.975872 294.021818 
L 362.106386 294.021818 
L 362.236901 294.754909 
L 362.302158 294.754909 
L 362.432672 294.021818 
L 363.150502 294.021818 
L 363.281016 294.754909 
L 363.378902 294.754909 
L 363.509416 294.021818 
L 363.933588 294.021818 
L 364.064102 294.754909 
L 364.781931 294.754909 
L 364.912446 294.021818 
L 365.010332 294.021818 
L 365.140846 294.754909 
L 365.336618 294.754909 
L 365.467132 294.021818 
L 365.695532 294.021818 
L 365.826047 293.288727 
L 365.956561 293.288727 
L 366.087075 292.555636 
L 366.413361 292.555636 
L 366.543876 293.288727 
L 366.968048 293.288727 
L 367.098562 294.021818 
L 367.326962 294.021818 
L 367.457476 294.754909 
L 367.587991 294.754909 
L 367.718505 295.488 
L 368.175306 295.488 
L 368.371077 293.288727 
L 369.317307 293.288727 
L 369.447821 292.555636 
L 369.806735 292.555636 
L 370.002507 294.754909 
L 370.067764 294.754909 
L 370.198279 294.021818 
L 370.883479 294.021818 
L 370.948736 293.288727 
L 370.981365 294.021818 
L 371.079251 294.021818 
L 371.209765 293.288727 
L 371.34028 293.288727 
L 371.470794 292.555636 
L 371.699194 292.555636 
L 371.829709 293.288727 
L 371.862337 293.288727 
L 372.02548 291.822545 
L 372.090737 291.822545 
L 372.221252 291.089455 
L 372.286509 291.089455 
L 372.417023 290.356364 
L 372.514909 290.356364 
L 372.645423 291.089455 
L 372.710681 291.089455 
L 372.841195 291.822545 
L 372.971709 291.822545 
L 373.102224 292.555636 
L 373.330624 292.555636 
L 373.461138 291.822545 
L 373.493767 291.822545 
L 373.65691 293.288727 
L 373.722167 293.288727 
L 373.852682 294.021818 
L 373.917939 294.021818 
L 374.048453 294.754909 
L 374.244225 294.754909 
L 374.407368 293.288727 
L 374.603139 293.288727 
L 374.733654 292.555636 
L 374.962054 292.555636 
L 375.092568 293.288727 
L 375.777769 293.288727 
L 375.875655 292.555636 
L 376.038798 294.021818 
L 376.234569 294.021818 
L 376.365084 294.754909 
L 376.495598 294.754909 
L 376.626112 294.021818 
L 377.017656 294.021818 
L 377.180799 292.555636 
L 377.409199 292.555636 
L 377.441827 293.288727 
L 377.507085 292.555636 
L 378.127028 292.555636 
L 378.257542 293.288727 
L 378.649085 293.288727 
L 378.7796 294.754909 
L 378.910114 294.021818 
L 379.073257 294.021818 
L 379.203772 294.754909 
L 379.530058 294.754909 
L 379.660572 294.021818 
L 379.921601 294.021818 
L 380.052115 293.288727 
L 380.41103 293.288727 
L 380.541544 294.021818 
L 381.161487 294.021818 
L 381.292002 294.754909 
L 381.553031 294.754909 
L 381.683545 295.488 
L 382.205603 295.488 
L 382.368746 294.021818 
L 382.858175 294.021818 
L 382.988689 293.288727 
L 383.837032 293.288727 
L 384.000175 294.754909 
L 384.13069 294.021818 
L 384.489604 294.021818 
L 384.620119 294.754909 
L 385.631605 294.754909 
L 385.76212 295.488 
L 385.99052 295.488 
L 386.121034 294.754909 
L 386.153663 294.754909 
L 386.284177 294.021818 
L 386.610463 294.021818 
L 386.740978 293.288727 
L 387.295664 293.288727 
L 387.426178 292.555636 
L 387.458807 292.555636 
L 387.589321 291.822545 
L 387.785093 291.822545 
L 387.915607 292.555636 
L 388.241893 292.555636 
L 388.372407 293.288727 
L 388.763951 293.288727 
L 388.894465 292.555636 
L 388.927094 292.555636 
L 389.057608 293.288727 
L 389.090237 293.288727 
L 389.220751 294.021818 
L 389.25338 294.021818 
L 389.383894 294.754909 
L 390.395381 294.754909 
L 390.525895 295.488 
L 391.015324 295.488 
L 391.145838 294.754909 
L 392.02681 294.754909 
L 392.157325 294.021818 
L 392.646754 294.021818 
L 392.777268 294.754909 
L 393.038297 294.754909 
L 393.168811 294.021818 
L 393.65824 294.021818 
L 393.788755 294.754909 
L 394.506584 294.754909 
L 394.637098 294.021818 
L 394.669727 294.021818 
L 394.800241 294.754909 
L 395.224413 294.754909 
L 395.354927 294.021818 
L 395.615956 294.021818 
L 395.746471 293.288727 
L 396.138014 293.288727 
L 396.170642 294.021818 
L 396.235899 293.288727 
L 396.399042 293.288727 
L 396.529557 292.555636 
L 396.725328 292.555636 
L 396.855843 291.822545 
L 396.986357 292.555636 
L 397.018986 292.555636 
L 397.1495 291.822545 
L 397.247386 291.822545 
L 397.3779 292.555636 
L 397.802072 292.555636 
L 397.932587 293.288727 
L 398.030472 293.288727 
L 398.160987 294.021818 
L 398.356758 294.021818 
L 398.487273 294.754909 
L 398.487273 294.754909 
" style="fill:none;stroke:#1f77b4;stroke-linecap:square;stroke-width:1.5;"/>
   </g>
   <g id="patch_3">
    <path d="M 57.6 307.584 
L 57.6 41.472 
" style="fill:none;stroke:#000000;stroke-linecap:square;stroke-linejoin:miter;stroke-width:0.8;"/>
   </g>
   <g id="patch_4">
    <path d="M 414.72 307.584 
L 414.72 41.472 
" style="fill:none;stroke:#000000;stroke-linecap:square;stroke-linejoin:miter;stroke-width:0.8;"/>
   </g>
   <g id="patch_5">
    <path d="M 57.6 307.584 
L 414.72 307.584 
" style="fill:none;stroke:#000000;stroke-linecap:square;stroke-linejoin:miter;stroke-width:0.8;"/>
   </g>
   <g id="patch_6">
    <path d="M 57.6 41.472 
L 414.72 41.472 
" style="fill:none;stroke:#000000;stroke-linecap:square;stroke-linejoin:miter;stroke-width:0.8;"/>
   </g>
  </g>
 </g>
 <defs>
  <clipPath id="peaeb49acaa">
   <rect height="266.112" width="357.12" x="57.6" y="41.472"/>
  </clipPath>
 </defs>
</svg>
