<?xml version="1.0" encoding="utf-8" standalone="no"?>
<!DOCTYPE svg PUBLIC "-//W3C//DTD SVG 1.1//EN"
  "http://www.w3.org/Graphics/SVG/1.1/DTD/svg11.dtd">
<!-- Created with matplotlib (https://matplotlib.org/) -->
<svg height="345.6pt" version="1.1" viewBox="0 0 460.8 345.6" width="460.8pt" xmlns="http://www.w3.org/2000/svg" xmlns:xlink="http://www.w3.org/1999/xlink">
 <metadata>
  <rdf:RDF xmlns:cc="http://creativecommons.org/ns#" xmlns:dc="http://purl.org/dc/elements/1.1/" xmlns:rdf="http://www.w3.org/1999/02/22-rdf-syntax-ns#">
   <cc:Work>
    <dc:type rdf:resource="http://purl.org/dc/dcmitype/StillImage"/>
    <dc:date/>
    <dc:format>image/svg+xml</dc:format>
    <dc:creator>
     <cc:Agent>
      <dc:title>Matplotlib v3.3.2, https://matplotlib.org/</dc:title>
     </cc:Agent>
    </dc:creator>
   </cc:Work>
  </rdf:RDF>
 </metadata>
 <defs>
  <style type="text/css">*{stroke-linecap:butt;stroke-linejoin:round;}</style>
 </defs>
 <g id="figure_1">
  <g id="patch_1">
   <path d="M 0 345.6 
L 460.8 345.6 
L 460.8 0 
L 0 0 
z
" style="fill:#ffffff;"/>
  </g>
  <g id="axes_1">
   <g id="patch_2">
    <path d="M 57.6 307.584 
L 414.72 307.584 
L 414.72 41.472 
L 57.6 41.472 
z
" style="fill:#ffffff;"/>
   </g>
   <g id="matplotlib.axis_1">
    <g id="xtick_1">
     <g id="line2d_1">
      <path clip-path="url(#peaeb49acaa)" d="M 96.131468 307.584 
L 96.131468 41.472 
" style="fill:none;stroke:#b0b0b0;stroke-linecap:square;stroke-width:0.8;"/>
     </g>
     <g id="line2d_2">
      <defs>
       <path d="M 0 0 
L 0 3.5 
" id="maaddae8885" style="stroke:#000000;stroke-width:0.8;"/>
      </defs>
      <g>
       <use style="stroke:#000000;stroke-width:0.8;" x="96.131468" xlink:href="#maaddae8885" y="307.584"/>
      </g>
     </g>
     <g id="text_1">
      <!-- 0.2 -->
      <g transform="translate(88.179905 322.182437)scale(0.1 -0.1)">
       <defs>
        <path d="M 31.78125 66.40625 
Q 24.171875 66.40625 20.328125 58.90625 
Q 16.5 51.421875 16.5 36.375 
Q 16.5 21.390625 20.328125 13.890625 
Q 24.171875 6.390625 31.78125 6.390625 
Q 39.453125 6.390625 43.28125 13.890625 
Q 47.125 21.390625 47.125 36.375 
Q 47.125 51.421875 43.28125 58.90625 
Q 39.453125 66.40625 31.78125 66.40625 
z
M 31.78125 74.21875 
Q 44.046875 74.21875 50.515625 64.515625 
Q 56.984375 54.828125 56.984375 36.375 
Q 56.984375 17.96875 50.515625 8.265625 
Q 44.046875 -1.421875 31.78125 -1.421875 
Q 19.53125 -1.421875 13.0625 8.265625 
Q 6.59375 17.96875 6.59375 36.375 
Q 6.59375 54.828125 13.0625 64.515625 
Q 19.53125 74.21875 31.78125 74.21875 
z
" id="DejaVuSans-48"/>
        <path d="M 10.6875 12.40625 
L 21 12.40625 
L 21 0 
L 10.6875 0 
z
" id="DejaVuSans-46"/>
        <path d="M 19.1875 8.296875 
L 53.609375 8.296875 
L 53.609375 0 
L 7.328125 0 
L 7.328125 8.296875 
Q 12.9375 14.109375 22.625 23.890625 
Q 32.328125 33.6875 34.8125 36.53125 
Q 39.546875 41.84375 41.421875 45.53125 
Q 43.3125 49.21875 43.3125 52.78125 
Q 43.3125 58.59375 39.234375 62.25 
Q 35.15625 65.921875 28.609375 65.921875 
Q 23.96875 65.921875 18.8125 64.3125 
Q 13.671875 62.703125 7.8125 59.421875 
L 7.8125 69.390625 
Q 13.765625 71.78125 18.9375 73 
Q 24.125 74.21875 28.421875 74.21875 
Q 39.75 74.21875 46.484375 68.546875 
Q 53.21875 62.890625 53.21875 53.421875 
Q 53.21875 48.921875 51.53125 44.890625 
Q 49.859375 40.875 45.40625 35.40625 
Q 44.1875 33.984375 37.640625 27.21875 
Q 31.109375 20.453125 19.1875 8.296875 
z
" id="DejaVuSans-50"/>
       </defs>
       <use xlink:href="#DejaVuSans-48"/>
       <use x="63.623047" xlink:href="#DejaVuSans-46"/>
       <use x="95.410156" xlink:href="#DejaVuSans-50"/>
      </g>
     </g>
    </g>
    <g id="xtick_2">
     <g id="line2d_3">
      <path clip-path="url(#peaeb49acaa)" d="M 171.720419 307.584 
L 171.720419 41.472 
" style="fill:none;stroke:#b0b0b0;stroke-linecap:square;stroke-width:0.8;"/>
     </g>
     <g id="line2d_4">
      <g>
       <use style="stroke:#000000;stroke-width:0.8;" x="171.720419" xlink:href="#maaddae8885" y="307.584"/>
      </g>
     </g>
     <g id="text_2">
      <!-- 0.4 -->
      <g transform="translate(163.768857 322.182437)scale(0.1 -0.1)">
       <defs>
        <path d="M 37.796875 64.3125 
L 12.890625 25.390625 
L 37.796875 25.390625 
z
M 35.203125 72.90625 
L 47.609375 72.90625 
L 47.609375 25.390625 
L 58.015625 25.390625 
L 58.015625 17.1875 
L 47.609375 17.1875 
L 47.609375 0 
L 37.796875 0 
L 37.796875 17.1875 
L 4.890625 17.1875 
L 4.890625 26.703125 
z
" id="DejaVuSans-52"/>
       </defs>
       <use xlink:href="#DejaVuSans-48"/>
       <use x="63.623047" xlink:href="#DejaVuSans-46"/>
       <use x="95.410156" xlink:href="#DejaVuSans-52"/>
      </g>
     </g>
    </g>
    <g id="xtick_3">
     <g id="line2d_5">
      <path clip-path="url(#peaeb49acaa)" d="M 247.30937 307.584 
L 247.30937 41.472 
" style="fill:none;stroke:#b0b0b0;stroke-linecap:square;stroke-width:0.8;"/>
     </g>
     <g id="line2d_6">
      <g>
       <use style="stroke:#000000;stroke-width:0.8;" x="247.30937" xlink:href="#maaddae8885" y="307.584"/>
      </g>
     </g>
     <g id="text_3">
      <!-- 0.6 -->
      <g transform="translate(239.357808 322.182437)scale(0.1 -0.1)">
       <defs>
        <path d="M 33.015625 40.375 
Q 26.375 40.375 22.484375 35.828125 
Q 18.609375 31.296875 18.609375 23.390625 
Q 18.609375 15.53125 22.484375 10.953125 
Q 26.375 6.390625 33.015625 6.390625 
Q 39.65625 6.390625 43.53125 10.953125 
Q 47.40625 15.53125 47.40625 23.390625 
Q 47.40625 31.296875 43.53125 35.828125 
Q 39.65625 40.375 33.015625 40.375 
z
M 52.59375 71.296875 
L 52.59375 62.3125 
Q 48.875 64.0625 45.09375 64.984375 
Q 41.3125 65.921875 37.59375 65.921875 
Q 27.828125 65.921875 22.671875 59.328125 
Q 17.53125 52.734375 16.796875 39.40625 
Q 19.671875 43.65625 24.015625 45.921875 
Q 28.375 48.1875 33.59375 48.1875 
Q 44.578125 48.1875 50.953125 41.515625 
Q 57.328125 34.859375 57.328125 23.390625 
Q 57.328125 12.15625 50.6875 5.359375 
Q 44.046875 -1.421875 33.015625 -1.421875 
Q 20.359375 -1.421875 13.671875 8.265625 
Q 6.984375 17.96875 6.984375 36.375 
Q 6.984375 53.65625 15.1875 63.9375 
Q 23.390625 74.21875 37.203125 74.21875 
Q 40.921875 74.21875 44.703125 73.484375 
Q 48.484375 72.75 52.59375 71.296875 
z
" id="DejaVuSans-54"/>
       </defs>
       <use xlink:href="#DejaVuSans-48"/>
       <use x="63.623047" xlink:href="#DejaVuSans-46"/>
       <use x="95.410156" xlink:href="#DejaVuSans-54"/>
      </g>
     </g>
    </g>
    <g id="xtick_4">
     <g id="line2d_7">
      <path clip-path="url(#peaeb49acaa)" d="M 322.898322 307.584 
L 322.898322 41.472 
" style="fill:none;stroke:#b0b0b0;stroke-linecap:square;stroke-width:0.8;"/>
     </g>
     <g id="line2d_8">
      <g>
       <use style="stroke:#000000;stroke-width:0.8;" x="322.898322" xlink:href="#maaddae8885" y="307.584"/>
      </g>
     </g>
     <g id="text_4">
      <!-- 0.8 -->
      <g transform="translate(314.946759 322.182437)scale(0.1 -0.1)">
       <defs>
        <path d="M 31.78125 34.625 
Q 24.75 34.625 20.71875 30.859375 
Q 16.703125 27.09375 16.703125 20.515625 
Q 16.703125 13.921875 20.71875 10.15625 
Q 24.75 6.390625 31.78125 6.390625 
Q 38.8125 6.390625 42.859375 10.171875 
Q 46.921875 13.96875 46.921875 20.515625 
Q 46.921875 27.09375 42.890625 30.859375 
Q 38.875 34.625 31.78125 34.625 
z
M 21.921875 38.8125 
Q 15.578125 40.375 12.03125 44.71875 
Q 8.5 49.078125 8.5 55.328125 
Q 8.5 64.0625 14.71875 69.140625 
Q 20.953125 74.21875 31.78125 74.21875 
Q 42.671875 74.21875 48.875 69.140625 
Q 55.078125 64.0625 55.078125 55.328125 
Q 55.078125 49.078125 51.53125 44.71875 
Q 48 40.375 41.703125 38.8125 
Q 48.828125 37.15625 52.796875 32.3125 
Q 56.78125 27.484375 56.78125 20.515625 
Q 56.78125 9.90625 50.3125 4.234375 
Q 43.84375 -1.421875 31.78125 -1.421875 
Q 19.734375 -1.421875 13.25 4.234375 
Q 6.78125 9.90625 6.78125 20.515625 
Q 6.78125 27.484375 10.78125 32.3125 
Q 14.796875 37.15625 21.921875 38.8125 
z
M 18.3125 54.390625 
Q 18.3125 48.734375 21.84375 45.5625 
Q 25.390625 42.390625 31.78125 42.390625 
Q 38.140625 42.390625 41.71875 45.5625 
Q 45.3125 48.734375 45.3125 54.390625 
Q 45.3125 60.0625 41.71875 63.234375 
Q 38.140625 66.40625 31.78125 66.40625 
Q 25.390625 66.40625 21.84375 63.234375 
Q 18.3125 60.0625 18.3125 54.390625 
z
" id="DejaVuSans-56"/>
       </defs>
       <use xlink:href="#DejaVuSans-48"/>
       <use x="63.623047" xlink:href="#DejaVuSans-46"/>
       <use x="95.410156" xlink:href="#DejaVuSans-56"/>
      </g>
     </g>
    </g>
    <g id="xtick_5">
     <g id="line2d_9">
      <path clip-path="url(#peaeb49acaa)" d="M 398.487273 307.584 
L 398.487273 41.472 
" style="fill:none;stroke:#b0b0b0;stroke-linecap:square;stroke-width:0.8;"/>
     </g>
     <g id="line2d_10">
      <g>
       <use style="stroke:#000000;stroke-width:0.8;" x="398.487273" xlink:href="#maaddae8885" y="307.584"/>
      </g>
     </g>
     <g id="text_5">
      <!-- 1.0 -->
      <g transform="translate(390.53571 322.182437)scale(0.1 -0.1)">
       <defs>
        <path d="M 12.40625 8.296875 
L 28.515625 8.296875 
L 28.515625 63.921875 
L 10.984375 60.40625 
L 10.984375 69.390625 
L 28.421875 72.90625 
L 38.28125 72.90625 
L 38.28125 8.296875 
L 54.390625 8.296875 
L 54.390625 0 
L 12.40625 0 
z
" id="DejaVuSans-49"/>
       </defs>
       <use xlink:href="#DejaVuSans-49"/>
       <use x="63.623047" xlink:href="#DejaVuSans-46"/>
       <use x="95.410156" xlink:href="#DejaVuSans-48"/>
      </g>
     </g>
    </g>
    <g id="text_6">
     <!-- Sequence Identity -->
     <g transform="translate(190.742812 335.860562)scale(0.1 -0.1)">
      <defs>
       <path d="M 53.515625 70.515625 
L 53.515625 60.890625 
Q 47.90625 63.578125 42.921875 64.890625 
Q 37.9375 66.21875 33.296875 66.21875 
Q 25.25 66.21875 20.875 63.09375 
Q 16.5 59.96875 16.5 54.203125 
Q 16.5 49.359375 19.40625 46.890625 
Q 22.3125 44.4375 30.421875 42.921875 
L 36.375 41.703125 
Q 47.40625 39.59375 52.65625 34.296875 
Q 57.90625 29 57.90625 20.125 
Q 57.90625 9.515625 50.796875 4.046875 
Q 43.703125 -1.421875 29.984375 -1.421875 
Q 24.8125 -1.421875 18.96875 -0.25 
Q 13.140625 0.921875 6.890625 3.21875 
L 6.890625 13.375 
Q 12.890625 10.015625 18.65625 8.296875 
Q 24.421875 6.59375 29.984375 6.59375 
Q 38.421875 6.59375 43.015625 9.90625 
Q 47.609375 13.234375 47.609375 19.390625 
Q 47.609375 24.75 44.3125 27.78125 
Q 41.015625 30.8125 33.5 32.328125 
L 27.484375 33.5 
Q 16.453125 35.6875 11.515625 40.375 
Q 6.59375 45.0625 6.59375 53.421875 
Q 6.59375 63.09375 13.40625 68.65625 
Q 20.21875 74.21875 32.171875 74.21875 
Q 37.3125 74.21875 42.625 73.28125 
Q 47.953125 72.359375 53.515625 70.515625 
z
" id="DejaVuSans-83"/>
       <path d="M 56.203125 29.59375 
L 56.203125 25.203125 
L 14.890625 25.203125 
Q 15.484375 15.921875 20.484375 11.0625 
Q 25.484375 6.203125 34.421875 6.203125 
Q 39.59375 6.203125 44.453125 7.46875 
Q 49.3125 8.734375 54.109375 11.28125 
L 54.109375 2.78125 
Q 49.265625 0.734375 44.1875 -0.34375 
Q 39.109375 -1.421875 33.890625 -1.421875 
Q 20.796875 -1.421875 13.15625 6.1875 
Q 5.515625 13.8125 5.515625 26.8125 
Q 5.515625 40.234375 12.765625 48.109375 
Q 20.015625 56 32.328125 56 
Q 43.359375 56 49.78125 48.890625 
Q 56.203125 41.796875 56.203125 29.59375 
z
M 47.21875 32.234375 
Q 47.125 39.59375 43.09375 43.984375 
Q 39.0625 48.390625 32.421875 48.390625 
Q 24.90625 48.390625 20.390625 44.140625 
Q 15.875 39.890625 15.1875 32.171875 
z
" id="DejaVuSans-101"/>
       <path d="M 14.796875 27.296875 
Q 14.796875 17.390625 18.875 11.75 
Q 22.953125 6.109375 30.078125 6.109375 
Q 37.203125 6.109375 41.296875 11.75 
Q 45.40625 17.390625 45.40625 27.296875 
Q 45.40625 37.203125 41.296875 42.84375 
Q 37.203125 48.484375 30.078125 48.484375 
Q 22.953125 48.484375 18.875 42.84375 
Q 14.796875 37.203125 14.796875 27.296875 
z
M 45.40625 8.203125 
Q 42.578125 3.328125 38.25 0.953125 
Q 33.9375 -1.421875 27.875 -1.421875 
Q 17.96875 -1.421875 11.734375 6.484375 
Q 5.515625 14.40625 5.515625 27.296875 
Q 5.515625 40.1875 11.734375 48.09375 
Q 17.96875 56 27.875 56 
Q 33.9375 56 38.25 53.625 
Q 42.578125 51.265625 45.40625 46.390625 
L 45.40625 54.6875 
L 54.390625 54.6875 
L 54.390625 -20.796875 
L 45.40625 -20.796875 
z
" id="DejaVuSans-113"/>
       <path d="M 8.5 21.578125 
L 8.5 54.6875 
L 17.484375 54.6875 
L 17.484375 21.921875 
Q 17.484375 14.15625 20.5 10.265625 
Q 23.53125 6.390625 29.59375 6.390625 
Q 36.859375 6.390625 41.078125 11.03125 
Q 45.3125 15.671875 45.3125 23.6875 
L 45.3125 54.6875 
L 54.296875 54.6875 
L 54.296875 0 
L 45.3125 0 
L 45.3125 8.40625 
Q 42.046875 3.421875 37.71875 1 
Q 33.40625 -1.421875 27.6875 -1.421875 
Q 18.265625 -1.421875 13.375 4.4375 
Q 8.5 10.296875 8.5 21.578125 
z
M 31.109375 56 
z
" id="DejaVuSans-117"/>
       <path d="M 54.890625 33.015625 
L 54.890625 0 
L 45.90625 0 
L 45.90625 32.71875 
Q 45.90625 40.484375 42.875 44.328125 
Q 39.84375 48.1875 33.796875 48.1875 
Q 26.515625 48.1875 22.3125 43.546875 
Q 18.109375 38.921875 18.109375 30.90625 
L 18.109375 0 
L 9.078125 0 
L 9.078125 54.6875 
L 18.109375 54.6875 
L 18.109375 46.1875 
Q 21.34375 51.125 25.703125 53.5625 
Q 30.078125 56 35.796875 56 
Q 45.21875 56 50.046875 50.171875 
Q 54.890625 44.34375 54.890625 33.015625 
z
" id="DejaVuSans-110"/>
       <path d="M 48.78125 52.59375 
L 48.78125 44.1875 
Q 44.96875 46.296875 41.140625 47.34375 
Q 37.3125 48.390625 33.40625 48.390625 
Q 24.65625 48.390625 19.8125 42.84375 
Q 14.984375 37.3125 14.984375 27.296875 
Q 14.984375 17.28125 19.8125 11.734375 
Q 24.65625 6.203125 33.40625 6.203125 
Q 37.3125 6.203125 41.140625 7.25 
Q 44.96875 8.296875 48.78125 10.40625 
L 48.78125 2.09375 
Q 45.015625 0.34375 40.984375 -0.53125 
Q 36.96875 -1.421875 32.421875 -1.421875 
Q 20.0625 -1.421875 12.78125 6.34375 
Q 5.515625 14.109375 5.515625 27.296875 
Q 5.515625 40.671875 12.859375 48.328125 
Q 20.21875 56 33.015625 56 
Q 37.15625 56 41.109375 55.140625 
Q 45.0625 54.296875 48.78125 52.59375 
z
" id="DejaVuSans-99"/>
       <path id="DejaVuSans-32"/>
       <path d="M 9.8125 72.90625 
L 19.671875 72.90625 
L 19.671875 0 
L 9.8125 0 
z
" id="DejaVuSans-73"/>
       <path d="M 45.40625 46.390625 
L 45.40625 75.984375 
L 54.390625 75.984375 
L 54.390625 0 
L 45.40625 0 
L 45.40625 8.203125 
Q 42.578125 3.328125 38.25 0.953125 
Q 33.9375 -1.421875 27.875 -1.421875 
Q 17.96875 -1.421875 11.734375 6.484375 
Q 5.515625 14.40625 5.515625 27.296875 
Q 5.515625 40.1875 11.734375 48.09375 
Q 17.96875 56 27.875 56 
Q 33.9375 56 38.25 53.625 
Q 42.578125 51.265625 45.40625 46.390625 
z
M 14.796875 27.296875 
Q 14.796875 17.390625 18.875 11.75 
Q 22.953125 6.109375 30.078125 6.109375 
Q 37.203125 6.109375 41.296875 11.75 
Q 45.40625 17.390625 45.40625 27.296875 
Q 45.40625 37.203125 41.296875 42.84375 
Q 37.203125 48.484375 30.078125 48.484375 
Q 22.953125 48.484375 18.875 42.84375 
Q 14.796875 37.203125 14.796875 27.296875 
z
" id="DejaVuSans-100"/>
       <path d="M 18.3125 70.21875 
L 18.3125 54.6875 
L 36.8125 54.6875 
L 36.8125 47.703125 
L 18.3125 47.703125 
L 18.3125 18.015625 
Q 18.3125 11.328125 20.140625 9.421875 
Q 21.96875 7.515625 27.59375 7.515625 
L 36.8125 7.515625 
L 36.8125 0 
L 27.59375 0 
Q 17.1875 0 13.234375 3.875 
Q 9.28125 7.765625 9.28125 18.015625 
L 9.28125 47.703125 
L 2.6875 47.703125 
L 2.6875 54.6875 
L 9.28125 54.6875 
L 9.28125 70.21875 
z
" id="DejaVuSans-116"/>
       <path d="M 9.421875 54.6875 
L 18.40625 54.6875 
L 18.40625 0 
L 9.421875 0 
z
M 9.421875 75.984375 
L 18.40625 75.984375 
L 18.40625 64.59375 
L 9.421875 64.59375 
z
" id="DejaVuSans-105"/>
       <path d="M 32.171875 -5.078125 
Q 28.375 -14.84375 24.75 -17.8125 
Q 21.140625 -20.796875 15.09375 -20.796875 
L 7.90625 -20.796875 
L 7.90625 -13.28125 
L 13.1875 -13.28125 
Q 16.890625 -13.28125 18.9375 -11.515625 
Q 21 -9.765625 23.484375 -3.21875 
L 25.09375 0.875 
L 2.984375 54.6875 
L 12.5 54.6875 
L 29.59375 11.921875 
L 46.6875 54.6875 
L 56.203125 54.6875 
z
" id="DejaVuSans-121"/>
      </defs>
      <use xlink:href="#DejaVuSans-83"/>
      <use x="63.476562" xlink:href="#DejaVuSans-101"/>
      <use x="125" xlink:href="#DejaVuSans-113"/>
      <use x="188.476562" xlink:href="#DejaVuSans-117"/>
      <use x="251.855469" xlink:href="#DejaVuSans-101"/>
      <use x="313.378906" xlink:href="#DejaVuSans-110"/>
      <use x="376.757812" xlink:href="#DejaVuSans-99"/>
      <use x="431.738281" xlink:href="#DejaVuSans-101"/>
      <use x="493.261719" xlink:href="#DejaVuSans-32"/>
      <use x="525.048828" xlink:href="#DejaVuSans-73"/>
      <use x="554.541016" xlink:href="#DejaVuSans-100"/>
      <use x="618.017578" xlink:href="#DejaVuSans-101"/>
      <use x="679.541016" xlink:href="#DejaVuSans-110"/>
      <use x="742.919922" xlink:href="#DejaVuSans-116"/>
      <use x="782.128906" xlink:href="#DejaVuSans-105"/>
      <use x="809.912109" xlink:href="#DejaVuSans-116"/>
      <use x="849.121094" xlink:href="#DejaVuSans-121"/>
     </g>
    </g>
   </g>
   <g id="matplotlib.axis_2">
    <g id="ytick_1">
     <g id="line2d_11">
      <path clip-path="url(#peaeb49acaa)" d="M 57.6 307.584 
L 414.72 307.584 
" style="fill:none;stroke:#b0b0b0;stroke-linecap:square;stroke-width:0.8;"/>
     </g>
     <g id="line2d_12">
      <defs>
       <path d="M 0 0 
L -3.5 0 
" id="mb0cd59746e" style="stroke:#000000;stroke-width:0.8;"/>
      </defs>
      <g>
       <use style="stroke:#000000;stroke-width:0.8;" x="57.6" xlink:href="#mb0cd59746e" y="307.584"/>
      </g>
     </g>
     <g id="text_7">
      <!-- 0 -->
      <g transform="translate(44.2375 311.383219)scale(0.1 -0.1)">
       <use xlink:href="#DejaVuSans-48"/>
      </g>
     </g>
    </g>
    <g id="ytick_2">
     <g id="line2d_13">
      <path clip-path="url(#peaeb49acaa)" d="M 57.6 276.710568 
L 414.72 276.710568 
" style="fill:none;stroke:#b0b0b0;stroke-linecap:square;stroke-width:0.8;"/>
     </g>
     <g id="line2d_14">
      <g>
       <use style="stroke:#000000;stroke-width:0.8;" x="57.6" xlink:href="#mb0cd59746e" y="276.710568"/>
      </g>
     </g>
     <g id="text_8">
      <!-- 1000 -->
      <g transform="translate(25.15 280.509787)scale(0.1 -0.1)">
       <use xlink:href="#DejaVuSans-49"/>
       <use x="63.623047" xlink:href="#DejaVuSans-48"/>
       <use x="127.246094" xlink:href="#DejaVuSans-48"/>
       <use x="190.869141" xlink:href="#DejaVuSans-48"/>
      </g>
     </g>
    </g>
    <g id="ytick_3">
     <g id="line2d_15">
      <path clip-path="url(#peaeb49acaa)" d="M 57.6 245.837137 
L 414.72 245.837137 
" style="fill:none;stroke:#b0b0b0;stroke-linecap:square;stroke-width:0.8;"/>
     </g>
     <g id="line2d_16">
      <g>
       <use style="stroke:#000000;stroke-width:0.8;" x="57.6" xlink:href="#mb0cd59746e" y="245.837137"/>
      </g>
     </g>
     <g id="text_9">
      <!-- 2000 -->
      <g transform="translate(25.15 249.636356)scale(0.1 -0.1)">
       <use xlink:href="#DejaVuSans-50"/>
       <use x="63.623047" xlink:href="#DejaVuSans-48"/>
       <use x="127.246094" xlink:href="#DejaVuSans-48"/>
       <use x="190.869141" xlink:href="#DejaVuSans-48"/>
      </g>
     </g>
    </g>
    <g id="ytick_4">
     <g id="line2d_17">
      <path clip-path="url(#peaeb49acaa)" d="M 57.6 214.963705 
L 414.72 214.963705 
" style="fill:none;stroke:#b0b0b0;stroke-linecap:square;stroke-width:0.8;"/>
     </g>
     <g id="line2d_18">
      <g>
       <use style="stroke:#000000;stroke-width:0.8;" x="57.6" xlink:href="#mb0cd59746e" y="214.963705"/>
      </g>
     </g>
     <g id="text_10">
      <!-- 3000 -->
      <g transform="translate(25.15 218.762924)scale(0.1 -0.1)">
       <defs>
        <path d="M 40.578125 39.3125 
Q 47.65625 37.796875 51.625 33 
Q 55.609375 28.21875 55.609375 21.1875 
Q 55.609375 10.40625 48.1875 4.484375 
Q 40.765625 -1.421875 27.09375 -1.421875 
Q 22.515625 -1.421875 17.65625 -0.515625 
Q 12.796875 0.390625 7.625 2.203125 
L 7.625 11.71875 
Q 11.71875 9.328125 16.59375 8.109375 
Q 21.484375 6.890625 26.8125 6.890625 
Q 36.078125 6.890625 40.9375 10.546875 
Q 45.796875 14.203125 45.796875 21.1875 
Q 45.796875 27.640625 41.28125 31.265625 
Q 36.765625 34.90625 28.71875 34.90625 
L 20.21875 34.90625 
L 20.21875 43.015625 
L 29.109375 43.015625 
Q 36.375 43.015625 40.234375 45.921875 
Q 44.09375 48.828125 44.09375 54.296875 
Q 44.09375 59.90625 40.109375 62.90625 
Q 36.140625 65.921875 28.71875 65.921875 
Q 24.65625 65.921875 20.015625 65.03125 
Q 15.375 64.15625 9.8125 62.3125 
L 9.8125 71.09375 
Q 15.4375 72.65625 20.34375 73.4375 
Q 25.25 74.21875 29.59375 74.21875 
Q 40.828125 74.21875 47.359375 69.109375 
Q 53.90625 64.015625 53.90625 55.328125 
Q 53.90625 49.265625 50.4375 45.09375 
Q 46.96875 40.921875 40.578125 39.3125 
z
" id="DejaVuSans-51"/>
       </defs>
       <use xlink:href="#DejaVuSans-51"/>
       <use x="63.623047" xlink:href="#DejaVuSans-48"/>
       <use x="127.246094" xlink:href="#DejaVuSans-48"/>
       <use x="190.869141" xlink:href="#DejaVuSans-48"/>
      </g>
     </g>
    </g>
    <g id="ytick_5">
     <g id="line2d_19">
      <path clip-path="url(#peaeb49acaa)" d="M 57.6 184.090274 
L 414.72 184.090274 
" style="fill:none;stroke:#b0b0b0;stroke-linecap:square;stroke-width:0.8;"/>
     </g>
     <g id="line2d_20">
      <g>
       <use style="stroke:#000000;stroke-width:0.8;" x="57.6" xlink:href="#mb0cd59746e" y="184.090274"/>
      </g>
     </g>
     <g id="text_11">
      <!-- 4000 -->
      <g transform="translate(25.15 187.889492)scale(0.1 -0.1)">
       <use xlink:href="#DejaVuSans-52"/>
       <use x="63.623047" xlink:href="#DejaVuSans-48"/>
       <use x="127.246094" xlink:href="#DejaVuSans-48"/>
       <use x="190.869141" xlink:href="#DejaVuSans-48"/>
      </g>
     </g>
    </g>
    <g id="ytick_6">
     <g id="line2d_21">
      <path clip-path="url(#peaeb49acaa)" d="M 57.6 153.216842 
L 414.72 153.216842 
" style="fill:none;stroke:#b0b0b0;stroke-linecap:square;stroke-width:0.8;"/>
     </g>
     <g id="line2d_22">
      <g>
       <use style="stroke:#000000;stroke-width:0.8;" x="57.6" xlink:href="#mb0cd59746e" y="153.216842"/>
      </g>
     </g>
     <g id="text_12">
      <!-- 5000 -->
      <g transform="translate(25.15 157.016061)scale(0.1 -0.1)">
       <defs>
        <path d="M 10.796875 72.90625 
L 49.515625 72.90625 
L 49.515625 64.59375 
L 19.828125 64.59375 
L 19.828125 46.734375 
Q 21.96875 47.46875 24.109375 47.828125 
Q 26.265625 48.1875 28.421875 48.1875 
Q 40.625 48.1875 47.75 41.5 
Q 54.890625 34.8125 54.890625 23.390625 
Q 54.890625 11.625 47.5625 5.09375 
Q 40.234375 -1.421875 26.90625 -1.421875 
Q 22.3125 -1.421875 17.546875 -0.640625 
Q 12.796875 0.140625 7.71875 1.703125 
L 7.71875 11.625 
Q 12.109375 9.234375 16.796875 8.0625 
Q 21.484375 6.890625 26.703125 6.890625 
Q 35.15625 6.890625 40.078125 11.328125 
Q 45.015625 15.765625 45.015625 23.390625 
Q 45.015625 31 40.078125 35.4375 
Q 35.15625 39.890625 26.703125 39.890625 
Q 22.75 39.890625 18.8125 39.015625 
Q 14.890625 38.140625 10.796875 36.28125 
z
" id="DejaVuSans-53"/>
       </defs>
       <use xlink:href="#DejaVuSans-53"/>
       <use x="63.623047" xlink:href="#DejaVuSans-48"/>
       <use x="127.246094" xlink:href="#DejaVuSans-48"/>
       <use x="190.869141" xlink:href="#DejaVuSans-48"/>
      </g>
     </g>
    </g>
    <g id="ytick_7">
     <g id="line2d_23">
      <path clip-path="url(#peaeb49acaa)" d="M 57.6 122.34341 
L 414.72 122.34341 
" style="fill:none;stroke:#b0b0b0;stroke-linecap:square;stroke-width:0.8;"/>
     </g>
     <g id="line2d_24">
      <g>
       <use style="stroke:#000000;stroke-width:0.8;" x="57.6" xlink:href="#mb0cd59746e" y="122.34341"/>
      </g>
     </g>
     <g id="text_13">
      <!-- 6000 -->
      <g transform="translate(25.15 126.142629)scale(0.1 -0.1)">
       <use xlink:href="#DejaVuSans-54"/>
       <use x="63.623047" xlink:href="#DejaVuSans-48"/>
       <use x="127.246094" xlink:href="#DejaVuSans-48"/>
       <use x="190.869141" xlink:href="#DejaVuSans-48"/>
      </g>
     </g>
    </g>
    <g id="ytick_8">
     <g id="line2d_25">
      <path clip-path="url(#peaeb49acaa)" d="M 57.6 91.469979 
L 414.72 91.469979 
" style="fill:none;stroke:#b0b0b0;stroke-linecap:square;stroke-width:0.8;"/>
     </g>
     <g id="line2d_26">
      <g>
       <use style="stroke:#000000;stroke-width:0.8;" x="57.6" xlink:href="#mb0cd59746e" y="91.469979"/>
      </g>
     </g>
     <g id="text_14">
      <!-- 7000 -->
      <g transform="translate(25.15 95.269198)scale(0.1 -0.1)">
       <defs>
        <path d="M 8.203125 72.90625 
L 55.078125 72.90625 
L 55.078125 68.703125 
L 28.609375 0 
L 18.3125 0 
L 43.21875 64.59375 
L 8.203125 64.59375 
z
" id="DejaVuSans-55"/>
       </defs>
       <use xlink:href="#DejaVuSans-55"/>
       <use x="63.623047" xlink:href="#DejaVuSans-48"/>
       <use x="127.246094" xlink:href="#DejaVuSans-48"/>
       <use x="190.869141" xlink:href="#DejaVuSans-48"/>
      </g>
     </g>
    </g>
    <g id="ytick_9">
     <g id="line2d_27">
      <path clip-path="url(#peaeb49acaa)" d="M 57.6 60.596547 
L 414.72 60.596547 
" style="fill:none;stroke:#b0b0b0;stroke-linecap:square;stroke-width:0.8;"/>
     </g>
     <g id="line2d_28">
      <g>
       <use style="stroke:#000000;stroke-width:0.8;" x="57.6" xlink:href="#mb0cd59746e" y="60.596547"/>
      </g>
     </g>
     <g id="text_15">
      <!-- 8000 -->
      <g transform="translate(25.15 64.395766)scale(0.1 -0.1)">
       <use xlink:href="#DejaVuSans-56"/>
       <use x="63.623047" xlink:href="#DejaVuSans-48"/>
       <use x="127.246094" xlink:href="#DejaVuSans-48"/>
       <use x="190.869141" xlink:href="#DejaVuSans-48"/>
      </g>
     </g>
    </g>
    <g id="text_16">
     <!-- Number of Sequences -->
     <g transform="translate(19.070312 229.881125)rotate(-90)scale(0.1 -0.1)">
      <defs>
       <path d="M 9.8125 72.90625 
L 23.09375 72.90625 
L 55.421875 11.921875 
L 55.421875 72.90625 
L 64.984375 72.90625 
L 64.984375 0 
L 51.703125 0 
L 19.390625 60.984375 
L 19.390625 0 
L 9.8125 0 
z
" id="DejaVuSans-78"/>
       <path d="M 52 44.1875 
Q 55.375 50.25 60.0625 53.125 
Q 64.75 56 71.09375 56 
Q 79.640625 56 84.28125 50.015625 
Q 88.921875 44.046875 88.921875 33.015625 
L 88.921875 0 
L 79.890625 0 
L 79.890625 32.71875 
Q 79.890625 40.578125 77.09375 44.375 
Q 74.3125 48.1875 68.609375 48.1875 
Q 61.625 48.1875 57.5625 43.546875 
Q 53.515625 38.921875 53.515625 30.90625 
L 53.515625 0 
L 44.484375 0 
L 44.484375 32.71875 
Q 44.484375 40.625 41.703125 44.40625 
Q 38.921875 48.1875 33.109375 48.1875 
Q 26.21875 48.1875 22.15625 43.53125 
Q 18.109375 38.875 18.109375 30.90625 
L 18.109375 0 
L 9.078125 0 
L 9.078125 54.6875 
L 18.109375 54.6875 
L 18.109375 46.1875 
Q 21.1875 51.21875 25.484375 53.609375 
Q 29.78125 56 35.6875 56 
Q 41.65625 56 45.828125 52.96875 
Q 50 49.953125 52 44.1875 
z
" id="DejaVuSans-109"/>
       <path d="M 48.6875 27.296875 
Q 48.6875 37.203125 44.609375 42.84375 
Q 40.53125 48.484375 33.40625 48.484375 
Q 26.265625 48.484375 22.1875 42.84375 
Q 18.109375 37.203125 18.109375 27.296875 
Q 18.109375 17.390625 22.1875 11.75 
Q 26.265625 6.109375 33.40625 6.109375 
Q 40.53125 6.109375 44.609375 11.75 
Q 48.6875 17.390625 48.6875 27.296875 
z
M 18.109375 46.390625 
Q 20.953125 51.265625 25.265625 53.625 
Q 29.59375 56 35.59375 56 
Q 45.5625 56 51.78125 48.09375 
Q 58.015625 40.1875 58.015625 27.296875 
Q 58.015625 14.40625 51.78125 6.484375 
Q 45.5625 -1.421875 35.59375 -1.421875 
Q 29.59375 -1.421875 25.265625 0.953125 
Q 20.953125 3.328125 18.109375 8.203125 
L 18.109375 0 
L 9.078125 0 
L 9.078125 75.984375 
L 18.109375 75.984375 
z
" id="DejaVuSans-98"/>
       <path d="M 41.109375 46.296875 
Q 39.59375 47.171875 37.8125 47.578125 
Q 36.03125 48 33.890625 48 
Q 26.265625 48 22.1875 43.046875 
Q 18.109375 38.09375 18.109375 28.8125 
L 18.109375 0 
L 9.078125 0 
L 9.078125 54.6875 
L 18.109375 54.6875 
L 18.109375 46.1875 
Q 20.953125 51.171875 25.484375 53.578125 
Q 30.03125 56 36.53125 56 
Q 37.453125 56 38.578125 55.875 
Q 39.703125 55.765625 41.0625 55.515625 
z
" id="DejaVuSans-114"/>
       <path d="M 30.609375 48.390625 
Q 23.390625 48.390625 19.1875 42.75 
Q 14.984375 37.109375 14.984375 27.296875 
Q 14.984375 17.484375 19.15625 11.84375 
Q 23.34375 6.203125 30.609375 6.203125 
Q 37.796875 6.203125 41.984375 11.859375 
Q 46.1875 17.53125 46.1875 27.296875 
Q 46.1875 37.015625 41.984375 42.703125 
Q 37.796875 48.390625 30.609375 48.390625 
z
M 30.609375 56 
Q 42.328125 56 49.015625 48.375 
Q 55.71875 40.765625 55.71875 27.296875 
Q 55.71875 13.875 49.015625 6.21875 
Q 42.328125 -1.421875 30.609375 -1.421875 
Q 18.84375 -1.421875 12.171875 6.21875 
Q 5.515625 13.875 5.515625 27.296875 
Q 5.515625 40.765625 12.171875 48.375 
Q 18.84375 56 30.609375 56 
z
" id="DejaVuSans-111"/>
       <path d="M 37.109375 75.984375 
L 37.109375 68.5 
L 28.515625 68.5 
Q 23.6875 68.5 21.796875 66.546875 
Q 19.921875 64.59375 19.921875 59.515625 
L 19.921875 54.6875 
L 34.71875 54.6875 
L 34.71875 47.703125 
L 19.921875 47.703125 
L 19.921875 0 
L 10.890625 0 
L 10.890625 47.703125 
L 2.296875 47.703125 
L 2.296875 54.6875 
L 10.890625 54.6875 
L 10.890625 58.5 
Q 10.890625 67.625 15.140625 71.796875 
Q 19.390625 75.984375 28.609375 75.984375 
z
" id="DejaVuSans-102"/>
       <path d="M 44.28125 53.078125 
L 44.28125 44.578125 
Q 40.484375 46.53125 36.375 47.5 
Q 32.28125 48.484375 27.875 48.484375 
Q 21.1875 48.484375 17.84375 46.4375 
Q 14.5 44.390625 14.5 40.28125 
Q 14.5 37.15625 16.890625 35.375 
Q 19.28125 33.59375 26.515625 31.984375 
L 29.59375 31.296875 
Q 39.15625 29.25 43.1875 25.515625 
Q 47.21875 21.78125 47.21875 15.09375 
Q 47.21875 7.46875 41.1875 3.015625 
Q 35.15625 -1.421875 24.609375 -1.421875 
Q 20.21875 -1.421875 15.453125 -0.5625 
Q 10.6875 0.296875 5.421875 2 
L 5.421875 11.28125 
Q 10.40625 8.6875 15.234375 7.390625 
Q 20.0625 6.109375 24.8125 6.109375 
Q 31.15625 6.109375 34.5625 8.28125 
Q 37.984375 10.453125 37.984375 14.40625 
Q 37.984375 18.0625 35.515625 20.015625 
Q 33.0625 21.96875 24.703125 23.78125 
L 21.578125 24.515625 
Q 13.234375 26.265625 9.515625 29.90625 
Q 5.8125 33.546875 5.8125 39.890625 
Q 5.8125 47.609375 11.28125 51.796875 
Q 16.75 56 26.8125 56 
Q 31.78125 56 36.171875 55.265625 
Q 40.578125 54.546875 44.28125 53.078125 
z
" id="DejaVuSans-115"/>
      </defs>
      <use xlink:href="#DejaVuSans-78"/>
      <use x="74.804688" xlink:href="#DejaVuSans-117"/>
      <use x="138.183594" xlink:href="#DejaVuSans-109"/>
      <use x="235.595703" xlink:href="#DejaVuSans-98"/>
      <use x="299.072266" xlink:href="#DejaVuSans-101"/>
      <use x="360.595703" xlink:href="#DejaVuSans-114"/>
      <use x="401.708984" xlink:href="#DejaVuSans-32"/>
      <use x="433.496094" xlink:href="#DejaVuSans-111"/>
      <use x="494.677734" xlink:href="#DejaVuSans-102"/>
      <use x="529.882812" xlink:href="#DejaVuSans-32"/>
      <use x="561.669922" xlink:href="#DejaVuSans-83"/>
      <use x="625.146484" xlink:href="#DejaVuSans-101"/>
      <use x="686.669922" xlink:href="#DejaVuSans-113"/>
      <use x="750.146484" xlink:href="#DejaVuSans-117"/>
      <use x="813.525391" xlink:href="#DejaVuSans-101"/>
      <use x="875.048828" xlink:href="#DejaVuSans-110"/>
      <use x="938.427734" xlink:href="#DejaVuSans-99"/>
      <use x="993.408203" xlink:href="#DejaVuSans-101"/>
      <use x="1054.931641" xlink:href="#DejaVuSans-115"/>
     </g>
    </g>
   </g>
   <g id="patch_3">
    <path clip-path="url(#peaeb49acaa)" d="M 75.344506 307.584 
L 75.344506 306.256442 
L 81.807362 306.256442 
L 81.807362 305.42286 
L 88.270217 305.42286 
L 88.270217 304.373163 
L 94.733072 304.373163 
L 94.733072 304.064429 
L 101.195928 304.064429 
L 101.195928 302.242896 
L 107.658783 302.242896 
L 107.658783 300.513984 
L 114.121638 300.513984 
L 114.121638 300.39049 
L 120.584494 300.39049 
L 120.584494 303.663074 
L 127.047349 303.663074 
L 127.047349 304.373163 
L 133.510204 304.373163 
L 133.510204 305.793341 
L 139.97306 305.793341 
L 139.97306 306.040328 
L 146.435915 306.040328 
L 146.435915 306.781291 
L 152.89877 306.781291 
L 152.89877 306.812164 
L 159.361626 306.812164 
L 159.361626 306.843038 
L 165.824481 306.843038 
L 165.824481 306.997405 
L 172.287336 306.997405 
L 172.287336 306.873911 
L 178.750192 306.873911 
L 178.750192 306.50343 
L 185.213047 306.50343 
L 185.213047 306.873911 
L 191.675902 306.873911 
L 191.675902 307.028278 
L 198.138758 307.028278 
L 198.138758 306.781291 
L 204.601613 306.781291 
L 204.601613 306.59605 
L 211.064468 306.59605 
L 211.064468 306.997405 
L 217.527324 306.997405 
L 217.527324 306.873911 
L 223.990179 306.873911 
L 223.990179 307.213519 
L 230.453034 307.213519 
L 230.453034 306.966531 
L 236.91589 306.966531 
L 236.91589 307.275266 
L 243.378745 307.275266 
L 243.378745 307.522253 
L 249.8416 307.522253 
L 249.8416 307.460506 
L 256.304455 307.460506 
L 256.304455 307.429633 
L 262.767311 307.429633 
L 262.767311 307.49138 
L 269.230166 307.49138 
L 269.230166 307.429633 
L 275.693021 307.429633 
L 275.693021 307.429633 
L 282.155877 307.429633 
L 282.155877 307.460506 
L 288.618732 307.460506 
L 288.618732 307.460506 
L 295.081587 307.460506 
L 295.081587 307.522253 
L 301.544443 307.522253 
L 301.544443 307.584 
L 308.007298 307.584 
L 308.007298 307.49138 
L 314.470153 307.49138 
L 314.470153 307.553127 
L 320.933009 307.553127 
L 320.933009 307.553127 
L 327.395864 307.553127 
L 327.395864 307.553127 
L 333.858719 307.553127 
L 333.858719 307.553127 
L 340.321575 307.553127 
L 340.321575 307.49138 
L 346.78443 307.49138 
L 346.78443 307.584 
L 353.247285 307.584 
L 353.247285 307.522253 
L 359.710141 307.522253 
L 359.710141 307.522253 
L 366.172996 307.522253 
L 366.172996 307.553127 
L 372.635851 307.553127 
L 372.635851 307.522253 
L 379.098707 307.522253 
L 379.098707 307.553127 
L 385.561562 307.553127 
L 385.561562 307.553127 
L 392.024417 307.553127 
L 392.024417 307.553127 
L 398.487273 307.553127 
L 398.487273 307.584 
" style="fill:none;stroke:#1f77b4;stroke-linejoin:miter;"/>
   </g>
   <g id="patch_4">
    <path clip-path="url(#peaeb49acaa)" d="M 75.344506 307.584 
L 75.344506 303.910062 
L 81.807362 303.910062 
L 81.807362 298.754199 
L 88.270217 298.754199 
L 88.270217 295.852096 
L 94.733072 295.852096 
L 94.733072 292.91912 
L 101.195928 292.91912 
L 101.195928 286.065218 
L 107.658783 286.065218 
L 107.658783 283.749711 
L 114.121638 283.749711 
L 114.121638 285.818231 
L 120.584494 285.818231 
L 120.584494 296.253451 
L 127.047349 296.253451 
L 127.047349 300.20525 
L 133.510204 300.20525 
L 133.510204 303.35434 
L 139.97306 303.35434 
L 139.97306 304.373163 
L 146.435915 304.373163 
L 146.435915 305.299366 
L 152.89877 305.299366 
L 152.89877 305.6081 
L 159.361626 305.6081 
L 159.361626 305.299366 
L 165.824481 305.299366 
L 165.824481 305.916835 
L 172.287336 305.916835 
L 172.287336 305.577227 
L 178.750192 305.577227 
L 178.750192 305.51548 
L 185.213047 305.51548 
L 185.213047 305.855088 
L 191.675902 305.855088 
L 191.675902 306.256442 
L 198.138758 306.256442 
L 198.138758 305.916835 
L 204.601613 305.916835 
L 204.601613 305.947708 
L 211.064468 305.947708 
L 211.064468 306.68867 
L 217.527324 306.68867 
L 217.527324 306.441683 
L 223.990179 306.441683 
L 223.990179 307.028278 
L 230.453034 307.028278 
L 230.453034 306.719544 
L 236.91589 306.719544 
L 236.91589 307.028278 
L 243.378745 307.028278 
L 243.378745 307.49138 
L 249.8416 307.49138 
L 249.8416 307.367886 
L 256.304455 307.367886 
L 256.304455 307.367886 
L 262.767311 307.367886 
L 262.767311 307.398759 
L 269.230166 307.398759 
L 269.230166 307.429633 
L 275.693021 307.429633 
L 275.693021 307.429633 
L 282.155877 307.429633 
L 282.155877 307.429633 
L 288.618732 307.429633 
L 288.618732 307.398759 
L 295.081587 307.398759 
L 295.081587 307.49138 
L 301.544443 307.49138 
L 301.544443 307.584 
L 308.007298 307.584 
L 308.007298 307.49138 
L 314.470153 307.49138 
L 314.470153 307.522253 
L 320.933009 307.522253 
L 320.933009 307.522253 
L 327.395864 307.522253 
L 327.395864 307.553127 
L 333.858719 307.553127 
L 333.858719 307.553127 
L 340.321575 307.553127 
L 340.321575 307.429633 
L 346.78443 307.429633 
L 346.78443 307.584 
L 353.247285 307.584 
L 353.247285 307.49138 
L 359.710141 307.49138 
L 359.710141 307.522253 
L 366.172996 307.522253 
L 366.172996 307.553127 
L 372.635851 307.553127 
L 372.635851 307.522253 
L 379.098707 307.522253 
L 379.098707 307.553127 
L 385.561562 307.553127 
L 385.561562 307.553127 
L 392.024417 307.553127 
L 392.024417 307.553127 
L 398.487273 307.553127 
L 398.487273 307.584 
" style="fill:none;stroke:#ff7f0e;stroke-linejoin:miter;"/>
   </g>
   <g id="patch_5">
    <path clip-path="url(#peaeb49acaa)" d="M 73.832727 307.584 
L 73.832727 300.483111 
L 80.325818 300.483111 
L 80.325818 289.615663 
L 86.818909 289.615663 
L 86.818909 278.655595 
L 93.312 278.655595 
L 93.312 255.840129 
L 99.805091 255.840129 
L 99.805091 216.136896 
L 106.298182 216.136896 
L 106.298182 192.734834 
L 112.791273 192.734834 
L 112.791273 219.68734 
L 119.284364 219.68734 
L 119.284364 258.27913 
L 125.777455 258.27913 
L 125.777455 281.835558 
L 132.270545 281.835558 
L 132.270545 294.864146 
L 138.763636 294.864146 
L 138.763636 300.483111 
L 145.256727 300.483111 
L 145.256727 302.304643 
L 151.749818 302.304643 
L 151.749818 302.891238 
L 158.242909 302.891238 
L 158.242909 302.891238 
L 164.736 302.891238 
L 164.736 304.496657 
L 171.229091 304.496657 
L 171.229091 304.589277 
L 177.722182 304.589277 
L 177.722182 304.465783 
L 184.215273 304.465783 
L 184.215273 304.589277 
L 190.708364 304.589277 
L 190.708364 305.391986 
L 197.201455 305.391986 
L 197.201455 305.175872 
L 203.694545 305.175872 
L 203.694545 305.546354 
L 210.187636 305.546354 
L 210.187636 306.194696 
L 216.680727 306.194696 
L 216.680727 306.040328 
L 223.173818 306.040328 
L 223.173818 306.441683 
L 229.666909 306.441683 
L 229.666909 306.657797 
L 236.16 306.657797 
L 236.16 306.781291 
L 242.653091 306.781291 
L 242.653091 307.275266 
L 249.146182 307.275266 
L 249.146182 307.275266 
L 255.639273 307.275266 
L 255.639273 307.306139 
L 262.132364 307.306139 
L 262.132364 307.367886 
L 268.625455 307.367886 
L 268.625455 307.367886 
L 275.118545 307.367886 
L 275.118545 307.429633 
L 281.611636 307.429633 
L 281.611636 307.275266 
L 288.104727 307.275266 
L 288.104727 307.337013 
L 294.597818 307.337013 
L 294.597818 307.522253 
L 301.090909 307.522253 
L 301.090909 307.49138 
L 307.584 307.49138 
L 307.584 307.429633 
L 314.077091 307.429633 
L 314.077091 307.49138 
L 320.570182 307.49138 
L 320.570182 307.522253 
L 327.063273 307.522253 
L 327.063273 307.553127 
L 333.556364 307.553127 
L 333.556364 307.522253 
L 340.049455 307.522253 
L 340.049455 307.398759 
L 346.542545 307.398759 
L 346.542545 307.553127 
L 353.035636 307.553127 
L 353.035636 307.460506 
L 359.528727 307.460506 
L 359.528727 307.522253 
L 366.021818 307.522253 
L 366.021818 307.553127 
L 372.514909 307.553127 
L 372.514909 307.398759 
L 379.008 307.398759 
L 379.008 307.553127 
L 385.501091 307.553127 
L 385.501091 307.522253 
L 391.994182 307.522253 
L 391.994182 307.522253 
L 398.487273 307.522253 
L 398.487273 307.584 
" style="fill:none;stroke:#2ca02c;stroke-linejoin:miter;"/>
   </g>
   <g id="patch_6">
    <path clip-path="url(#peaeb49acaa)" d="M 89.328462 307.584 
L 89.328462 306.966531 
L 95.511638 306.966531 
L 95.511638 305.484607 
L 101.694815 305.484607 
L 101.694815 304.34229 
L 107.877991 304.34229 
L 107.877991 302.36639 
L 114.061167 302.36639 
L 114.061167 300.081756 
L 120.244343 300.081756 
L 120.244343 298.939439 
L 126.42752 298.939439 
L 126.42752 297.395768 
L 132.610696 297.395768 
L 132.610696 297.704502 
L 138.793872 297.704502 
L 138.793872 297.550135 
L 144.977048 297.550135 
L 144.977048 299.340794 
L 151.160224 299.340794 
L 151.160224 299.989136 
L 157.343401 299.989136 
L 157.343401 300.977086 
L 163.526577 300.977086 
L 163.526577 302.242896 
L 169.709753 302.242896 
L 169.709753 302.644251 
L 175.892929 302.644251 
L 175.892929 303.169099 
L 182.076105 303.169099 
L 182.076105 303.416087 
L 188.259282 303.416087 
L 188.259282 302.891238 
L 194.442458 302.891238 
L 194.442458 304.52753 
L 200.625634 304.52753 
L 200.625634 303.910062 
L 206.80881 303.910062 
L 206.80881 304.311416 
L 212.991986 304.311416 
L 212.991986 304.898011 
L 219.175163 304.898011 
L 219.175163 303.385213 
L 225.358339 303.385213 
L 225.358339 301.563681 
L 231.541515 301.563681 
L 231.541515 302.613378 
L 237.724691 302.613378 
L 237.724691 304.064429 
L 243.907867 304.064429 
L 243.907867 304.928885 
L 250.091044 304.928885 
L 250.091044 304.589277 
L 256.27422 304.589277 
L 256.27422 305.052379 
L 262.457396 305.052379 
L 262.457396 305.206746 
L 268.640572 305.206746 
L 268.640572 305.51548 
L 274.823749 305.51548 
L 274.823749 305.855088 
L 281.006925 305.855088 
L 281.006925 305.947708 
L 287.190101 305.947708 
L 287.190101 305.577227 
L 293.373277 305.577227 
L 293.373277 305.947708 
L 299.556453 305.947708 
L 299.556453 306.194696 
L 305.73963 306.194696 
L 305.73963 306.59605 
L 311.922806 306.59605 
L 311.922806 306.225569 
L 318.105982 306.225569 
L 318.105982 306.472556 
L 324.289158 306.472556 
L 324.289158 306.626924 
L 330.472334 306.626924 
L 330.472334 306.534303 
L 336.655511 306.534303 
L 336.655511 306.68867 
L 342.838687 306.68867 
L 342.838687 306.750417 
L 349.021863 306.750417 
L 349.021863 306.565177 
L 355.205039 306.565177 
L 355.205039 306.873911 
L 361.388215 306.873911 
L 361.388215 306.812164 
L 367.571392 306.812164 
L 367.571392 306.904785 
L 373.754568 306.904785 
L 373.754568 306.904785 
L 379.937744 306.904785 
L 379.937744 305.824214 
L 386.12092 305.824214 
L 386.12092 307.151772 
L 392.304097 307.151772 
L 392.304097 305.793341 
L 398.487273 305.793341 
L 398.487273 307.584 
" style="fill:none;stroke:#d62728;stroke-linejoin:miter;"/>
   </g>
   <g id="patch_7">
    <path clip-path="url(#peaeb49acaa)" d="M 86.304904 307.584 
L 86.304904 306.843038 
L 92.548552 306.843038 
L 92.548552 304.52753 
L 98.792199 304.52753 
L 98.792199 299.340794 
L 105.035846 299.340794 
L 105.035846 294.184931 
L 111.279494 294.184931 
L 111.279494 284.675914 
L 117.523141 284.675914 
L 117.523141 279.828785 
L 123.766788 279.828785 
L 123.766788 278.099873 
L 130.010436 278.099873 
L 130.010436 275.660872 
L 136.254083 275.660872 
L 136.254083 280.600621 
L 142.497731 280.600621 
L 142.497731 286.466573 
L 148.741378 286.466573 
L 148.741378 291.992917 
L 154.985025 291.992917 
L 154.985025 296.191704 
L 161.228673 296.191704 
L 161.228673 297.858869 
L 167.47232 297.858869 
L 167.47232 298.445464 
L 173.715967 298.445464 
L 173.715967 298.846819 
L 179.959615 298.846819 
L 179.959615 298.105856 
L 186.203262 298.105856 
L 186.203262 297.611882 
L 192.44691 297.611882 
L 192.44691 297.2414 
L 198.690557 297.2414 
L 198.690557 298.754199 
L 204.934204 298.754199 
L 204.934204 296.809172 
L 211.177852 296.809172 
L 211.177852 294.802399 
L 217.421499 294.802399 
L 217.421499 290.449245 
L 223.665146 290.449245 
L 223.665146 293.567462 
L 229.908794 293.567462 
L 229.908794 296.222577 
L 236.152441 296.222577 
L 236.152441 301.131453 
L 242.396088 301.131453 
L 242.396088 301.995909 
L 248.639736 301.995909 
L 248.639736 303.385213 
L 254.883383 303.385213 
L 254.883383 304.651024 
L 261.127031 304.651024 
L 261.127031 304.404037 
L 267.370678 304.404037 
L 267.370678 304.867138 
L 273.614325 304.867138 
L 273.614325 305.299366 
L 279.857973 305.299366 
L 279.857973 305.700721 
L 286.10162 305.700721 
L 286.10162 305.42286 
L 292.345267 305.42286 
L 292.345267 305.731594 
L 298.588915 305.731594 
L 298.588915 306.132949 
L 304.832562 306.132949 
L 304.832562 306.41081 
L 311.07621 306.41081 
L 311.07621 306.256442 
L 317.319857 306.256442 
L 317.319857 306.441683 
L 323.563504 306.441683 
L 323.563504 306.472556 
L 329.807152 306.472556 
L 329.807152 306.719544 
L 336.050799 306.719544 
L 336.050799 306.379936 
L 342.294446 306.379936 
L 342.294446 306.68867 
L 348.538094 306.68867 
L 348.538094 306.50343 
L 354.781741 306.50343 
L 354.781741 306.657797 
L 361.025389 306.657797 
L 361.025389 306.781291 
L 367.269036 306.781291 
L 367.269036 306.873911 
L 373.512683 306.873911 
L 373.512683 306.534303 
L 379.756331 306.534303 
L 379.756331 305.237619 
L 385.999978 305.237619 
L 385.999978 306.812164 
L 392.243625 306.812164 
L 392.243625 305.51548 
L 398.487273 305.51548 
L 398.487273 307.584 
" style="fill:none;stroke:#9467bd;stroke-linejoin:miter;"/>
   </g>
   <g id="patch_8">
    <path clip-path="url(#peaeb49acaa)" d="M 86.304904 307.584 
L 86.304904 296.284324 
L 92.548552 296.284324 
L 92.548552 255.716635 
L 98.792199 255.716635 
L 98.792199 207.862816 
L 105.035846 207.862816 
L 105.035846 152.445006 
L 111.279494 152.445006 
L 111.279494 105.146909 
L 117.523141 105.146909 
L 117.523141 54.144 
L 123.766788 54.144 
L 123.766788 80.077683 
L 130.010436 80.077683 
L 130.010436 133.982694 
L 136.254083 133.982694 
L 136.254083 201.472016 
L 142.497731 201.472016 
L 142.497731 234.938815 
L 148.741378 234.938815 
L 148.741378 257.476421 
L 154.985025 257.476421 
L 154.985025 268.251248 
L 161.228673 268.251248 
L 161.228673 278.285113 
L 167.47232 278.285113 
L 167.47232 282.360406 
L 173.715967 282.360406 
L 173.715967 285.941724 
L 179.959615 285.941724 
L 179.959615 283.626217 
L 186.203262 283.626217 
L 186.203262 282.360406 
L 192.44691 282.360406 
L 192.44691 277.111923 
L 198.690557 277.111923 
L 198.690557 279.489177 
L 204.934204 279.489177 
L 204.934204 282.082545 
L 211.177852 282.082545 
L 211.177852 286.929674 
L 217.421499 286.929674 
L 217.421499 288.071991 
L 223.665146 288.071991 
L 223.665146 292.301651 
L 229.908794 292.301651 
L 229.908794 295.296374 
L 236.152441 295.296374 
L 236.152441 300.421364 
L 242.396088 300.421364 
L 242.396088 301.594554 
L 248.639736 301.594554 
L 248.639736 302.922112 
L 254.883383 302.922112 
L 254.883383 304.34229 
L 261.127031 304.34229 
L 261.127031 304.157049 
L 267.370678 304.157049 
L 267.370678 304.620151 
L 273.614325 304.620151 
L 273.614325 305.083252 
L 279.857973 305.083252 
L 279.857973 305.42286 
L 286.10162 305.42286 
L 286.10162 305.361113 
L 292.345267 305.361113 
L 292.345267 305.669847 
L 298.588915 305.669847 
L 298.588915 306.040328 
L 304.832562 306.040328 
L 304.832562 306.256442 
L 311.07621 306.256442 
L 311.07621 306.040328 
L 317.319857 306.040328 
L 317.319857 306.287316 
L 323.563504 306.287316 
L 323.563504 306.287316 
L 329.807152 306.287316 
L 329.807152 306.59605 
L 336.050799 306.59605 
L 336.050799 306.194696 
L 342.294446 306.194696 
L 342.294446 306.472556 
L 348.538094 306.472556 
L 348.538094 306.41081 
L 354.781741 306.41081 
L 354.781741 306.59605 
L 361.025389 306.59605 
L 361.025389 306.781291 
L 367.269036 306.781291 
L 367.269036 306.657797 
L 373.512683 306.657797 
L 373.512683 306.50343 
L 379.756331 306.50343 
L 379.756331 304.867138 
L 385.999978 304.867138 
L 385.999978 306.750417 
L 392.243625 306.750417 
L 392.243625 303.107352 
L 398.487273 303.107352 
L 398.487273 307.584 
" style="fill:none;stroke:#8c564b;stroke-linejoin:miter;"/>
   </g>
   <g id="patch_9">
    <path d="M 57.6 307.584 
L 57.6 41.472 
" style="fill:none;stroke:#000000;stroke-linecap:square;stroke-linejoin:miter;stroke-width:0.8;"/>
   </g>
   <g id="patch_10">
    <path d="M 414.72 307.584 
L 414.72 41.472 
" style="fill:none;stroke:#000000;stroke-linecap:square;stroke-linejoin:miter;stroke-width:0.8;"/>
   </g>
   <g id="patch_11">
    <path d="M 57.6 307.584 
L 414.72 307.584 
" style="fill:none;stroke:#000000;stroke-linecap:square;stroke-linejoin:miter;stroke-width:0.8;"/>
   </g>
   <g id="patch_12">
    <path d="M 57.6 41.472 
L 414.72 41.472 
" style="fill:none;stroke:#000000;stroke-linecap:square;stroke-linejoin:miter;stroke-width:0.8;"/>
   </g>
   <g id="legend_1">
    <g id="patch_13">
     <path d="M 300.552813 137.54075 
L 407.72 137.54075 
Q 409.72 137.54075 409.72 135.54075 
L 409.72 48.472 
Q 409.72 46.472 407.72 46.472 
L 300.552813 46.472 
Q 298.552813 46.472 298.552813 48.472 
L 298.552813 135.54075 
Q 298.552813 137.54075 300.552813 137.54075 
z
" style="fill:#ffffff;opacity:0.8;stroke:#cccccc;stroke-linejoin:miter;"/>
    </g>
    <g id="patch_14">
     <path d="M 302.552813 58.070438 
L 322.552813 58.070438 
L 322.552813 51.070438 
L 302.552813 51.070438 
z
" style="fill:none;stroke:#1f77b4;stroke-linejoin:miter;"/>
    </g>
    <g id="text_17">
     <!-- HNSW 300 -->
     <g transform="translate(330.552813 58.070438)scale(0.1 -0.1)">
      <defs>
       <path d="M 9.8125 72.90625 
L 19.671875 72.90625 
L 19.671875 43.015625 
L 55.515625 43.015625 
L 55.515625 72.90625 
L 65.375 72.90625 
L 65.375 0 
L 55.515625 0 
L 55.515625 34.71875 
L 19.671875 34.71875 
L 19.671875 0 
L 9.8125 0 
z
" id="DejaVuSans-72"/>
       <path d="M 3.328125 72.90625 
L 13.28125 72.90625 
L 28.609375 11.28125 
L 43.890625 72.90625 
L 54.984375 72.90625 
L 70.3125 11.28125 
L 85.59375 72.90625 
L 95.609375 72.90625 
L 77.296875 0 
L 64.890625 0 
L 49.515625 63.28125 
L 33.984375 0 
L 21.578125 0 
z
" id="DejaVuSans-87"/>
      </defs>
      <use xlink:href="#DejaVuSans-72"/>
      <use x="75.195312" xlink:href="#DejaVuSans-78"/>
      <use x="150" xlink:href="#DejaVuSans-83"/>
      <use x="213.476562" xlink:href="#DejaVuSans-87"/>
      <use x="312.353516" xlink:href="#DejaVuSans-32"/>
      <use x="344.140625" xlink:href="#DejaVuSans-51"/>
      <use x="407.763672" xlink:href="#DejaVuSans-48"/>
      <use x="471.386719" xlink:href="#DejaVuSans-48"/>
     </g>
    </g>
    <g id="patch_15">
     <path d="M 302.552813 72.748563 
L 322.552813 72.748563 
L 322.552813 65.748563 
L 302.552813 65.748563 
z
" style="fill:none;stroke:#ff7f0e;stroke-linejoin:miter;"/>
    </g>
    <g id="text_18">
     <!-- HNSW 1000 -->
     <g transform="translate(330.552813 72.748563)scale(0.1 -0.1)">
      <use xlink:href="#DejaVuSans-72"/>
      <use x="75.195312" xlink:href="#DejaVuSans-78"/>
      <use x="150" xlink:href="#DejaVuSans-83"/>
      <use x="213.476562" xlink:href="#DejaVuSans-87"/>
      <use x="312.353516" xlink:href="#DejaVuSans-32"/>
      <use x="344.140625" xlink:href="#DejaVuSans-49"/>
      <use x="407.763672" xlink:href="#DejaVuSans-48"/>
      <use x="471.386719" xlink:href="#DejaVuSans-48"/>
      <use x="535.009766" xlink:href="#DejaVuSans-48"/>
     </g>
    </g>
    <g id="patch_16">
     <path d="M 302.552813 87.426688 
L 322.552813 87.426688 
L 322.552813 80.426688 
L 302.552813 80.426688 
z
" style="fill:none;stroke:#2ca02c;stroke-linejoin:miter;"/>
    </g>
    <g id="text_19">
     <!-- HNSW 10000 -->
     <g transform="translate(330.552813 87.426688)scale(0.1 -0.1)">
      <use xlink:href="#DejaVuSans-72"/>
      <use x="75.195312" xlink:href="#DejaVuSans-78"/>
      <use x="150" xlink:href="#DejaVuSans-83"/>
      <use x="213.476562" xlink:href="#DejaVuSans-87"/>
      <use x="312.353516" xlink:href="#DejaVuSans-32"/>
      <use x="344.140625" xlink:href="#DejaVuSans-49"/>
      <use x="407.763672" xlink:href="#DejaVuSans-48"/>
      <use x="471.386719" xlink:href="#DejaVuSans-48"/>
      <use x="535.009766" xlink:href="#DejaVuSans-48"/>
      <use x="598.632812" xlink:href="#DejaVuSans-48"/>
     </g>
    </g>
    <g id="patch_17">
     <path d="M 302.552813 102.104813 
L 322.552813 102.104813 
L 322.552813 95.104813 
L 302.552813 95.104813 
z
" style="fill:none;stroke:#d62728;stroke-linejoin:miter;"/>
    </g>
    <g id="text_20">
     <!-- MMseqs 300 -->
     <g transform="translate(330.552813 102.104813)scale(0.1 -0.1)">
      <defs>
       <path d="M 9.8125 72.90625 
L 24.515625 72.90625 
L 43.109375 23.296875 
L 61.8125 72.90625 
L 76.515625 72.90625 
L 76.515625 0 
L 66.890625 0 
L 66.890625 64.015625 
L 48.09375 14.015625 
L 38.1875 14.015625 
L 19.390625 64.015625 
L 19.390625 0 
L 9.8125 0 
z
" id="DejaVuSans-77"/>
      </defs>
      <use xlink:href="#DejaVuSans-77"/>
      <use x="86.279297" xlink:href="#DejaVuSans-77"/>
      <use x="172.558594" xlink:href="#DejaVuSans-115"/>
      <use x="224.658203" xlink:href="#DejaVuSans-101"/>
      <use x="286.181641" xlink:href="#DejaVuSans-113"/>
      <use x="349.658203" xlink:href="#DejaVuSans-115"/>
      <use x="401.757812" xlink:href="#DejaVuSans-32"/>
      <use x="433.544922" xlink:href="#DejaVuSans-51"/>
      <use x="497.167969" xlink:href="#DejaVuSans-48"/>
      <use x="560.791016" xlink:href="#DejaVuSans-48"/>
     </g>
    </g>
    <g id="patch_18">
     <path d="M 302.552813 116.782938 
L 322.552813 116.782938 
L 322.552813 109.782938 
L 302.552813 109.782938 
z
" style="fill:none;stroke:#9467bd;stroke-linejoin:miter;"/>
    </g>
    <g id="text_21">
     <!-- MMseqs 1000 -->
     <g transform="translate(330.552813 116.782938)scale(0.1 -0.1)">
      <use xlink:href="#DejaVuSans-77"/>
      <use x="86.279297" xlink:href="#DejaVuSans-77"/>
      <use x="172.558594" xlink:href="#DejaVuSans-115"/>
      <use x="224.658203" xlink:href="#DejaVuSans-101"/>
      <use x="286.181641" xlink:href="#DejaVuSans-113"/>
      <use x="349.658203" xlink:href="#DejaVuSans-115"/>
      <use x="401.757812" xlink:href="#DejaVuSans-32"/>
      <use x="433.544922" xlink:href="#DejaVuSans-49"/>
      <use x="497.167969" xlink:href="#DejaVuSans-48"/>
      <use x="560.791016" xlink:href="#DejaVuSans-48"/>
      <use x="624.414062" xlink:href="#DejaVuSans-48"/>
     </g>
    </g>
    <g id="patch_19">
     <path d="M 302.552813 131.461063 
L 322.552813 131.461063 
L 322.552813 124.461063 
L 302.552813 124.461063 
z
" style="fill:none;stroke:#8c564b;stroke-linejoin:miter;"/>
    </g>
    <g id="text_22">
     <!-- MMseqs 10000 -->
     <g transform="translate(330.552813 131.461063)scale(0.1 -0.1)">
      <use xlink:href="#DejaVuSans-77"/>
      <use x="86.279297" xlink:href="#DejaVuSans-77"/>
      <use x="172.558594" xlink:href="#DejaVuSans-115"/>
      <use x="224.658203" xlink:href="#DejaVuSans-101"/>
      <use x="286.181641" xlink:href="#DejaVuSans-113"/>
      <use x="349.658203" xlink:href="#DejaVuSans-115"/>
      <use x="401.757812" xlink:href="#DejaVuSans-32"/>
      <use x="433.544922" xlink:href="#DejaVuSans-49"/>
      <use x="497.167969" xlink:href="#DejaVuSans-48"/>
      <use x="560.791016" xlink:href="#DejaVuSans-48"/>
      <use x="624.414062" xlink:href="#DejaVuSans-48"/>
      <use x="688.037109" xlink:href="#DejaVuSans-48"/>
     </g>
    </g>
   </g>
  </g>
 </g>
 <defs>
  <clipPath id="peaeb49acaa">
   <rect height="266.112" width="357.12" x="57.6" y="41.472"/>
  </clipPath>
 </defs>
</svg>
